<?xml version="1.0" encoding="UTF-8" standalone="no"?>
<svg
   xmlns:dc="http://purl.org/dc/elements/1.1/"
   xmlns:cc="http://creativecommons.org/ns#"
   xmlns:rdf="http://www.w3.org/1999/02/22-rdf-syntax-ns#"
   xmlns:svg="http://www.w3.org/2000/svg"
   xmlns="http://www.w3.org/2000/svg"
   xmlns:sodipodi="http://sodipodi.sourceforge.net/DTD/sodipodi-0.dtd"
   xmlns:inkscape="http://www.inkscape.org/namespaces/inkscape"
   sodipodi:docname="celeste.svg"
   viewBox="0 0 3400 5400"
   version="1.1"
   id="svg8"
   inkscape:version="1.0 (4035a4f, 2020-05-01)">
  <title
     id="title8">Hen sitting on ringed planet</title>
  <defs
     id="defs2" />
  <sodipodi:namedview
     gridtolerance="1"
     guidetolerance="1"
     objecttolerance="1"
     inkscape:window-maximized="1"
     inkscape:window-y="23"
     inkscape:window-x="0"
     showguides="true"
     scale-x="1"
     units="mm"
     id="base"
     pagecolor="#ffffff"
     bordercolor="#666666"
     borderopacity="1.0"
     inkscape:pageopacity="0.0"
     inkscape:pageshadow="2"
     inkscape:zoom="0.89009849"
     inkscape:cx="166.94959"
     inkscape:cy="218.17447"
     inkscape:document-units="mm"
     inkscape:current-layer="layer4"
     inkscape:document-rotation="0"
     showgrid="true"
     inkscape:pagecheckerboard="false">
    <inkscape:grid
       type="xygrid"
       id="grid10"
       dotted="false"
       units="mm"
       spacingx="39.370079"
       spacingy="39.370079"
       color="#00cc00"
       opacity="0.2"
       empcolor="#006600"
       empopacity="0.2"
       empspacing="5"
       snapvisiblegridlinesonly="false"
       visible="true" />
  </sodipodi:namedview>
  <metadata
     id="metadata5">
    <rdf:RDF>
      <cc:Work
         rdf:about="">
        <dc:format>image/svg+xml</dc:format>
        <dc:type
           rdf:resource="http://purl.org/dc/dcmitype/StillImage" />
        <dc:title>Hen sitting on ringed planet</dc:title>
      </cc:Work>
    </rdf:RDF>
  </metadata>
  <g
     inkscape:label="base"
     id="layer4"
     inkscape:groupmode="layer">
    <path
       id="path1077"
       d="m 1354.9643,5049.1068 c -228.832,-25.975 -447.31995,-104.6884 -637.53354,-229.6815 -84.78933,-55.7166 -141.95979,-102.1936 -220.18856,-179.0028 -65.50131,-64.313 -65.50131,-64.313 -113.48621,-69.1447 -452.126095,-45.5248 -724.84955,-201.7766 -790.81701,-453.0835 -9.14636,-34.8437 -11.17953,-52.8453 -11.44097,-101.2994 -0.3527,-65.3442 4.36357,-95.8396 23.90465,-154.5696 47.02721,-141.3376 159.40925,-287.2273 330.984229,-429.6695 63.23256137,-52.4958 98.171935,-72.6538 133.605313,-77.082 22.301554,-2.7871 22.301554,-2.7871 30.114098,-40.6544 9.96503,-48.3008 36.39724,-139.4365 55.92386,-192.8197 52.93246,-144.7107 134.5419,-291.1647 200.81736,-360.3811 23.14334,-24.1705 36.63028,-41.4238 33.76525,-43.1944 -10.15197,-6.2741 -22.25258,-38.6278 -43.41902,-116.0896 -37.17285,-136.04 -53.7524,-238.0816 -62.25143,-383.1382 -5.36406,-91.5518 -0.78568,-207.7522 11.71773,-297.3982 6.52457,-46.7789 6.52457,-46.7789 -4.20479,-66.0137 -22.03546,-39.5026 -119.65135,-295.5293 -125.02746,-327.9212 -15.07558,-90.8328 44.80905,-176.7201 141.0888,-202.3513 16.41782,-4.3708 51.43211,-6.1082 123.84007,-6.1454 100.9505,-0.051 100.9505,-0.051 148.40507,-47.2669 26.10003,-25.9683 58.90754,-56.9111 72.90557,-68.7619 25.45093,-21.5469 25.45093,-21.5469 4.95702,-36.8084 -30.88479,-22.9994 -65.74238,-67.3956 -87.37788,-111.2885 -23.75641,-48.1953 -32.02679,-79.28246 -35.44076,-133.21728 -12.46871,-196.98437 158.52495,-365.75845 356.48433,-351.85726 39.42306,2.76839 91.44005,15.41656 116.70188,28.3767 15.2963,7.84751 15.2963,7.84751 44.7594,-6.8497 103.8631,-51.81079 226.652,-47.1308 325.8571,12.41975 31.7005,19.02895 79.0822,62.86784 97.9432,90.61924 14.9056,21.9316 14.9056,21.9316 56.3717,19.55759 207.4142,-11.87486 374.6248,163.4345 353.2199,370.32796 -8.4028,81.2166 -39.5606,144.8907 -100.1042,204.5706 -32.2469,31.787 -45.0067,40.9235 -83.3948,59.7146 -24.9274,12.2019 -51.7062,23.4595 -59.5083,25.017 -17.0764,3.4084 -17.2933,6.2513 -2.8266,37.0566 6.2006,13.2037 24.9107,59.3621 41.5783,102.5741 16.6673,43.2121 39.7662,99.1915 51.3306,124.3984 11.5647,25.2069 23.3293,51.4331 26.1439,58.28 4.0784,9.9214 7.1184,11.9468 14.9726,9.9756 39.6121,-9.9419 118.5591,-11.2234 544.2625,-8.8345 421.1169,2.3629 459.3099,3.1842 497.5934,10.6995 123.1632,24.1774 206.4899,121.7768 206.2635,241.5945 -0.1495,79.0014 -33.6399,148.3238 -94.3536,195.3003 -22.7846,17.6294 -22.7846,17.6294 -12.3142,48.8436 20.2049,60.2308 11.7662,138.3203 -21.2694,196.8197 -13.3035,23.5588 -43.9854,58.0336 -70.5267,79.2451 -16.207,12.9528 -16.207,12.9528 -7.3102,41.1858 14.1082,44.77 11.0545,118.8047 -6.6629,161.5361 -2.2897,5.5222 7.0649,8.8756 52.3807,18.7767 186.5583,40.7618 327.2293,106.5835 426.7192,199.6669 195.7636,183.1583 193.7006,446.2125 -5.4676,697.1716 -72.1826,90.952 -160.0654,173.6896 -277.5879,261.3349 -33.6092,25.065 -67.2529,50.2554 -74.7634,55.9784 -8.8853,6.7707 -14.6678,15.8007 -16.5529,25.8491 -6.3691,33.9529 -33.3891,125.6937 -52.7513,179.1093 -38.9033,107.3229 -88.1174,204.457 -152.674,301.3326 -57.1364,85.7405 -107.4137,147.0284 -181.0084,220.648 -224.2349,224.3113 -496.3716,361.6419 -814.109,410.8308 -75.7055,11.72 -278.9268,14.9429 -360.2382,5.7136 z m 325.1815,-143.7765 c 287.9627,-42.1048 533.964,-162.25 737.1355,-360.0114 106.019,-103.1957 177.2849,-199.4571 247.4124,-334.188 28.3336,-54.4353 80.8852,-180.0056 76.9711,-183.9196 -1.0359,-1.036 -31.1158,14.2137 -66.844,33.888 -351.8811,193.7677 -854.7381,366.0939 -1315.4915,450.8108 -223.2786,41.0533 -393.87606,59.8329 -649.81001,71.5312 -67.10218,3.0672 -67.10218,3.0672 -17.45944,42.9102 202.40737,162.4504 440.14795,258.9418 702.18825,284.9958 59.7646,5.9417 228.3762,2.3935 285.8977,-6.017 z M 774.43897,4291.821 c 680.34283,-32.4484 1471.33483,-277.1902 1972.45063,-610.2982 62.8272,-41.7632 62.8272,-41.7632 60.2175,-118.3605 -7.8702,-230.9984 -76.6723,-449.3003 -205.0421,-650.5757 -34.3068,-53.791 -47.4784,-67.4749 -80.7003,-83.8397 -30.8619,-15.2024 -36.2161,-14.4129 -63.2528,9.3253 -41.3034,36.2652 -110.7641,64.5461 -182.1634,74.1682 -26.2664,3.5398 -235.3166,5.2764 -715.8362,5.9467 -717.35354,1.0005 -738.17697,0.5154 -815.84155,-19.0109 -45.83811,-11.5246 -105.13552,-42.2381 -146.60839,-75.9371 -26.08495,-21.1953 -38.34146,-28.3898 -48.44778,-28.4384 -30.42856,-0.1467 -96.81674,61.6428 -139.99333,130.2959 -26.23253,41.7108 -88.65236,159.5168 -88.70583,167.4157 -0.013,1.7322 92.15323,3.6963 204.81108,4.3649 200.02504,1.1872 205.12157,1.4301 217.15155,10.3468 23.77881,17.6251 32.91892,36.23 31.03572,63.1744 -1.9999,28.6159 -13.7018,47.6829 -35.65855,58.1021 -13.1829,6.2556 -41.57291,7.0853 -242.44344,7.0853 -227.51203,0 -227.51203,0 -231.50306,10.4974 -7.48283,19.6815 -30.39372,118.1608 -36.87179,158.4888 -5.12706,31.9172 -5.44971,45.6623 -1.56258,66.564 4.8986,26.3411 4.8986,26.3411 144.8948,26.4131 137.13971,0.07 140.35056,0.2722 157.36655,9.9098 24.48264,13.866 38.04332,38.7288 35.79996,65.6372 -1.95744,23.4796 -11.8591,39.5176 -33.48418,54.2355 -14.28578,9.7228 -15.95613,9.8211 -167.22858,9.8211 -152.79863,0 -152.79863,0 -150.01656,55.6517 8.25401,165.1101 53.53077,337.0692 129.5796,492.1373 49.32815,100.5832 46.22303,96.6457 79.23913,100.4775 83.7594,9.7214 228.24441,12.3431 352.8139,6.4018 z M 204.298,4227.4994 C 133.33453,4070.2962 91.204216,3915.3026 75.664112,3754.2676 c -5.33622,-55.2968 -5.33622,-55.2968 -24.705454,-39.2839 -30.597464,25.2959 -90.851145,95.1171 -121.193883,140.4383 -88.249155,131.8123 -81.827765,220.2501 21.276764,293.0334 54.9590914,38.7968 107.237249,62.1661 199.223211,89.0568 69.37323,20.2804 67.83664,20.5652 54.03325,-10.0128 z m 2805.8637,-761.0553 c 50.8848,-55.4872 83.4183,-100.2299 105.9737,-145.7437 52.0776,-105.0849 40.3285,-171.1411 -41.883,-235.4672 -37.1585,-29.0744 -93.6203,-58.2561 -151.7974,-78.4552 -42.1796,-14.6447 -107.7049,-33.0833 -117.5674,-33.0833 -2.3658,0 6.0867,23.0791 18.783,51.287 46.3918,103.0695 76.358,196.6425 98.1958,306.6309 11.3201,57.0156 15.3521,84.8375 24.2039,167.0233 2.7106,25.1657 2.7106,25.1657 15.3633,16.1563 6.9591,-4.9553 28.8866,-26.7117 48.7281,-48.3481 z m -1483.479,-688.619 c 29.8604,-2.7313 29.8604,-2.7313 2.1824,-23.0981 -109.9812,-80.929 -192.2141,-213.3103 -222.1879,-357.6851 -12.2227,-58.8731 -13.2389,-157.7656 -2.2137,-215.41 31.1903,-163.0746 124.0285,-303.0025 258.8085,-390.0827 25.7745,-16.6527 31.0627,-21.9657 28.9657,-29.1017 -1.4112,-4.8012 -13.8979,-33.2818 -27.7485,-63.2903 -13.8506,-30.0083 -35.5043,-82.0594 -48.1192,-115.6686 -58.5197,-155.9101 -98.7572,-218.3576 -172.3179,-267.4319 -109.3076,-72.922 -277.8799,-111.605 -375.37716,-86.1389 -101.80765,26.5919 -244.77618,134.1149 -328.30504,246.9099 -58.2962,78.7215 -88.07199,139.5954 -116.367,237.9016 -37.70251,130.9906 -55.05341,245.0096 -58.23343,382.6724 -4.49639,194.6507 14.5196,324.3129 80.02476,545.6551 1.46213,4.9407 6.61929,7.6387 14.60121,7.6387 22.56894,0 67.53843,17.0913 89.64519,34.0713 68.76821,52.82 82.13534,61.8466 103.32737,69.7754 32.38387,12.1164 80.01406,18.6132 164.68968,22.4637 87.88222,3.9965 566.84392,4.6412 608.62502,0.8192 z M 984.94387,1815.0573 c -48.20229,-11.6729 -102.03525,-46.2638 -132.71841,-85.2797 -42.63886,-54.2177 -51.51166,-98.8494 -27.41183,-137.8843 34.92476,-56.5685 116.89188,-57.6854 150.40861,-2.0494 18.14493,30.1198 25.28086,38.05 40.91576,45.4693 32.3425,15.3474 68.7289,3.0163 87.9674,-29.8117 22.9779,-39.2088 55.1375,-57.4708 94.5399,-53.6846 43.5973,4.1891 77.7516,43.0596 77.7516,88.4881 0,32.6196 -20.5612,70.6778 -58.9255,109.0706 -50.1418,50.1789 -103.6625,72.3324 -173.0416,71.6264 -20.0591,-0.2044 -46.82773,-2.8793 -59.48593,-5.9447 z m 1303.04703,950.9149 c 34.1655,-7.5636 62.6372,-21.8398 90.6241,-45.4408 11.9528,-10.079 33.5171,-24.0215 47.921,-30.9828 41.9552,-20.277 97.0402,-16.5722 154.3955,10.3839 25.9418,12.1922 32.5571,7.4522 35.8509,-25.687 1.7224,-17.3301 7.067,-33.6868 16.368,-50.0922 31.3588,-55.3111 7.3415,-103.9056 -54.8128,-110.904 -36.6428,-4.1258 -62.2818,-21.1453 -77.3223,-51.3274 -17.4076,-34.9329 -13.2108,-69.2978 11.9647,-97.9717 24.8433,-28.2952 41.6799,-32.6884 120.0767,-31.3313 60.3071,1.0438 70.1799,0.2122 82.2724,-6.9311 29.6108,-17.4917 41.1894,-63.655 23.3177,-92.967 -11.7837,-19.3266 -30.6807,-29.9025 -59.4777,-33.287 -31.6417,-3.719 -48.6946,-11.2477 -66.2048,-29.2291 -31.2029,-32.0425 -33.0607,-84.6021 -4.2268,-119.5825 23.1628,-28.1005 39.2321,-32.6145 116.7911,-32.8065 61.8552,-0.1533 69.1132,-1.0035 84.6603,-9.9168 43.4777,-24.9263 44.0945,-82.3396 1.226,-114.1044 -11.7281,-8.6901 -19.4205,-9.2707 -159.3172,-12.0265 -80.8469,-1.5925 -297.2544,-3.1964 -480.9058,-3.5641 -293.0652,-0.5871 -338.0971,0.199 -368.1285,6.4261 -148.7335,30.8399 -260.6557,133.7675 -310.9171,285.9315 -11.4364,34.6228 -12.2712,42.0583 -12.4985,111.3037 -0.2118,64.6161 1.0436,78.714 9.7179,109.1215 37.5437,131.6079 137.2784,237.5401 265.1196,281.5943 32.862,11.3246 91.7901,21.7338 123.742,21.8587 43.6885,0.1709 81.0623,26.543 92.7098,65.4193 5.2871,17.6465 5.2871,17.6465 147.5107,14.9039 95.6416,-1.8444 151.1716,-4.7237 169.5431,-8.7907 z M 412.156,1499.9883 c 0,-2.583 -41.31804,-1.8622 -55.46699,0.9676 -12.90968,2.5817 -12.90968,2.5817 2.72805,41.3123 15.63772,38.7305 15.63772,38.7305 34.18835,-0.9676 10.20281,-21.834 18.55059,-40.4245 18.55059,-41.3123 z m 1206.6103,-309.32 c 32.7841,-15.6073 60.9634,-43.6493 75.9137,-75.544 10.0673,-21.4774 11.655,-30.5132 11.655,-66.3305 0,-36.4448 -1.4599,-44.439 -12.0564,-66.01643 -13.2808,-27.04361 -44.9482,-59.31826 -71.4855,-72.85668 -22.5751,-11.51696 -60.6396,-18.28602 -84.7587,-15.07273 -11.3291,1.50932 -27.8824,8.41555 -39.8236,16.61482 -33.8914,23.27127 -62.3549,24.37749 -98.1269,3.81355 -20.7223,-11.91249 -32.0356,-28.50328 -42.8919,-62.90105 -15.8934,-50.35704 -43.7336,-82.94121 -89.001,-104.16662 -20.9389,-9.81803 -30.2823,-11.47822 -63.8141,-11.33922 -47.9622,0.19884 -73.6385,10.20707 -102.0925,39.79422 -21.8738,22.74503 -40.811,32.063 -65.1627,32.063 -23.0434,0 -43.42983,-7.31928 -63.09416,-22.65265 -9.0595,-7.06416 -27.71923,-18.11542 -41.46616,-24.55842 -21.08403,-9.88183 -30.79863,-11.69477 -62.09559,-11.58831 -30.71403,0.10452 -41.36586,2.10359 -61.87249,11.61233 -110.86768,51.40794 -127.39853,196.85513 -30.63703,269.56029 53.35306,40.0885 129.19238,41.0343 182.67397,2.2779 11.6267,-8.4254 28.99593,-19.1636 38.59873,-23.8624 33.96103,-16.61793 79.62723,-7.2491 103.61363,21.2572 10.0606,11.9558 16.3764,14.6184 47.8329,20.1642 19.9331,3.514 49.6413,10.1375 66.0183,14.7185 29.7766,8.3292 29.7766,8.3292 41.4662,-2.6625 6.4293,-6.0455 18.0101,-13.6775 25.7352,-16.9602 16.1432,-6.8599 52.4068,-7.8693 68.1178,-1.8962 20.4389,7.771 42.6755,32.0096 55.6825,60.6957 16.6303,36.6776 29.9503,53.8422 55.4298,71.4286 47.9591,33.1024 105.2346,38.4043 155.641,14.4076 z"
       style="fill:#000000;stroke-width:0.999999" />
  </g>
</svg>
