<?xml version="1.0" encoding="UTF-8" standalone="no"?>
<svg
   xmlns:dc="http://purl.org/dc/elements/1.1/"
   xmlns:cc="http://creativecommons.org/ns#"
   xmlns:rdf="http://www.w3.org/1999/02/22-rdf-syntax-ns#"
   xmlns:svg="http://www.w3.org/2000/svg"
   xmlns="http://www.w3.org/2000/svg"
   xmlns:sodipodi="http://sodipodi.sourceforge.net/DTD/sodipodi-0.dtd"
   xmlns:inkscape="http://www.inkscape.org/namespaces/inkscape"
   inkscape:version="1.0 (4035a4f, 2020-05-01)"
   sodipodi:docname="tlm-control-box-face-plate.svg"
   id="svg936"
   version="1.1"
   viewBox="0 -67 153 67"
   height="67mm"
   width="153mm">
  <metadata
     id="metadata942">
    <rdf:RDF>
      <cc:Work
         rdf:about="">
        <dc:format>image/svg+xml</dc:format>
        <dc:type
           rdf:resource="http://purl.org/dc/dcmitype/StillImage" />
      </cc:Work>
    </rdf:RDF>
  </metadata>
  <defs
     id="defs940">
    <rect
       id="rect1136"
       height="17.904136"
       width="43.56673"
       y="-53.671366"
       x="90.316417" />
  </defs>
  <sodipodi:namedview
     inkscape:current-layer="layer3"
     inkscape:window-maximized="1"
     inkscape:window-y="23"
     inkscape:window-x="0"
     inkscape:cy="114.69246"
     inkscape:cx="543.36783"
     inkscape:zoom="0.76"
     inkscape:snap-object-midpoints="true"
     inkscape:snap-text-baseline="true"
     inkscape:snap-center="true"
     showgrid="false"
     id="namedview938"
     inkscape:window-height="699"
     inkscape:window-width="1280"
     inkscape:pageshadow="2"
     inkscape:pageopacity="0"
     guidetolerance="10"
     gridtolerance="10"
     objecttolerance="10"
     borderopacity="1"
     bordercolor="#666666"
     pagecolor="#ffffff" />
  <title
     id="title932">OpenSCAD Model</title>
  <g
     sodipodi:insensitive="true"
     style="display:inline"
     inkscape:label="Faceplate"
     id="layer1"
     inkscape:groupmode="layer">
    <path
       style="fill:#a784db;fill-opacity:1;stroke:#000000;stroke-opacity:1"
       id="path934"
       stroke-width="0.5"
       fill="lightgray"
       stroke="black"
       d="M 1.90735e-7,-4.95911e-7 H 152.4 V -64.0982 l -0.007,-0.1162 -0.013,-0.1156 -0.02,-0.1146 -0.027,-0.1133 -0.034,-0.1115 -0.04,-0.1093 -0.046,-0.1069 -0.052,-0.104 -0.058,-0.1008 -0.064,-0.0972 -0.07,-0.0934 -0.074,-0.0892 -0.08,-0.0846 -0.085,-0.0799 -0.089,-0.0748 -0.093,-0.0695 -0.098,-0.064 -0.1,-0.0581 -0.104,-0.0523 -0.107,-0.0461 -0.11,-0.0398 -0.111,-0.0334 -0.113,-0.0268 -0.115,-0.0202 -0.116,-0.0135 -0.116,-0.0068 H 1.94181 l -0.11619,0.0068 -0.11561,0.0135 -0.11462,0.0202 -0.11325,0.0268 -0.1115,0.0334 -0.10936,0.0398 -0.10687,0.0461 -0.10401,0.0523 -0.100797,0.0581 -0.097241,0.064 -0.093357,0.0695 -0.089159,0.0748 -0.084658,0.0799 -0.07987,0.0846 -0.074813,0.0892 -0.069502,0.0934 -0.063956,0.0972 -0.058194,0.1008 -0.052235,0.104 -0.0461,0.1069 -0.039806,0.1093 -0.0333805,0.1115 -0.0268412,0.1133 L 0.0202801,-64.33 0.00676746,-64.2144 1.90735e-7,-64.0982 Z M 8.16,-33.02 l 0.00338,-0.1163 0.01014,-0.1159 0.01687,-0.1151 0.02352,-0.1139 0.03011,-0.1124 0.0366,-0.1104 0.04295,-0.1082 0.04917,-0.1054 0.05521,-0.1024 0.06108,-0.099 0.06672,-0.0953 0.07216,-0.0913 0.07734,-0.0869 0.08227,-0.0822 0.08691,-0.0774 0.09125,-0.0721 0.0953,-0.0668 0.09902,-0.061 0.1024,-0.0553 0.10544,-0.0491 0.10812,-0.043 0.11043,-0.0366 0.11238,-0.0301 0.11393,-0.0235 0.11511,-0.0169 0.11589,-0.0101 0.1163,-0.0034 0.1163,0.0034 0.1159,0.0101 0.1151,0.0169 0.1139,0.0235 0.1124,0.0301 0.1104,0.0366 0.1082,0.043 0.1054,0.0491 0.1024,0.0553 0.099,0.061 0.0953,0.0668 0.0913,0.0721 0.0869,0.0774 0.0822,0.0822 0.0774,0.0869 0.0721,0.0913 0.0668,0.0953 0.061,0.099 0.0553,0.1024 0.0491,0.1054 0.043,0.1082 0.0366,0.1104 0.0301,0.1124 0.0235,0.1139 0.0169,0.1151 0.0101,0.1159 0.0034,0.1163 -0.0034,0.1163 -0.0101,0.1159 -0.0169,0.1151 -0.0235,0.1139 -0.0301,0.1124 -0.0366,0.1104 -0.043,0.1082 -0.0491,0.1054 -0.0553,0.1024 -0.061,0.099 -0.0668,0.0953 -0.0721,0.0913 -0.0774,0.0869 -0.0822,0.0822 -0.0869,0.0774 -0.0913,0.0721 -0.0953,0.0668 -0.099,0.061 -0.1024,0.0553 -0.1054,0.0491 -0.1082,0.043 -0.1104,0.0366 -0.1124,0.0301 -0.1139,0.0235 -0.1151,0.0169 -0.1159,0.0101 L 10.16,-31.02 10.0437,-31.0234 9.92781,-31.0335 9.8127,-31.0504 9.69877,-31.0739 9.58639,-31.104 9.47596,-31.1406 9.36784,-31.1836 9.2624,-31.2327 9.16,-31.288 9.06098,-31.349 8.96568,-31.4158 8.87443,-31.4879 8.78752,-31.5653 8.70525,-31.6475 8.62791,-31.7344 8.55575,-31.8257 8.48903,-31.921 8.42795,-32.02 8.37274,-32.1224 8.32357,-32.2278 8.28062,-32.336 8.24402,-32.4464 8.21391,-32.5588 8.19039,-32.6727 8.17352,-32.7878 8.16338,-32.9037 Z m 66.04,-22.86 0.0034,-0.1163 0.0101,-0.1159 0.0169,-0.1151 0.0235,-0.1139 0.0301,-0.1124 0.0366,-0.1104 0.043,-0.1082 0.0491,-0.1054 0.0553,-0.1024 0.061,-0.099 0.0668,-0.0953 0.0721,-0.0913 0.0774,-0.0869 0.0822,-0.0822 0.0869,-0.0774 0.0913,-0.0721 0.0953,-0.0668 0.099,-0.061 0.1024,-0.0553 0.1054,-0.0491 0.1082,-0.043 0.1104,-0.0366 0.1124,-0.0301 0.1139,-0.0235 0.1151,-0.0169 0.1159,-0.0101 0.1163,-0.0034 0.1163,0.0034 0.1159,0.0101 0.1151,0.0169 0.1139,0.0235 0.1124,0.0301 0.1104,0.0366 0.1082,0.043 0.1054,0.0491 0.1024,0.0553 0.099,0.061 0.0953,0.0668 0.0913,0.0721 0.0869,0.0774 0.0822,0.0822 0.0774,0.0869 0.0721,0.0913 0.0668,0.0953 0.061,0.099 0.0553,0.1024 0.0491,0.1054 0.043,0.1082 0.0366,0.1104 0.0301,0.1124 0.0235,0.1139 0.0169,0.1151 0.0101,0.1159 0.0034,0.1163 -0.0034,0.1163 -0.0101,0.1159 -0.0169,0.1151 -0.0235,0.1139 -0.0301,0.1124 -0.0366,0.1104 -0.043,0.1082 -0.0491,0.1054 -0.0553,0.1024 -0.061,0.099 -0.0668,0.0953 -0.0721,0.0913 -0.0774,0.0869 -0.0822,0.0822 -0.0869,0.0774 -0.0913,0.0721 -0.0953,0.0668 -0.099,0.061 -0.1024,0.0553 -0.1054,0.0491 -0.1082,0.043 -0.1104,0.0366 -0.1124,0.0301 -0.1139,0.0235 -0.1151,0.0169 -0.1159,0.0101 -0.1163,0.0034 -0.1163,-0.0034 -0.1159,-0.0101 -0.1151,-0.0169 -0.1139,-0.0235 -0.1124,-0.0301 -0.1104,-0.0366 -0.1082,-0.043 -0.1054,-0.0491 -0.1024,-0.0553 -0.099,-0.061 -0.0953,-0.0668 -0.0913,-0.0721 -0.0869,-0.0774 -0.0822,-0.0822 -0.0774,-0.0869 -0.0721,-0.0913 -0.0668,-0.0953 -0.061,-0.099 -0.0553,-0.1024 -0.0491,-0.1054 -0.043,-0.1082 -0.0366,-0.1104 -0.0301,-0.1124 -0.0235,-0.1139 -0.0169,-0.1151 -0.0101,-0.1159 z m 66.04,22.86 0.003,-0.1163 0.011,-0.1159 0.016,-0.1151 0.024,-0.1139 0.03,-0.1124 0.037,-0.1104 0.043,-0.1082 0.049,-0.1054 0.055,-0.1024 0.061,-0.099 0.067,-0.0953 0.072,-0.0913 0.077,-0.0869 0.083,-0.0822 0.086,-0.0774 0.092,-0.0721 0.095,-0.0668 0.099,-0.061 0.102,-0.0553 0.106,-0.0491 0.108,-0.043 0.11,-0.0366 0.113,-0.0301 0.114,-0.0235 0.115,-0.0169 0.116,-0.0101 0.116,-0.0034 0.116,0.0034 0.116,0.0101 0.115,0.0169 0.114,0.0235 0.113,0.0301 0.11,0.0366 0.108,0.043 0.106,0.0491 0.102,0.0553 0.099,0.061 0.095,0.0668 0.092,0.0721 0.086,0.0774 0.083,0.0822 0.077,0.0869 0.072,0.0913 0.067,0.0953 0.061,0.099 0.055,0.1024 0.049,0.1054 0.043,0.1082 0.037,0.1104 0.03,0.1124 0.024,0.1139 0.016,0.1151 0.011,0.1159 0.003,0.1163 -0.003,0.1163 -0.011,0.1159 -0.016,0.1151 -0.024,0.1139 -0.03,0.1124 -0.037,0.1104 -0.043,0.1082 -0.049,0.1054 -0.055,0.1024 -0.061,0.099 -0.067,0.0953 -0.072,0.0913 -0.077,0.0869 -0.083,0.0822 -0.086,0.0774 -0.092,0.0721 -0.095,0.0668 -0.099,0.061 -0.102,0.0553 -0.106,0.0491 -0.108,0.043 -0.11,0.0366 -0.113,0.0301 -0.114,0.0235 -0.115,0.0169 -0.116,0.0101 -0.116,0.0034 -0.116,-0.0034 -0.116,-0.0101 -0.115,-0.0169 -0.114,-0.0235 -0.113,-0.0301 -0.11,-0.0366 -0.108,-0.043 -0.106,-0.0491 -0.102,-0.0553 -0.099,-0.061 -0.095,-0.0668 -0.092,-0.0721 -0.086,-0.0774 -0.083,-0.0822 -0.077,-0.0869 -0.072,-0.0913 -0.067,-0.0953 -0.061,-0.099 -0.055,-0.1024 -0.049,-0.1054 -0.043,-0.1082 -0.037,-0.1104 -0.03,-0.1124 -0.024,-0.1139 -0.016,-0.1151 -0.011,-0.1159 z" />
  </g>
  <g
     style="display:inline"
     inkscape:label="Space chicken"
     id="layer2"
     inkscape:groupmode="layer">
    <path
       style="fill:#000000;stroke-width:0.264583"
       d="m 45.240422,-2.0481514 c 3.124646,-0.3546794 6.108047,-1.4294931 8.705361,-3.1362424 1.157777,-0.7607976 1.938425,-1.3954267 3.00662,-2.4442351 0.894403,-0.8781804 0.894403,-0.8781804 1.549625,-0.9441567 6.173667,-0.6216294 9.897637,-2.7552064 10.798405,-6.1867374 0.124891,-0.475784 0.152654,-0.72159 0.156224,-1.383219 0.0048,-0.892258 -0.05958,-1.308664 -0.326412,-2.110608 -0.642144,-1.92993 -2.176692,-3.922016 -4.519506,-5.867028 -0.863424,-0.716817 -1.340513,-0.99207 -1.824347,-1.052535 -0.304521,-0.03806 -0.304521,-0.03806 -0.4112,-0.555126 -0.136069,-0.659535 -0.496994,-1.903971 -0.763626,-2.632905 -0.722779,-1.975986 -1.837135,-3.975779 -2.74211,-4.920911 -0.316017,-0.330043 -0.500177,-0.565632 -0.461055,-0.589811 0.138622,-0.08567 0.303852,-0.527451 0.592875,-1.585172 0.507586,-1.857592 0.733975,-3.250944 0.850027,-5.231655 0.07325,-1.250117 0.01073,-2.836804 -0.160002,-4.060898 -0.08909,-0.638754 -0.08909,-0.638754 0.05741,-0.901401 0.300888,-0.539397 1.63381,-4.035377 1.707218,-4.47768 0.205853,-1.240299 -0.611856,-2.413069 -1.926531,-2.763055 -0.224181,-0.05969 -0.702293,-0.0834 -1.691006,-0.08391 -1.378453,-7.1e-4 -1.378453,-7.1e-4 -2.026432,-0.645419 -0.356391,-0.35459 -0.804368,-0.777106 -0.995507,-0.938927 -0.347527,-0.294216 -0.347527,-0.294216 -0.06769,-0.502609 0.421724,-0.314051 0.897696,-0.92027 1.193123,-1.519615 0.324387,-0.658095 0.437318,-1.082582 0.483934,-1.819049 0.170258,-2.689772 -2.164618,-4.994339 -4.867703,-4.804521 -0.53831,0.03781 -1.248592,0.210508 -1.593534,0.387476 -0.208878,0.107156 -0.208878,0.107156 -0.611176,-0.09353 -1.418225,-0.707463 -3.09488,-0.643559 -4.449501,0.169588 -0.432869,0.259837 -1.079854,0.858445 -1.337397,1.237383 -0.203527,0.29947 -0.203527,0.29947 -0.76974,0.267055 -2.832182,-0.162149 -5.115395,2.231656 -4.823126,5.056734 0.11474,1.108992 0.540186,1.978446 1.366903,2.793359 0.44032,0.434044 0.614554,0.558801 1.138737,0.815388 0.34037,0.166614 0.706026,0.320334 0.812566,0.341601 0.233182,0.04654 0.236144,0.08535 0.0386,0.505999 -0.0846,0.180293 -0.340157,0.810574 -0.56774,1.400624 -0.227592,0.59005 -0.543,1.354435 -0.700916,1.698628 -0.157908,0.344194 -0.318555,0.702306 -0.356984,0.795798 -0.05572,0.135475 -0.0972,0.16313 -0.204444,0.136214 -0.540899,-0.135753 -1.618901,-0.153252 -7.43177,-0.120633 -5.750237,0.03227 -6.271764,0.04348 -6.794513,0.1461 -1.681764,0.330135 -2.819558,1.662832 -2.816475,3.298911 0.0019,1.078745 0.459348,2.025324 1.288379,2.666776 0.311113,0.240725 0.311113,0.240725 0.168144,0.666947 -0.275896,0.822438 -0.160656,1.888729 0.290428,2.687524 0.181657,0.321689 0.600615,0.792433 0.963031,1.082071 0.221298,0.176866 0.221298,0.176866 0.09982,0.562382 -0.192643,0.611323 -0.150957,1.622248 0.09098,2.205735 0.03128,0.0754 -0.09647,0.121194 -0.715244,0.256391 -2.5474,0.556593 -4.468234,1.45537 -5.826742,2.726401 -2.6731,2.50098 -2.644926,6.092919 0.0746,9.519701 0.985642,1.241927 2.18566,2.371688 3.790401,3.568462 0.458923,0.342256 0.918318,0.686225 1.020878,0.764371 0.12132,0.09245 0.200288,0.215754 0.226018,0.352963 0.087,0.463618 0.455915,1.716318 0.720316,2.44569 0.531209,1.465469 1.20322,2.791812 2.08472,4.114621 0.780181,1.1707636 1.466705,2.0076367 2.471617,3.0128926 3.061876,3.062912 6.777826,4.9381278 11.116456,5.6097913 1.033743,0.1600328 3.80868,0.2040398 4.918957,0.078015 z m -4.440264,-1.963228 c -3.932065,-0.5749345 -7.291152,-2.2154855 -10.065404,-4.9158688 -1.447667,-1.4091078 -2.420777,-2.7235348 -3.378357,-4.5632488 -0.386888,-0.743301 -1.104455,-2.457932 -1.051014,-2.511376 0.01416,-0.01414 0.424882,0.194084 0.912737,0.462731 4.804847,2.645849 11.671237,4.998917 17.962706,6.1557057 3.048816,0.5605714 5.378275,0.8170037 8.872987,0.9767423 0.916263,0.04188 0.916263,0.04188 0.238404,0.5859267 -2.763822,2.2182205 -6.010106,3.5357854 -9.588205,3.8915485 -0.816073,0.081124 -3.118417,0.032677 -3.903854,-0.082161 z m 12.367193,-8.3773166 c -9.289908,-0.443074 -20.090705,-3.784961 -26.933318,-8.333467 -0.85789,-0.570265 -0.85789,-0.570265 -0.822247,-1.616182 0.107456,-3.154225 1.046932,-6.135082 2.799798,-8.883446 0.468447,-0.734503 0.648299,-0.921353 1.101937,-1.144811 0.421411,-0.207585 0.49452,-0.196804 0.863702,0.127335 0.563991,0.495193 1.512454,0.881361 2.487397,1.012748 0.358659,0.04833 3.213184,0.07205 9.774561,0.0812 9.79528,0.01366 10.079619,0.007 11.140109,-0.259589 0.625908,-0.157367 1.435599,-0.576751 2.0019,-1.036902 0.356183,-0.289416 0.523543,-0.387656 0.661543,-0.388319 0.415494,-0.0019 1.322008,0.841716 1.911574,1.779157 0.358198,0.56955 1.210525,2.178161 1.211254,2.286019 1.56e-4,0.02366 -1.258329,0.05048 -2.796642,0.05961 -2.731292,0.01621 -2.800884,0.01953 -2.96515,0.141283 -0.324695,0.240666 -0.4495,0.494711 -0.423785,0.862631 0.0273,0.390744 0.187094,0.651097 0.486908,0.793369 0.180009,0.08542 0.567668,0.09675 3.310504,0.09675 3.106619,0 3.106619,0 3.161116,0.143338 0.102176,0.268747 0.415018,1.613456 0.503474,2.164126 0.07001,0.43582 0.07441,0.623505 0.02133,0.908913 -0.06689,0.359681 -0.06689,0.359681 -1.978501,0.360665 -1.872607,9.25e-4 -1.916451,0.0037 -2.1488,0.135316 -0.334305,0.189336 -0.519472,0.528832 -0.48884,0.896259 0.02673,0.320608 0.161934,0.539603 0.457218,0.740572 0.195069,0.132762 0.217878,0.134105 2.283465,0.134105 2.086426,0 2.086426,0 2.048437,0.759909 -0.112705,2.254537 -0.730949,4.602595 -1.769376,6.720008 -0.673564,1.373442 -0.631164,1.319676 -1.081991,1.371996 -1.143712,0.132743 -3.116619,0.168544 -4.817584,0.08742 z m 7.78513,-0.878295 c 0.968989,-2.146572 1.544267,-4.262968 1.756463,-6.461859 0.07287,-0.755065 0.07287,-0.755065 0.337347,-0.536412 0.4178,0.345409 1.240549,1.2988 1.654871,1.917649 1.205021,1.799863 1.117338,3.007458 -0.290529,4.001298 -0.750452,0.529761 -1.464297,0.848862 -2.720341,1.216046 -0.947274,0.276926 -0.926293,0.280812 -0.737811,-0.136722 z M 22.639126,-23.659008 c -0.694827,-0.757663 -1.139061,-1.368614 -1.447056,-1.990094 -0.711097,-1.434906 -0.550663,-2.336887 0.571914,-3.215245 0.507385,-0.397004 1.278365,-0.795472 2.072744,-1.071285 0.575958,-0.19997 1.470694,-0.451743 1.605361,-0.451743 0.0323,0 -0.08311,0.315138 -0.256479,0.700309 -0.633462,1.407388 -1.042656,2.685105 -1.340839,4.186969 -0.154567,0.778533 -0.209627,1.158435 -0.330494,2.28066 -0.03702,0.343632 -0.03702,0.343632 -0.209785,0.22061 -0.09503,-0.06766 -0.39444,-0.364741 -0.665366,-0.660181 z m 20.256534,-9.402918 c -0.40774,-0.03729 -0.40774,-0.03729 -0.0298,-0.315399 1.501755,-1.105064 2.624628,-2.912698 3.033914,-4.8841 0.166895,-0.803896 0.180769,-2.154248 0.03027,-2.941368 -0.425891,-2.226742 -1.693575,-4.137422 -3.53396,-5.326481 -0.351948,-0.227388 -0.42415,-0.299936 -0.395523,-0.397377 0.01925,-0.06556 0.189783,-0.454453 0.3789,-0.864212 0.189127,-0.409755 0.484802,-1.1205 0.657055,-1.579425 0.799071,-2.128913 1.348503,-2.981619 2.352962,-3.651715 1.492565,-0.995731 3.794381,-1.523938 5.125674,-1.176206 1.39016,0.363107 3.34236,1.831306 4.482925,3.371493 0.79602,1.074922 1.202601,1.906141 1.588962,3.248486 0.514819,1.788644 0.75174,3.345544 0.795163,5.225295 0.06139,2.657906 -0.198261,4.42841 -1.092719,7.450781 -0.01996,0.06746 -0.09039,0.104305 -0.199375,0.104305 -0.308174,0 -0.92222,0.233378 -1.224083,0.465235 -0.939012,0.721245 -1.121536,0.844501 -1.410909,0.952766 -0.442193,0.165447 -1.092571,0.254159 -2.248791,0.306736 -1.200007,0.05457 -7.740114,0.06338 -8.310622,0.01118 z m 7.397303,-13.14635 c 0.658183,-0.159391 1.393259,-0.63172 1.812233,-1.164472 0.582222,-0.740329 0.703378,-1.349765 0.374301,-1.882776 -0.476888,-0.772428 -1.596124,-0.78768 -2.053792,-0.02799 -0.247759,0.411278 -0.345201,0.519564 -0.558688,0.620873 -0.441633,0.209564 -0.938476,0.0412 -1.201174,-0.407071 -0.31376,-0.535387 -0.752895,-0.784749 -1.290925,-0.733051 -0.595312,0.0572 -1.061676,0.587968 -1.061676,1.208284 0,0.445412 0.280755,0.965087 0.804615,1.489331 0.684673,0.685181 1.415485,0.987681 2.362837,0.97804 0.273897,-0.0028 0.639423,-0.03932 0.812269,-0.08118 z m -17.792784,12.984502 c -0.466522,-0.103279 -0.855298,-0.298217 -1.237447,-0.620483 -0.163211,-0.137626 -0.457665,-0.328008 -0.654343,-0.423062 -0.572895,-0.276877 -1.325069,-0.226289 -2.108238,0.141789 -0.354226,0.166482 -0.444559,0.101759 -0.489531,-0.350749 -0.02351,-0.236639 -0.0965,-0.459985 -0.223501,-0.683997 -0.428195,-0.755259 -0.100246,-1.418804 0.748452,-1.514365 0.500351,-0.05634 0.850439,-0.288735 1.055818,-0.700863 0.237699,-0.477 0.180389,-0.946244 -0.163378,-1.337779 -0.339222,-0.386364 -0.569128,-0.446351 -1.639615,-0.427821 -0.823478,0.01424 -0.958283,0.003 -1.12341,-0.09464 -0.404325,-0.238844 -0.562427,-0.869192 -0.318388,-1.26944 0.160897,-0.2639 0.418939,-0.40831 0.812148,-0.454526 0.432055,-0.05077 0.664913,-0.153584 0.90401,-0.399116 0.426066,-0.437532 0.451435,-1.15522 0.05766,-1.632869 -0.316278,-0.383705 -0.535697,-0.445342 -1.594754,-0.447963 -0.844607,-0.002 -0.943724,-0.01371 -1.156017,-0.135413 -0.593673,-0.340361 -0.602096,-1.124325 -0.01675,-1.558065 0.160147,-0.118662 0.265187,-0.12659 2.175442,-0.16422 1.103946,-0.02174 4.058939,-0.04365 6.566652,-0.04866 4.001722,-0.0081 4.616627,0.0027 5.026691,0.08775 2.030927,0.421112 3.559199,1.826561 4.245501,3.904323 0.156159,0.472765 0.167552,0.574296 0.170662,1.519823 0.0028,0.882317 -0.01425,1.07482 -0.132696,1.490026 -0.512651,1.797073 -1.8745,3.24355 -3.620146,3.8451 -0.448724,0.154635 -1.253367,0.296768 -1.68966,0.298475 -0.596552,0.0023 -1.10688,0.362437 -1.265926,0.893283 -0.07219,0.24096 -0.07219,0.24096 -2.014221,0.203509 -1.305965,-0.02518 -2.064219,-0.0645 -2.31507,-0.120035 z m 25.614054,-17.28669 c 0,-0.03526 0.564188,-0.02543 0.757387,0.01322 0.176279,0.03525 0.176279,0.03525 -0.03724,0.564109 -0.213529,0.528854 -0.213529,0.528854 -0.466833,-0.01322 -0.139318,-0.298138 -0.253304,-0.551985 -0.253304,-0.564109 z M 41.638277,-54.73415 c -0.447668,-0.213114 -0.832436,-0.596021 -1.036584,-1.031534 -0.137472,-0.293269 -0.159148,-0.416651 -0.159148,-0.905726 0,-0.497644 0.01999,-0.606804 0.164627,-0.901437 0.181352,-0.369274 0.613758,-0.809977 0.976119,-0.994841 0.308262,-0.157261 0.828022,-0.249689 1.15735,-0.205814 0.154705,0.02061 0.380742,0.114912 0.543786,0.226871 0.462783,0.317764 0.851448,0.332868 1.339905,0.05207 0.282958,-0.162662 0.437432,-0.389205 0.585677,-0.858898 0.217013,-0.687612 0.597172,-1.132541 1.21528,-1.422369 0.285919,-0.134063 0.413497,-0.156732 0.871365,-0.154834 0.654917,0.0027 1.005514,0.139376 1.394049,0.54338 0.298683,0.310578 0.557262,0.437812 0.889784,0.437812 0.314649,0 0.593016,-0.09994 0.861526,-0.309316 0.123711,-0.09646 0.378509,-0.247362 0.566216,-0.335339 0.287899,-0.134933 0.420544,-0.15969 0.8479,-0.158235 0.419392,0.0014 0.56484,0.02872 0.844853,0.158563 1.51387,0.701963 1.739595,2.688007 0.418341,3.680776 -0.728523,0.547399 -1.764092,0.560314 -2.494366,0.03111 -0.158759,-0.115046 -0.39593,-0.261674 -0.527062,-0.325836 -0.463727,-0.226912 -1.087286,-0.09898 -1.414809,0.290262 -0.137379,0.163253 -0.223612,0.19961 -0.653149,0.275337 -0.272185,0.04798 -0.677843,0.138426 -0.901464,0.200978 -0.406593,0.113733 -0.406593,0.113733 -0.566213,-0.03636 -0.08774,-0.08255 -0.245918,-0.186763 -0.351402,-0.231587 -0.220438,-0.09367 -0.715605,-0.107454 -0.930138,-0.0259 -0.279089,0.106112 -0.582724,0.437084 -0.760327,0.828785 -0.227083,0.500823 -0.408971,0.735201 -0.756875,0.97534 -0.65488,0.452004 -1.436958,0.524401 -2.125241,0.196732 z"
       id="path1077" />
  </g>
  <g
     inkscape:label="WiFiFly"
     id="layer3"
     inkscape:groupmode="layer">
    <g
       transform="matrix(0.31883706,0,0,0.31883706,62.830604,-10.627488)"
       id="g1129">
      <circle
         style="opacity:1;fill:#000000;fill-opacity:1;stroke:none;stroke-width:1.5875;stroke-linecap:round;stroke-linejoin:round;stroke-miterlimit:4;stroke-dasharray:none;stroke-opacity:1"
         id="path1116"
         cx="116.57803"
         cy="-19.986732"
         r="21.954788" />
      <ellipse
         ry="6.8565803"
         rx="6.2112551"
         cy="-26.586508"
         cx="116.72319"
         id="path1034-4"
         style="opacity:1;fill:#000000;fill-opacity:1;stroke:#ffffff;stroke-width:1.5875;stroke-linecap:round;stroke-linejoin:round;stroke-miterlimit:4;stroke-dasharray:none;stroke-opacity:1" />
      <ellipse
         style="opacity:1;fill:#000000;fill-opacity:1;stroke:#ffffff;stroke-width:1.5875;stroke-linecap:round;stroke-linejoin:round;stroke-miterlimit:4;stroke-dasharray:none;stroke-opacity:1"
         id="path1034"
         cx="116.72319"
         cy="-15.938643"
         rx="6.8565798"
         ry="6.3725867" />
      <path
         style="fill:#000000;fill-opacity:1;stroke:#ffffff;stroke-width:2.11667;stroke-linecap:butt;stroke-linejoin:miter;stroke-miterlimit:4;stroke-dasharray:none;stroke-opacity:1"
         d="m 116.64253,-28.199822 c 9.99169,-0.04023 17.17711,9.988444 12.82584,14.277822 -7.18789,6.34671 -12.82584,-8.873223 -12.82584,-8.873223 0,0 -5.3286,14.937829 -12.50317,8.873223 -4.351272,-4.18193 2.75347,-14.479586 12.50317,-14.277822 z"
         id="path1051"
         sodipodi:nodetypes="ccccc" />
      <path
         style="opacity:1;fill:none;fill-opacity:1;stroke:#ffffff;stroke-width:1.5875;stroke-linecap:round;stroke-linejoin:round;stroke-miterlimit:4;stroke-dasharray:none;stroke-opacity:1"
         id="path1053"
         sodipodi:type="arc"
         sodipodi:cx="112.51191"
         sodipodi:cy="-33.992096"
         sodipodi:rx="2.6455829"
         sodipodi:ry="2.8393164"
         sodipodi:start="4.9161329"
         sodipodi:end="6.2143176"
         sodipodi:arc-type="arc"
         d="m 113.04721,-36.772684 a 2.6455829,2.8393164 0 0 1 2.10401,2.585205"
         sodipodi:open="true" />
      <path
         sodipodi:open="true"
         d="m -120.3542,-36.758207 a 2.6455829,2.8393164 0 0 1 2.10401,2.585205"
         sodipodi:arc-type="arc"
         sodipodi:end="6.2143176"
         sodipodi:start="4.9161329"
         sodipodi:ry="2.8393164"
         sodipodi:rx="2.6455829"
         sodipodi:cy="-33.977619"
         sodipodi:cx="-120.8895"
         sodipodi:type="arc"
         id="path1053-1"
         style="opacity:1;fill:none;fill-opacity:1;stroke:#ffffff;stroke-width:1.5875;stroke-linecap:round;stroke-linejoin:round;stroke-miterlimit:4;stroke-dasharray:none;stroke-opacity:1"
         transform="scale(-1,1)" />
      <path
         style="fill:none;stroke:#ffffff;stroke-width:1.5875;stroke-linecap:round;stroke-linejoin:round;stroke-miterlimit:4;stroke-dasharray:none;stroke-opacity:1"
         d="m 109.59296,-8.5604484 -2.63174,1.5508446"
         id="path1070" />
      <path
         id="path1070-4"
         d="m 123.82986,-8.6264114 2.63706,1.5417828"
         style="fill:none;stroke:#ffffff;stroke-width:1.5875;stroke-linecap:round;stroke-linejoin:round;stroke-miterlimit:4;stroke-dasharray:none;stroke-opacity:1" />
      <path
         style="fill:none;stroke:#ffffff;stroke-width:1.5875;stroke-linecap:round;stroke-linejoin:round;stroke-miterlimit:4;stroke-dasharray:none;stroke-opacity:1"
         d="m 120.7359,-6.3406326 1.58772,2.6096564"
         id="path1070-4-9" />
      <path
         style="fill:none;stroke:#ffffff;stroke-width:1.5875;stroke-linecap:round;stroke-linejoin:round;stroke-miterlimit:4;stroke-dasharray:none;stroke-opacity:1"
         d="m 116.74246,-6.3281641 -0.0125,3.054672"
         id="path1070-4-6" />
      <path
         style="fill:none;stroke:#ffffff;stroke-width:1.5875;stroke-linecap:round;stroke-linejoin:round;stroke-miterlimit:4;stroke-dasharray:none;stroke-opacity:1"
         d="m 112.64457,-6.3669733 -1.4977,2.6623378"
         id="path1070-4-2" />
    </g>
  </g>
  <g
     inkscape:label="text"
     id="layer4"
     inkscape:groupmode="layer" />
</svg>
