<?xml version="1.0" encoding="UTF-8" standalone="no"?>
<svg
   xmlns:dc="http://purl.org/dc/elements/1.1/"
   xmlns:cc="http://creativecommons.org/ns#"
   xmlns:rdf="http://www.w3.org/1999/02/22-rdf-syntax-ns#"
   xmlns:svg="http://www.w3.org/2000/svg"
   xmlns="http://www.w3.org/2000/svg"
   xmlns:sodipodi="http://sodipodi.sourceforge.net/DTD/sodipodi-0.dtd"
   xmlns:inkscape="http://www.inkscape.org/namespaces/inkscape"
   sodipodi:docname="celeste.svg"
   viewBox="0 0 3400 5400"
   version="1.1"
   id="svg8"
   inkscape:version="1.0 (4035a4f, 2020-05-01)">
  <title
     id="title8">Hen sitting on ringed planet</title>
  <defs
     id="defs2">
    <inkscape:path-effect
       effect="offset"
       id="path-effect930"
       is_visible="true"
       lpeversion="1"
       linejoin_type="round"
       unit="mm"
       offset="64"
       miter_limit="4"
       attempt_force_join="true"
       update_on_knot_move="true" />
  </defs>
  <sodipodi:namedview
     gridtolerance="1"
     guidetolerance="1"
     objecttolerance="1"
     inkscape:window-maximized="0"
     inkscape:window-y="23"
     inkscape:window-x="0"
     showguides="true"
     scale-x="1"
     units="mm"
     id="base"
     pagecolor="#ffffff"
     bordercolor="#666666"
     borderopacity="1.0"
     inkscape:pageopacity="0.0"
     inkscape:pageshadow="2"
     inkscape:zoom="0.08117387"
     inkscape:cx="-2564.2838"
     inkscape:cy="2856.585"
     inkscape:document-units="mm"
     inkscape:current-layer="layer4"
     inkscape:document-rotation="0"
     showgrid="true"
     inkscape:pagecheckerboard="false"
     inkscape:window-width="1280"
     inkscape:window-height="674">
    <inkscape:grid
       type="xygrid"
       id="grid10"
       dotted="false"
       units="mm"
       spacingx="39.370079"
       spacingy="39.370079"
       color="#00cc00"
       opacity="0.2"
       empcolor="#006600"
       empopacity="0.2"
       empspacing="5"
       snapvisiblegridlinesonly="false"
       visible="true" />
  </sodipodi:namedview>
  <metadata
     id="metadata5">
    <rdf:RDF>
      <cc:Work
         rdf:about="">
        <dc:format>image/svg+xml</dc:format>
        <dc:type
           rdf:resource="http://purl.org/dc/dcmitype/StillImage" />
        <dc:title>Hen sitting on ringed planet</dc:title>
      </cc:Work>
    </rdf:RDF>
  </metadata>
  <g
     inkscape:label="base"
     id="layer4"
     inkscape:groupmode="layer"
     style="display:inline">
    <path
       id="path1077"
       style="display:inline;fill:#000000;fill-opacity:1;stroke:none;stroke-width:0;stroke-linecap:round;stroke-linejoin:round;stroke-miterlimit:4;stroke-dasharray:none;stroke-opacity:1"
       sodipodi:type="inkscape:offset"
       inkscape:radius="0"
       inkscape:original="M 1202.6602 554.00781 C 1161.3413 554.34651 1120.1016 562.27388 1081.6016 577.27734 C 1070.0175 581.75345 1058.7361 586.97543 1047.6602 592.58398 C 1043.0459 594.888 1038.4196 597.17593 1033.668 599.18555 C 1033.1481 599.39744 1032.3116 599.7461 1031.6641 599.99414 C 1027.949 601.44074 1023.7653 602.58074 1019.834 601.30078 C 1014.7125 599.7966 1010.2479 596.75149 1005.3613 594.68164 C 991.85705 588.5516 977.61654 584.24212 963.30859 580.43945 C 945.31441 575.74222 927.01687 572.19079 908.56641 569.85547 C 875.29267 565.75319 841.3882 566.9666 808.45898 573.22461 C 770.51646 580.41377 733.91892 594.42195 700.69531 614.08008 C 663.84136 635.87042 631.10298 664.58041 604.66406 698.25391 C 580.49298 729.01194 561.55619 763.92437 549.36133 801.11133 C 539.0945 832.28349 533.57713 865.02386 533.20312 897.8457 C 533.03526 909.03078 533.5489 920.21531 534.45703 931.36133 C 536.12556 952.89897 539.09076 974.42828 545.01953 995.24023 C 551.15051 1016.9538 560.2433 1037.7021 570.2832 1057.8633 C 581.47701 1080.2085 595.14474 1101.2817 610.58789 1120.918 C 622.18201 1135.5554 634.82179 1149.4446 649.06055 1161.5605 C 654.14494 1165.9269 659.62742 1169.7906 664.90234 1173.916 C 666.07889 1174.8434 667.22351 1175.8133 668.29492 1176.8613 C 668.49268 1177.0673 669.03619 1177.6104 669.34961 1177.959 C 670.58587 1179.2363 671.74072 1180.9497 671.33203 1182.8164 C 670.21206 1186.0696 667.53425 1188.4252 665.13672 1190.7617 C 657.85946 1197.5714 649.96617 1203.6832 642.66797 1210.4707 C 625.20987 1226.2515 608.2102 1242.5321 591.35352 1258.9512 C 581.39995 1268.6742 571.63635 1278.5911 561.56055 1288.1895 C 559.08437 1290.5203 556.55394 1292.8365 554.02148 1295.002 C 547.35954 1300.6965 540.18157 1305.9652 532.04688 1309.3574 C 523.43181 1313.0968 514.08318 1314.6971 504.80078 1315.707 C 492.41648 1316.9463 480.01478 1317.1476 467.58789 1317.3301 C 443.34674 1317.5647 419.10386 1317.3593 394.86328 1317.6895 C 374.91758 1317.968 354.95681 1318.3248 335.05859 1319.8184 C 325.31495 1320.6182 315.50775 1321.555 306.06641 1324.2207 C 285.68104 1329.8129 266.10057 1338.4151 248.30078 1349.8301 C 226.02433 1364.1078 206.57573 1382.8938 191.99219 1405.002 C 178.41647 1425.5412 169.10513 1448.937 165.24414 1473.2715 C 162.32176 1491.5783 162.40582 1510.3677 165.53906 1528.6406 C 166.75709 1535.0008 168.72994 1541.1845 170.60547 1547.373 C 176.80476 1567.0098 183.64251 1586.4367 190.60352 1605.8145 C 204.20366 1643.6169 218.35856 1681.2197 232.87891 1718.6777 C 245.37312 1750.8387 258.04086 1782.9379 271.46289 1814.7246 C 277.04555 1827.8539 282.6263 1841.0011 289.04297 1853.75 C 292.08002 1859.6205 295.78351 1865.2173 297.79883 1871.5586 C 299.80198 1878.3313 299.11085 1885.6227 298.45898 1892.457 C 297.03365 1906.0321 294.8611 1919.4793 293.1582 1933.0137 C 288.18643 1971.7896 285.00623 2010.7807 283.01367 2049.8184 C 280.7086 2095.8895 280.04128 2142.057 281.53711 2188.166 C 282.04858 2204.2484 282.93024 2220.3165 283.99219 2236.3711 C 287.66742 2293.45 293.20763 2350.4483 302.12891 2406.9609 C 309.37756 2453.0778 318.8403 2498.8331 329.98438 2544.1621 C 337.42167 2574.4283 345.5106 2604.5352 354.11328 2634.4902 C 359.48842 2653.0455 365.05523 2671.5679 371.8418 2689.6641 C 374.8135 2697.3565 377.95814 2705.0402 382.25781 2712.1016 C 384.00459 2714.8529 385.97975 2717.5161 388.56055 2719.5449 C 389.04814 2720.0862 388.39201 2720.712 388.22656 2721.2754 C 386.68905 2724.269 384.58417 2726.9234 382.57422 2729.6074 C 375.16938 2739.1459 366.97527 2748.0343 358.71289 2756.8281 C 352.35036 2763.5389 346.0418 2770.3091 340.08789 2777.3887 C 323.78374 2796.5889 309.00561 2817.0341 295.02344 2837.9707 C 273.58585 2870.1536 254.15435 2903.6401 236.0332 2937.7891 C 217.44664 2972.8524 200.34256 3008.696 184.59961 3045.123 C 172.67354 3072.7576 161.53553 3100.7395 151.4082 3129.084 C 142.07791 3155.4066 133.75973 3182.0742 125.80273 3208.8398 C 117.65088 3236.4347 109.95315 3264.1731 103.19336 3292.1445 C 100.70393 3302.3793 98.511749 3312.6809 96.375 3322.9941 C 95.11088 3328.8643 93.936304 3334.7668 92.052734 3340.5039 C 90.932597 3343.7916 89.561485 3347.236 86.708984 3349.4121 C 84.438037 3351.0872 81.609775 3351.7469 78.888672 3352.293 C 72.586495 3353.3488 66.196887 3353.8677 59.943359 3355.2207 C 42.188235 3358.9057 25.560914 3366.6673 10.039062 3375.875 C -9.3128438 3387.3856 -27.334952 3400.9614 -44.966797 3414.9219 C -65.22852 3431.0858 -85.000333 3447.8582 -104.46875 3464.9668 C -153.04187 3507.7829 -199.24346 3553.393 -241.44141 3602.5371 C -276.59699 3643.5214 -308.96904 3687.0063 -336.68359 3733.3848 C -361.03064 3774.1742 -381.76161 3817.2559 -396.71875 3862.3887 C -404.88011 3886.9726 -412.24488 3911.9452 -416.10352 3937.6094 C -420.1616 3964.237 -420.6253 3991.2428 -420.48828 4018.127 C -420.32994 4036.2115 -420.1282 4054.3363 -418.1582 4072.332 C -416.77165 4085.0982 -414.26187 4097.7151 -411.17578 4110.1719 C -406.20864 4130.3821 -399.99353 4150.2956 -392.29688 4169.6367 C -377.94579 4205.9063 -358.62729 4240.1747 -335.29102 4271.418 C -303.59197 4313.9233 -264.66859 4350.7496 -221.89844 4381.9609 C -178.14002 4413.9308 -130.43623 4440.2376 -80.978516 4462.2656 C -33.509848 4483.3974 15.638069 4500.6085 65.552734 4514.9727 C 135.93989 4535.1723 207.86014 4549.7272 280.26562 4560.4785 C 316.34425 4565.8398 352.56913 4570.1842 388.86133 4573.8145 C 396.03728 4574.5469 403.11485 4575.2978 410.19336 4576.6406 C 411.31301 4576.8584 412.67367 4577.1418 413.87695 4577.4336 C 420.65822 4579.0376 427.19705 4581.6885 433.10156 4585.4004 C 438.73867 4588.8527 444.02409 4593.0436 448.98047 4597.291 C 459.91138 4606.7266 470.34239 4616.9221 480.7207 4627.043 C 498.76866 4644.7013 516.75273 4662.4313 535.25977 4679.6113 C 566.87755 4709.0973 599.72942 4737.2964 634.20117 4763.4043 C 662.7727 4785.083 692.306 4805.4725 722.36523 4825.0273 C 757.38242 4847.8021 793.40418 4869.0275 830.27344 4888.6621 C 920.02594 4936.4722 1014.8204 4974.7804 1112.5488 5002.8848 C 1190.7472 5025.393 1270.8136 5041.3912 1351.6484 5050.7285 C 1374.5251 5053.4059 1397.5498 5054.4966 1420.5566 5055.3203 C 1465.5387 5056.8084 1510.5623 5056.7152 1555.5547 5055.7461 C 1590.6918 5054.9463 1625.8239 5053.573 1660.8828 5051.0566 C 1677.4028 5049.8289 1693.9197 5048.3894 1710.332 5046.1113 C 1725.7601 5043.8872 1741.1201 5041.2188 1756.4648 5038.4863 C 1842.4473 5022.9379 1927.1934 5000.3122 2009.209 4970.1328 C 2083.1607 4942.9456 2154.8535 4909.6038 2223.2266 4870.4414 C 2275.6652 4840.4158 2326.1411 4806.9747 2374.3223 4770.5098 C 2425.7226 4731.6234 2474.4934 4689.2879 2520.4746 4644.1309 C 2539.9603 4624.9637 2559.0363 4605.3764 2577.5898 4585.3047 C 2601.7577 4559.1616 2624.9088 4532.0707 2646.7715 4503.9688 C 2670.6071 4473.4239 2692.9341 4441.7266 2714.3535 4409.4492 C 2738.433 4373.0975 2760.9943 4335.7324 2781.6895 4297.3496 C 2801.5848 4260.4898 2819.7743 4222.7096 2836.1797 4184.1699 C 2848.0148 4156.3584 2858.9828 4128.1756 2868.9824 4099.6523 C 2877.9617 4073.8686 2886.1181 4047.8069 2893.9688 4021.6602 C 2900.8389 3998.5539 2907.4472 3975.3616 2913.2383 3951.959 C 2914.9848 3944.8737 2916.5524 3937.7462 2917.9883 3930.5918 C 2919.9691 3921.3848 2925.6995 3913.2524 2933.0957 3907.543 C 2953.3706 3892.201 2973.7678 3877.0226 2994.1289 3861.7949 C 3011.5628 3848.7866 3028.9962 3835.7741 3046.127 3822.3672 C 3111.8276 3771.1132 3174.5161 3715.7228 3230.8965 3654.2773 C 3255.4637 3627.5068 3278.8866 3599.6711 3300.7969 3570.6816 C 3336.5632 3523.165 3367.8038 3472.0391 3391.6094 3417.4727 C 3411.188 3372.5443 3425.6279 3325.2265 3432.666 3276.6719 C 3438.617 3235.8804 3439.201 3194.2472 3433.627 3153.3789 C 3428.7338 3117.2372 3418.9549 3081.7688 3404.709 3048.1973 C 3391.1995 3016.325 3373.6805 2986.198 3353.0684 2958.4023 C 3321.1608 2915.309 3281.9683 2877.932 3239.0371 2845.9492 C 3187.0969 2807.2903 3129.5252 2776.6519 3069.707 2752.1055 C 3013.7219 2729.1368 2955.7086 2711.3579 2896.9219 2697.1387 C 2877.8961 2692.4597 2858.707 2688.5416 2839.6484 2684.0215 C 2836.1424 2683.1808 2832.5587 2682.291 2829.168 2681.3457 C 2824.5816 2680.0306 2819.9155 2678.8168 2815.6211 2676.6934 C 2814.6439 2676.0904 2813.4333 2675.6203 2812.8555 2674.5703 C 2812.5078 2673.6583 2813.2385 2672.7811 2813.4766 2671.9258 C 2818.7131 2658.7364 2822.0667 2644.8086 2824.4043 2630.8105 C 2828.1608 2607.9719 2829.3291 2584.7176 2828.0488 2561.6113 C 2827.0047 2543.332 2824.3734 2525.028 2818.6582 2507.5859 C 2816.799 2501.5225 2814.6971 2495.4807 2813.8184 2489.1758 C 2813.4828 2486.3282 2813.9212 2483.2386 2815.8008 2480.9707 C 2818.3667 2477.597 2821.8844 2475.1479 2825.1055 2472.4531 C 2838.6501 2461.6304 2851.1602 2449.5534 2862.8809 2436.791 C 2872.662 2426.0631 2881.9798 2414.8744 2890.2168 2402.9082 C 2896.832 2393.3165 2902.2308 2382.9422 2907 2372.3281 C 2917.3137 2349.2202 2924.021 2324.5515 2927.3359 2299.4805 C 2930.8203 2272.9778 2930.5064 2245.8931 2925.5254 2219.5996 C 2923.5382 2209.0755 2920.6486 2198.7373 2917.1387 2188.623 C 2915.8045 2184.657 2914.5294 2180.8219 2913.4629 2176.7461 C 2912.4312 2172.6972 2911.3619 2168.3708 2912.5996 2164.2402 C 2913.5865 2161.1242 2915.9131 2158.6707 2918.2324 2156.4648 C 2923.6906 2151.5478 2929.6849 2147.2778 2935.3672 2142.6309 C 2957.786 2124.4107 2977.0526 2102.2622 2991.6816 2077.334 C 3006.6545 2051.8794 3016.7436 2023.6209 3021.6738 1994.5195 C 3025.3793 1972.6321 3026.3722 1950.2793 3024.5742 1928.1523 C 3022.0817 1897.8049 3013.9282 1867.8978 3000.3672 1840.6191 C 2985.8543 1811.3215 2965.1734 1785.1414 2940.2148 1764.041 C 2914.0328 1741.8401 2883.2729 1725.2117 2850.6191 1714.7305 C 2833.8021 1709.3344 2816.4951 1705.4127 2798.9629 1703.2441 C 2783.1878 1701.3412 2767.2983 1700.6646 2751.4316 1700.0215 C 2722.3896 1698.9435 2693.3291 1698.515 2664.2715 1698.082 C 2603.9919 1697.2755 2543.7072 1696.8696 2483.4238 1696.4609 C 2385.4067 1695.8263 2287.3893 1695.2539 2189.3711 1694.8242 C 2115.6131 1694.5079 2041.854 1694.2697 1968.0957 1694.6172 C 1934.598 1694.7998 1901.0981 1695.1242 1867.6113 1696.0352 C 1847.9628 1696.6104 1828.3048 1697.3536 1808.7207 1699.1055 C 1797.1765 1700.1676 1785.6392 1701.6713 1774.373 1704.4629 C 1772.0959 1705.0157 1769.4565 1705.4376 1767.3965 1704.0195 C 1764.6317 1701.7413 1763.3906 1698.2415 1762 1695.0566 C 1755.4137 1679.7551 1748.4971 1664.5999 1741.6113 1649.4316 C 1736.074 1637.3354 1730.5837 1625.2896 1725.418 1613.0371 C 1713.5462 1585.2567 1702.1873 1557.305 1691.0977 1529.2031 C 1682.4373 1507.0437 1673.912 1484.8306 1665.0117 1462.7656 C 1658.5739 1446.6869 1652.0623 1430.635 1645.1582 1414.75 C 1641.523 1406.5169 1637.3677 1398.4929 1634.3867 1389.9863 C 1633.5267 1387.244 1632.48 1384.3456 1633.043 1381.4375 C 1633.5624 1379.4293 1635.5943 1378.4702 1637.3691 1377.7988 C 1641.4018 1376.3881 1645.7158 1375.9926 1649.7285 1374.5039 C 1661.0569 1370.5991 1672.0497 1365.7925 1682.9785 1360.8984 C 1697.5449 1354.3219 1711.9478 1347.3683 1726.0176 1339.7832 C 1737.3556 1333.6131 1748.2659 1326.6046 1758.2559 1318.4121 C 1769.9591 1308.9136 1780.7154 1298.3269 1791.4199 1287.7363 C 1813.5126 1265.5746 1833.3344 1240.9796 1848.9395 1213.8027 C 1863.1865 1189.1087 1873.7969 1162.3482 1880.582 1134.666 C 1885.9508 1112.8423 1889.1497 1090.5033 1890.4648 1068.0742 C 1892.6001 1029.5014 1888.2103 990.54999 1877.2715 953.48828 C 1863.9299 908.12091 1840.8378 865.66772 1810.0762 829.75781 C 1781.577 796.41762 1746.5379 768.6745 1707.4824 748.69922 C 1670.8649 729.91033 1630.7437 718.00338 1589.8125 713.71875 C 1570.288 711.64582 1550.59 711.30566 1530.998 712.54883 C 1523.2106 712.97469 1515.4148 713.4945 1507.5859 713.38477 C 1505.9675 713.33777 1504.3273 713.26712 1502.8047 713.125 C 1498.5891 712.755 1494.2716 711.58365 1491.0098 708.76367 C 1487.6623 705.92736 1485.1646 702.26273 1482.6328 698.71875 C 1479.5252 694.17546 1476.4521 689.60194 1473.0078 685.30273 C 1464.3115 674.22298 1454.5696 664.01309 1444.5508 654.13086 C 1429.959 639.85299 1414.5033 626.43578 1398.1094 614.26172 C 1389.7842 608.1259 1381.0875 602.49067 1372.0254 597.50391 C 1335.4092 576.93462 1294.9462 563.25288 1253.3613 557.375 C 1236.5741 554.99945 1219.614 553.88011 1202.6602 554.00781 z M 1206.8574 738.86133 C 1212.6443 738.86433 1218.467 738.91655 1224.1934 739.14453 C 1232.8635 739.50772 1241.5887 740.40969 1249.9043 743.00781 C 1256.9422 745.1428 1263.6357 748.24234 1270.252 751.41992 C 1273.9137 753.20869 1277.5239 755.10618 1281.0664 757.12109 C 1289.7091 762.04446 1298.0993 767.77413 1305.7188 774.27539 C 1319.4758 785.8927 1330.9185 800.15937 1339.6152 815.9082 C 1346.5819 828.42616 1351.8496 841.81797 1356.1016 855.47852 C 1360.4378 868.81128 1365.5951 882.06211 1373.5098 893.7207 C 1379.5439 902.52124 1387.4655 910.01455 1396.6113 915.51562 C 1403.2621 919.58689 1410.2732 923.0828 1417.5312 925.93359 C 1427.8897 929.94325 1439.007 932.30094 1450.1504 931.79492 C 1462.2213 931.31681 1473.9651 927.5305 1484.6309 921.98828 C 1490.3183 919.09097 1495.6753 915.60731 1500.9609 912.04297 C 1503.7222 910.20916 1506.6194 908.5466 1509.4961 907.03711 C 1511.6869 905.88457 1513.9412 904.77913 1516.125 903.79492 C 1522.6131 900.91144 1529.3419 898.43117 1536.3457 897.15625 C 1542.3708 896.12827 1548.5119 895.9761 1554.6113 896.0957 C 1558.6241 896.1946 1562.4955 896.46631 1566.5039 896.875 C 1569.5679 897.1838 1572.7645 897.58515 1575.8809 898.05469 C 1577.5307 898.31311 1579.448 898.62031 1581.082 898.91602 C 1591.8341 900.84575 1602.4418 903.66835 1612.6445 907.58594 C 1613.8747 908.06411 1615.3128 908.66041 1616.6074 909.22461 C 1623.6619 912.26949 1630.2699 916.25185 1636.5254 920.69531 C 1647.3154 928.35421 1657.1396 937.31819 1666.1621 946.98047 C 1674.5578 956.05548 1682.2654 965.82633 1688.582 976.4707 C 1691.9586 982.23986 1694.8342 988.2918 1697.4395 994.44336 C 1698.0539 995.93036 1698.6314 997.4307 1699.1445 998.86719 C 1701.2012 1004.4758 1702.4926 1010.342 1703.1465 1016.2754 C 1703.6048 1020.2037 1703.854 1023.9998 1704.0156 1027.9727 C 1704.3333 1036.1449 1704.3243 1044.4886 1704.3223 1052.7305 C 1704.3123 1056.7992 1704.2581 1060.8681 1704.1562 1064.9355 C 1704.0973 1066.5862 1704.0453 1068.4543 1703.9668 1070.1895 C 1703.6697 1077.64 1702.9498 1085.1084 1701.1758 1092.3652 C 1700.9895 1093.1261 1700.7156 1094.1761 1700.4688 1095.0391 C 1698.2168 1102.836 1694.8835 1110.1272 1691.334 1117.4277 C 1690.4901 1119.103 1689.6328 1120.7401 1688.7578 1122.3184 C 1686.3336 1126.7252 1683.5983 1131.1122 1680.7871 1135.1816 C 1669.6468 1151.2437 1655.5198 1165.2008 1639.4746 1176.3477 C 1637.1887 1177.9272 1634.9013 1179.4155 1632.5879 1180.8477 C 1631.5338 1181.4944 1630.26 1182.2606 1629.1094 1182.9316 C 1620.584 1187.8867 1611.4053 1192.138 1601.9941 1195.377 C 1599.1742 1196.3609 1596.1063 1197.3077 1593.1406 1198.1328 C 1584.9809 1200.3956 1576.6288 1201.9692 1568.2012 1202.7969 C 1566.6241 1202.9457 1564.8327 1203.1021 1563.166 1203.2012 C 1549.3064 1204.0992 1535.1066 1202.9901 1521.4668 1199.9355 C 1512.3511 1197.9101 1503.4309 1195.0285 1494.8223 1191.4141 C 1493.4286 1190.8248 1491.8407 1190.1367 1490.3867 1189.4688 C 1484.8787 1186.9606 1479.582 1184.1801 1474.3535 1181.0801 C 1466.096 1176.1436 1458.034 1170.4943 1450.6484 1164.2109 C 1441.6061 1156.5679 1433.6715 1147.3631 1427.2051 1137.3672 C 1420.5391 1127.1134 1415.1026 1116.15 1410 1105.084 C 1403.427 1090.4062 1394.6129 1076.6943 1383.7051 1064.8594 C 1377.1294 1057.7807 1369.7594 1051.338 1361.3965 1046.4492 C 1356.2658 1043.4512 1350.6851 1041.1634 1344.8223 1040.0996 C 1336.6292 1038.5345 1328.254 1038.1465 1319.9277 1038.2363 C 1310.6455 1038.4032 1301.3412 1039.2691 1292.2754 1041.3184 C 1286.7839 1042.544 1281.4733 1044.5888 1276.623 1047.4473 C 1268.6323 1051.933 1261.0885 1057.2856 1254.5039 1063.6758 C 1252.2176 1065.7577 1249.8609 1067.9546 1246.9102 1069.0332 C 1243.1675 1070.2024 1239.2061 1069.3109 1235.4766 1068.5469 C 1233.6781 1068.1451 1231.8986 1067.7156 1230.1875 1067.2715 C 1221.7445 1065.0521 1213.3736 1062.5654 1204.8887 1060.5039 C 1185.7954 1055.8268 1166.5632 1051.7074 1147.207 1048.2715 C 1142.2018 1047.3606 1137.1728 1046.4342 1132.2734 1045.2852 C 1126.0018 1043.7573 1119.5935 1042.1281 1114.1113 1038.582 C 1108.5627 1035.1626 1104.8434 1029.6744 1100.3711 1025.0781 C 1089.1066 1013.7331 1074.4922 1005.9674 1059.0215 1002.1445 C 1041.9218 997.89705 1023.5324 998.30262 1006.8594 1004.1738 C 1001.5996 1005.9901 996.59913 1008.4644 991.76758 1011.209 C 983.08009 1016.0464 974.66699 1021.3653 966.4082 1026.8984 C 959.84567 1031.4104 953.468 1036.2218 946.50195 1040.1133 C 942.92254 1042.1698 939.24251 1044.0493 935.50391 1045.7988 C 934.68636 1046.1611 933.62021 1046.6639 932.69531 1047.0586 C 917.61107 1053.6815 901.42557 1057.756 885.01953 1059.2031 C 883.86873 1059.2881 882.46843 1059.4238 881.2168 1059.4902 C 851.80956 1061.39 821.83987 1054.8555 796.08008 1040.4863 C 781.71345 1032.4801 768.74431 1022.0552 757.50977 1010.0645 C 754.23746 1006.5501 751.13004 1002.8817 748.19141 999.08398 C 747.27882 997.88459 746.23143 996.50797 745.30078 995.21289 C 741.28118 989.66757 737.64493 983.84637 734.39453 977.81836 C 733.85796 976.79922 733.19779 975.55285 732.63672 974.43555 C 728.64909 966.54006 725.37091 958.28857 722.82422 949.81836 C 722.55587 948.89806 722.20252 947.71401 721.92578 946.68359 C 720.40273 941.18776 719.20539 935.60363 718.30469 929.97266 C 718.10833 928.67727 717.87882 927.14119 717.69922 925.75 C 717.44227 923.73637 717.22727 921.86828 717.04688 919.82422 C 715.05342 898.07698 717.80823 875.92428 724.96484 855.29688 C 725.20192 854.64554 725.53194 853.70832 725.80469 852.94727 C 726.20478 851.87103 726.68735 850.55042 727.15234 849.39258 C 732.3774 836.05123 739.48539 823.45866 748.16797 812.0625 C 748.96462 811.02725 749.91512 809.8041 750.79102 808.71289 C 762.98293 793.58269 778.03685 780.80737 794.80078 771.00391 C 795.91853 770.36174 797.24301 769.5967 798.45508 768.93164 C 806.62256 764.44791 815.10908 760.51942 823.88867 757.39062 C 826.83685 756.38189 829.8425 755.54381 832.87891 754.8457 C 833.55964 754.70338 834.5464 754.47698 835.34961 754.32617 C 836.0872 754.17052 836.94261 754.03188 837.63086 753.89844 C 841.96228 753.13094 846.48332 752.73116 850.78516 752.45898 C 860.60438 751.87922 870.44701 751.87874 880.2793 751.98828 C 890.35473 752.14096 900.58511 752.60016 910.42773 755.1582 C 916.85083 756.85107 923.10754 759.36525 929.07812 762.10547 C 938.34509 766.36861 947.46203 771.31664 956.24609 776.61719 C 962.6789 780.48246 968.96363 784.61174 974.88086 789.23438 C 985.75773 797.40921 998.01725 803.9084 1011.2129 807.39258 C 1021.2123 810.08802 1031.6481 811.1003 1041.9844 810.58789 C 1051.5078 810.11992 1060.9721 807.94954 1069.623 803.90625 C 1080.8316 798.76235 1090.6103 790.98115 1099.3867 782.4082 C 1104.6508 777.20034 1109.6978 771.7596 1115.3516 766.95703 C 1122.491 760.78688 1130.2946 755.34277 1138.752 751.13281 C 1139.156 750.94299 1139.7567 750.6339 1140.2227 750.41797 C 1141.9422 749.60036 1143.9329 748.73055 1145.6836 748.03906 C 1160.8059 741.93302 1177.1796 739.77519 1193.377 739.11719 C 1197.8273 738.93802 1202.3406 738.87095 1206.8574 738.86133 z M 1038.6426 1224.084 C 1069.5814 1224.2035 1100.5242 1227.8399 1130.9395 1233.7012 C 1149.0453 1237.2146 1167.1404 1241.572 1184.8672 1246.666 C 1212.3038 1254.5574 1239.2085 1264.2024 1265.3555 1275.7031 C 1287.486 1285.4394 1309.0764 1296.542 1329.6934 1309.2363 C 1333.1147 1311.3356 1336.5945 1313.5504 1339.9336 1315.7344 C 1357.2986 1327.1095 1373.8173 1339.8531 1388.6758 1354.375 C 1397.1276 1362.6024 1405.0902 1371.4322 1412.4609 1380.5801 C 1430.7246 1403.2683 1445.7322 1428.3898 1459.0059 1454.2617 C 1472.2538 1480.1487 1483.9441 1506.9101 1494.918 1533.9121 C 1501.2076 1549.4075 1507.2626 1565.0372 1513.1816 1580.7031 C 1518.6159 1595.1177 1524.2265 1609.4649 1530.0312 1623.7344 C 1538.1861 1643.8185 1546.5858 1663.8037 1555.3125 1683.6465 C 1562.9766 1700.9091 1570.9993 1717.9578 1578.627 1735.2344 C 1582.2034 1743.3585 1585.7793 1751.4856 1589.1074 1759.7148 C 1589.7914 1761.6681 1590.8577 1763.6506 1590.5977 1765.7812 C 1590.1732 1768.7605 1587.8609 1770.9164 1585.8379 1772.9355 C 1582.3486 1776.1665 1578.4343 1778.8956 1574.5566 1781.6328 C 1566.0452 1787.5228 1557.2564 1792.9386 1548.7207 1798.8301 C 1527.2085 1813.6335 1506.6747 1829.8603 1487.3555 1847.4316 C 1442.5505 1888.0928 1404.2484 1935.8513 1373.9961 1988.2363 C 1343.6434 2040.7222 1321.3551 2097.8123 1307.6719 2156.8633 C 1304.9969 2168.4672 1302.5318 2180.1286 1300.6777 2191.8945 C 1297.4638 2212.9121 1295.9648 2234.1557 1295.2285 2255.3926 C 1294.3056 2284.2829 1294.9199 2313.2293 1297.2344 2342.043 C 1298.9116 2362.6343 1301.4869 2383.1916 1305.9883 2403.3711 C 1315.2243 2445.7452 1328.9444 2487.13 1346.7109 2526.6895 C 1366.9565 2571.7415 1392.4375 2614.4743 1422.8086 2653.4395 C 1449.3084 2687.3802 1479.5151 2718.51 1513.2637 2745.293 C 1519.7552 2750.492 1526.4367 2755.4463 1533.1113 2760.3574 C 1537.5321 2763.6424 1542.0321 2766.8753 1545.9746 2770.7383 C 1546.4435 2771.31 1547.164 2771.8722 1547.1504 2772.6699 C 1545.8776 2773.559 1544.2426 2773.6869 1542.7578 2774.0098 C 1538.8379 2774.7082 1534.9706 2775.017 1530.9785 2775.4219 C 1520.6114 2776.4581 1510.2131 2776.5913 1499.8262 2776.877 C 1471.2677 2777.4925 1442.7026 2777.7434 1414.1387 2777.957 C 1352.0841 2778.3531 1290.0264 2778.4246 1227.9707 2778.3262 C 1164.084 2778.1924 1100.1984 2777.9124 1036.3145 2777.2734 C 1006.7128 2776.957 977.1104 2776.5652 947.51367 2775.9277 C 932.81249 2775.5938 918.14455 2775.0947 903.44727 2774.2773 C 884.78696 2773.3134 866.13877 2772.1199 847.5293 2770.3867 C 840.92812 2769.7738 834.32554 2769.0864 827.73047 2768.3203 C 817.53991 2767.1265 807.26145 2765.6889 797.09766 2763.8691 C 783.23211 2761.3689 769.34084 2758.1531 756.00781 2753.3848 C 747.72767 2750.4211 739.71117 2746.7082 732.17383 2742.1699 C 722.19098 2736.2367 712.78499 2729.4046 703.39453 2722.5898 C 685.73644 2709.6949 668.44655 2696.3068 651.06641 2683.043 C 641.56283 2675.8922 630.99224 2670.2987 620.19531 2665.377 C 606.66803 2659.2762 592.62089 2654.2216 578.12695 2650.9707 C 571.74649 2649.5418 565.2323 2648.6449 558.68555 2648.6406 C 555.23811 2648.4492 551.48246 2647.6682 549.0625 2645.0059 C 547.40865 2642.9529 547.20115 2640.2135 546.33203 2637.8066 C 537.64476 2608.2915 529.25505 2578.6505 521.39062 2548.8867 C 513.91931 2520.53 506.88824 2491.968 500.5957 2463.3262 C 491.81977 2423.3762 484.48363 2383.0977 479.08398 2342.5488 C 474.68845 2309.6288 471.59904 2276.4422 469.69531 2243.207 C 468.85464 2228.5856 468.22871 2213.828 467.83008 2199.1895 C 466.71125 2159.0309 467.04427 2118.7985 468.30078 2078.6738 C 468.98116 2058.0085 470.02266 2037.39 471.47656 2016.7695 C 474.11537 1979.3883 478.12227 1942.0896 483.75391 1904.9766 C 488.66644 1872.4404 494.81612 1840.0941 502.04492 1807.9941 C 509.8185 1773.5852 518.79256 1739.3791 528.78906 1705.5059 C 537.66986 1675.5208 547.73254 1645.9125 560.01172 1617.1367 C 570.44052 1592.6226 582.67266 1568.6715 596.4043 1545.7168 C 606.01096 1529.5742 616.42179 1513.8131 627.25391 1498.4062 C 635.63128 1486.5249 644.27833 1474.6917 653.29688 1463.2324 C 663.90071 1449.8109 675.1123 1436.7105 686.6875 1424.1094 C 690.81381 1419.6284 694.99216 1415.1703 699.1875 1410.8223 C 717.68622 1391.6076 737.30861 1373.1696 757.62695 1355.7734 C 768.57011 1346.4053 779.71061 1337.3457 791.11133 1328.5664 C 801.47977 1320.576 812.16198 1312.7358 822.94141 1305.2441 C 850.33332 1286.2505 878.88952 1268.909 908.99219 1254.5332 C 927.30757 1245.8295 946.1959 1238.2171 965.75195 1232.7812 C 969.51799 1231.7314 973.56048 1230.7186 977.49805 1229.8848 C 979.6379 1229.4191 981.85218 1228.9757 983.91406 1228.5996 C 985.78423 1228.2507 987.47795 1227.96 989.36719 1227.6543 C 991.75944 1227.2683 994.50295 1226.8811 996.91016 1226.5605 C 1010.7441 1224.7788 1024.6997 1224.078 1038.6426 1224.084 z M 394.19336 1500.3945 C 399.04349 1500.4295 403.91003 1500.394 408.73438 1500.9648 C 408.93252 1501.4155 409.56299 1501.7922 409.11523 1502.2949 C 403.07706 1516.3482 396.55005 1530.1842 390.10742 1544.0547 C 387.12159 1550.408 384.17323 1556.7938 380.73438 1562.918 C 379.45866 1565.0838 378.13937 1567.3384 376.14062 1568.916 C 375.42568 1569.4022 374.56799 1569.0267 374.04883 1568.4414 C 372.3477 1566.7753 371.32231 1564.5677 370.22461 1562.4883 C 366.78631 1555.4765 363.99339 1548.1749 361.05078 1540.9473 C 357.5948 1532.3228 353.98375 1523.7478 351.00781 1514.9414 C 350.20777 1512.3382 349.29874 1509.6787 349.34961 1506.9238 C 349.32121 1505.8864 349.94413 1504.9531 350.90039 1504.5605 C 352.74836 1503.6797 354.81974 1503.441 356.79688 1502.9824 C 360.66505 1502.2394 364.65245 1501.7818 368.5 1501.4785 C 372.591 1501.1549 376.64272 1500.904 380.76953 1500.7227 C 385.26948 1500.5248 389.66809 1500.4368 394.19336 1500.3945 z M 900.53906 1546.7949 C 880.48863 1547.0344 860.55167 1553.9864 844.81445 1566.4375 C 830.87531 1577.386 820.26163 1592.4387 814.33789 1609.123 C 809.8864 1621.7779 808.64568 1635.4898 810.42773 1648.7695 C 812.50854 1664.7528 818.4447 1679.996 826.05078 1694.1211 C 833.92106 1708.7094 843.5208 1722.3127 854.00195 1735.1328 C 869.98116 1754.2095 889.3191 1770.2715 910.12695 1783.8262 C 928.28489 1795.5694 947.7666 1805.356 968.26367 1812.3008 C 976.79507 1815.1475 985.50335 1817.5456 994.4043 1818.9062 C 1004.3203 1820.4599 1014.3213 1821.4203 1024.3281 1822.1562 C 1049.1292 1823.9054 1074.2281 1823.1322 1098.6543 1818.25 C 1119.3704 1814.1849 1139.4856 1807.0427 1158.0762 1797.0312 C 1174.3969 1788.2876 1189.526 1777.4274 1203.4473 1765.2441 C 1215.2225 1754.9283 1226.2293 1743.7347 1236.3984 1731.834 C 1248.5246 1717.5803 1259.3966 1702.1063 1267.3516 1685.1191 C 1273.5548 1671.8238 1277.8986 1657.4444 1278.3535 1642.7031 C 1278.886 1624.3727 1273.7102 1605.9507 1263.8164 1590.5195 C 1253.7126 1574.6458 1238.6115 1561.8996 1221.0234 1555.1035 C 1210.8263 1551.0897 1199.8358 1549.3238 1188.9023 1549.3359 C 1175.7965 1549.2599 1162.6384 1551.9205 1150.7344 1557.4492 C 1136.3505 1564.0761 1124.0804 1574.6987 1114.2754 1587.0371 C 1109.5444 1592.941 1105.4279 1599.3033 1101.5703 1605.8027 C 1100.2098 1608.1004 1098.6852 1610.2978 1097.084 1612.4336 C 1096.7118 1612.9113 1096.1425 1613.6536 1095.6836 1614.2227 C 1087.9202 1623.9044 1077.6847 1631.7153 1065.9961 1636.0078 C 1055.2101 1640.0192 1043.3006 1640.9246 1032.0352 1638.5664 C 1023.2308 1636.7429 1014.8339 1633.0723 1007.3867 1628.0527 C 1001.6818 1624.1145 997.0312 1618.8788 992.90625 1613.3555 C 991.0476 1610.8974 989.21601 1608.2298 987.55859 1605.748 C 983.91739 1600.2386 980.47997 1594.6903 977.07617 1589.0332 C 970.75116 1578.502 962.26156 1569.237 952.13477 1562.2578 C 937.12829 1551.8395 918.77096 1546.5146 900.53906 1546.7949 z M 2030.9727 1880.0449 C 2147.0943 1880.0709 2263.2163 1880.3498 2379.3359 1881.0566 C 2450.9734 1881.4953 2522.6103 1882.0401 2594.2441 1882.8984 C 2628.6494 1883.2976 2663.0521 1883.9412 2697.4512 1884.7031 C 2718.6675 1885.1594 2739.8521 1885.6411 2761.043 1886.5117 C 2766.8599 1886.7797 2772.704 1887.0424 2778.457 1887.4688 C 2782.7182 1887.778 2787.01 1888.1745 2791.1973 1888.7051 C 2791.6377 1888.7741 2792.4517 1888.8853 2793.0352 1888.9707 C 2798.453 1889.7692 2804.0059 1891.0124 2808.5566 1894.2207 C 2813.7017 1897.8062 2818.4402 1901.9844 2822.6445 1906.6387 C 2831.0047 1915.891 2837.1822 1927.2261 2839.7754 1939.4629 C 2839.928 1940.185 2840.1303 1941.2092 2840.2734 1942.0527 C 2841.4159 1948.7774 2841.4872 1955.6893 2840.4121 1962.4277 C 2840.3261 1962.9525 2840.1773 1963.8197 2840.0469 1964.4707 C 2838.0298 1974.9011 2833.0781 1984.7064 2826.0176 1992.6309 C 2825.3808 1993.3395 2824.5556 1994.2363 2823.8105 1994.9863 C 2820.5194 1998.3364 2816.682 2001.4043 2812.8594 2003.9121 C 2808.4746 2006.7456 2803.8549 2009.2652 2798.9648 2011.1133 C 2795.044 2012.53 2790.9381 2013.3579 2786.8145 2013.9141 C 2785.4456 2014.1032 2783.8405 2014.2871 2782.375 2014.4297 C 2780.4339 2014.6277 2778.6263 2014.7441 2776.627 2014.8828 C 2775.4394 2014.9488 2774.0009 2015.0334 2772.7148 2015.0879 C 2769.2742 2015.2381 2765.8497 2015.3655 2762.459 2015.4473 C 2734.8778 2016.1433 2707.2582 2015.2938 2679.7031 2016.9395 C 2669.0505 2017.6612 2658.355 2018.707 2647.9844 2021.3496 C 2639.6786 2023.4849 2631.615 2026.8819 2624.7188 2032.0391 C 2617.9651 2036.9673 2612.2783 2043.1755 2606.9844 2049.6035 C 2598.4361 2060.074 2592.2671 2072.4598 2589.0449 2085.5859 C 2583.523 2107.7528 2586.3231 2131.9838 2597.2402 2152.0996 C 2601.744 2160.4745 2607.6423 2168.0768 2614.5547 2174.6016 C 2622.8825 2182.684 2632.6867 2189.3419 2643.5605 2193.4824 C 2654.9902 2197.9308 2667.1634 2199.9942 2679.2871 2201.4707 C 2684.1367 2202.0769 2688.9775 2202.8458 2693.6836 2204.0137 C 2699.2391 2205.3549 2704.6955 2207.158 2709.877 2209.5801 C 2710.9902 2210.1009 2712.3114 2210.7562 2713.4746 2211.3887 C 2716.8376 2213.201 2720.0438 2215.3098 2723.0117 2217.7168 C 2723.3156 2217.9789 2723.9539 2218.503 2724.3848 2218.8672 C 2732.2001 2225.6393 2738.4082 2234.3765 2741.7891 2244.1777 C 2742.056 2244.9537 2742.2267 2245.4876 2742.4727 2246.2891 C 2746.1225 2258.4815 2745.8484 2271.6518 2742.6504 2283.9102 C 2742.3886 2284.9081 2742.042 2286.1526 2741.7012 2287.2344 C 2737.7262 2300.0682 2730.3027 2312.07 2719.6113 2320.3594 C 2714.1932 2324.5757 2707.8924 2327.7998 2701.0977 2329.0254 C 2698.2176 2329.603 2695.2841 2329.961 2692.4258 2330.1953 C 2689.9654 2330.4042 2687.4993 2330.5394 2685.0332 2330.6602 C 2684.1711 2330.6912 2682.9709 2330.7364 2682.041 2330.7617 C 2665.4049 2331.2484 2648.762 2330.8191 2632.125 2330.6074 C 2613.6541 2330.3516 2595.1485 2330.0972 2576.7129 2331.4824 C 2565.5132 2332.3884 2554.2218 2333.9821 2543.6855 2338.0508 C 2535.7565 2341.0889 2528.5326 2345.7973 2522.2734 2351.5098 C 2516.6387 2356.6554 2511.4972 2362.3347 2506.7969 2368.3418 C 2498.224 2379.4923 2491.9875 2392.5801 2489.6094 2406.4922 C 2487.1088 2420.9222 2488.8066 2435.9202 2493.6875 2449.6797 C 2497.4296 2460.4146 2502.7901 2470.6154 2509.7109 2479.6445 C 2517.1456 2489.2861 2526.5943 2497.3753 2537.3262 2503.1367 C 2549.7709 2509.8821 2563.6745 2513.5565 2577.6777 2515.1973 C 2582.1428 2515.6756 2586.7315 2516.4377 2591.0176 2517.416 C 2603.1445 2520.2016 2614.9761 2525.1906 2624.5664 2533.2441 C 2626.7207 2535.0488 2628.8564 2537.1237 2630.6582 2539.1465 C 2634.4188 2543.3297 2637.5374 2548.0896 2639.8457 2553.2207 C 2640.0392 2553.6463 2640.3708 2554.4122 2640.5996 2554.9707 C 2642.91 2560.5828 2644.2601 2566.7544 2644.7051 2572.6875 C 2644.8111 2574.1503 2644.8674 2575.405 2644.8848 2576.873 C 2644.9688 2586.0632 2643.1891 2595.2075 2640.207 2603.8789 C 2639.6907 2605.3902 2639.0549 2607.0901 2638.4297 2608.6504 C 2636.9691 2612.3023 2635.2233 2616.0419 2633.3574 2619.5859 C 2630.3878 2625.0626 2627.2829 2630.483 2624.8359 2636.2227 C 2619.6361 2648.0042 2616.1599 2660.5698 2614.875 2673.3945 C 2614.4614 2676.9736 2614.0897 2680.5766 2613.543 2684.0742 C 2612.7921 2688.6714 2611.8751 2693.3148 2609.9375 2697.5781 C 2608.6554 2700.3608 2606.479 2703.0393 2603.3555 2703.7383 C 2599.4652 2704.6277 2595.491 2703.4585 2591.8008 2702.2598 C 2584.542 2699.7931 2577.8217 2696.0344 2570.7109 2693.2012 C 2546.2047 2682.9033 2520.0692 2675.9183 2493.4277 2674.7832 C 2473.5959 2673.9751 2453.4569 2676.5511 2434.8926 2683.7598 C 2427.3808 2686.6316 2420.2259 2690.3468 2413.293 2694.4043 C 2402.4929 2700.6786 2392.0391 2707.5669 2382.1152 2715.1543 C 2376.1288 2719.8821 2370.379 2724.913 2364.1777 2729.3652 C 2351.416 2738.7413 2337.5767 2746.7527 2322.9238 2752.9082 C 2313.8145 2756.705 2304.327 2759.862 2294.7129 2762.3125 C 2290.4909 2763.3652 2286.1037 2764.4057 2281.7383 2765.0625 C 2280.9999 2765.1721 2279.957 2765.3207 2279.1016 2765.4453 C 2277.9354 2765.5988 2276.4842 2765.7926 2275.293 2765.9336 C 2261.8577 2767.4766 2248.3098 2768.297 2234.8379 2769.0527 C 2203.3901 2770.7002 2171.9335 2771.5614 2140.4551 2772.2969 C 2112.4679 2772.9083 2084.4788 2773.4173 2056.4883 2773.8574 C 2040.1026 2774.0787 2023.7092 2774.2673 2007.3262 2773.7949 C 1999.7873 2773.4995 1992.1855 2773.227 1984.793 2771.5977 C 1981.3858 2770.8027 1977.7142 2769.5215 1975.6973 2766.4648 C 1973.6775 2763.3258 1973.1171 2759.5571 1971.832 2756.1074 C 1965.6379 2737.8035 1953.2588 2721.7596 1937.4062 2710.7656 C 1921.821 2699.8601 1903.0955 2693.6706 1884.1328 2692.6309 C 1879.8332 2692.3835 1875.4542 2692.4492 1871.2188 2692.25 C 1860.964 2691.8174 1850.7063 2690.7192 1840.4746 2689.3711 C 1824.0953 2687.1662 1807.6391 2684.2364 1791.4434 2680.625 C 1782.5611 2678.6267 1773.734 2676.381 1764.9922 2673.8359 C 1764.216 2673.592 1763.1583 2673.2801 1762.2734 2673 C 1757.0126 2671.363 1751.8034 2669.569 1746.7051 2667.6816 C 1723.9983 2659.2602 1702.0262 2648.8499 1681.1719 2636.5332 C 1673.4262 2631.9802 1665.7545 2627.0931 1658.3809 2622.0781 C 1634.5066 2605.8181 1612.2148 2586.9423 1592.1797 2566.041 C 1584.1687 2557.6846 1576.4208 2548.9015 1569.123 2539.9082 C 1558.9434 2527.3577 1549.3935 2514.104 1540.7266 2500.4648 C 1532.7118 2487.8638 1525.3648 2474.8135 1518.7539 2461.4551 C 1510.5743 2444.9378 1503.4557 2427.8186 1497.5332 2410.4102 C 1493.5344 2398.5911 1489.9871 2386.6105 1487.1211 2374.4648 C 1485.6407 2367.9743 1484.5318 2361.4015 1483.75 2354.791 C 1483.0558 2348.8045 1482.6376 2342.5415 1482.3418 2336.5 C 1481.7544 2324.0504 1481.697 2311.5205 1481.6406 2299.0156 C 1481.6306 2281.2279 1481.6738 2263.4378 1481.9746 2245.6523 C 1482.0991 2239.5173 1482.2567 2233.4884 1482.584 2227.3574 C 1482.7794 2223.7652 1483.0398 2220.0064 1483.3828 2216.4375 C 1484.0833 2208.4644 1485.5163 2200.432 1487.4805 2192.7598 C 1488.7935 2187.6513 1490.3758 2182.6302 1491.9375 2177.6699 C 1498.4889 2157.1043 1506.2136 2136.9003 1515.3574 2117.3438 C 1520.4863 2106.3409 1526.0476 2095.5413 1532.0234 2084.9746 C 1543.1769 2065.2952 1555.9082 2046.311 1570.082 2028.5957 C 1573.6137 2024.1643 1577.264 2019.7978 1580.9473 2015.5625 C 1605.2518 1987.6029 1633.4358 1962.9941 1664.5762 1942.9102 C 1670.6977 1938.9483 1677.028 1935.1225 1683.3047 1931.5391 C 1689.5776 1927.9749 1695.9467 1924.5808 1702.4004 1921.3555 C 1722.7039 1911.2384 1744.0108 1902.7834 1765.7812 1896.1953 C 1779.5313 1892.0316 1793.572 1888.4739 1807.7246 1885.7754 C 1821.0493 1883.401 1834.6182 1882.6712 1848.0801 1882.0156 C 1871.2326 1881.0294 1894.4466 1880.7379 1917.6484 1880.4844 C 1955.4219 1880.1155 1993.1977 1880.0908 2030.9727 1880.0449 z M 549.74609 2796.8164 C 555.86282 2797.0915 561.47398 2799.9195 566.6543 2802.9648 C 569.08114 2804.4087 571.48341 2805.9584 573.75195 2807.5098 C 584.33737 2814.7534 594.07969 2823.1189 604.22266 2830.9492 C 614.97892 2839.1576 626.19282 2846.7611 637.69141 2853.8887 C 656.74412 2865.6392 676.62772 2876.0541 697.17773 2884.9336 C 712.7895 2891.6289 728.83253 2897.4009 745.32812 2901.5078 C 756.8892 2904.39 768.4903 2907.1538 780.23828 2909.1719 C 798.54493 2912.4091 817.08624 2914.0793 835.62109 2915.332 C 861.44726 2916.9785 887.31734 2917.7701 913.18555 2918.3945 C 953.10728 2919.2961 993.03857 2919.6623 1032.9688 2919.9473 C 1088.1075 2920.3139 1143.2488 2920.3895 1198.3887 2920.4551 C 1313.3261 2920.5301 1428.2639 2920.3538 1543.2012 2920.2051 C 1641.6316 2920.0622 1740.0622 2919.8905 1838.4922 2919.5703 C 1924.4664 2919.2918 2010.4404 2918.9425 2096.4121 2918.2148 C 2136.5998 2917.8607 2176.7872 2917.4414 2216.9688 2916.6406 C 2233.3333 2916.2789 2249.701 2915.9094 2266.0488 2915.0625 C 2270.8823 2914.792 2275.7083 2914.3647 2280.4922 2913.6113 C 2309.7574 2909.3553 2338.59 2902.0879 2366.3574 2891.9082 C 2387.3456 2884.1944 2407.7464 2874.7701 2426.8809 2863.1719 C 2439.0399 2855.7955 2450.6276 2847.4474 2461.2598 2837.9922 C 2467.126 2832.9325 2473.0149 2827.7844 2479.7715 2823.9297 C 2484.1801 2821.4856 2489.3002 2820.027 2494.3613 2820.7246 C 2501.1566 2821.521 2507.4345 2824.4594 2513.5977 2827.2539 C 2523.2166 2831.7412 2532.7285 2836.5582 2541.543 2842.5 C 2549.9738 2848.2227 2557.5727 2855.1256 2564.2559 2862.8086 C 2573.3786 2873.1945 2581.2493 2884.5932 2588.9219 2896.0684 C 2602.3276 2916.278 2615.1004 2936.9039 2627.4082 2957.7988 C 2655.6529 3005.8723 2681.0018 3055.6567 2703.0527 3106.8711 C 2711.3078 3126.0819 2719.1726 3145.6198 2726.4844 3165.2148 C 2741.1426 3204.4668 2753.8471 3244.4245 2764.5137 3284.9609 C 2773.5137 3319.1237 2781.0585 3353.7627 2787.1152 3388.6035 C 2790.6573 3408.9598 2793.6903 3429.4277 2796.2305 3449.9648 C 2799.0245 3472.6237 2801.219 3495.4243 2802.7793 3518.1738 C 2804.384 3541.1014 2805.2569 3564.0705 2805.8145 3587.0566 C 2805.937 3593.3651 2805.9746 3599.7203 2805.7129 3605.9688 C 2805.6219 3608.1766 2805.5024 3610.3944 2805.3145 3612.5176 C 2804.581 3621.0694 2802.7877 3629.7717 2798.2598 3637.1797 C 2793.3993 3645.1687 2786.2061 3651.3683 2778.8613 3657.002 C 2770.6548 3663.2701 2761.9383 3669.0544 2753.3242 3674.834 C 2721.8566 3695.8754 2689.9379 3716.2018 2657.5391 3735.8047 C 2578.2778 3783.7929 2496.5221 3827.6686 2413.209 3868.2578 C 2320.9197 3913.1867 2226.6847 3954.0529 2131.1074 3991.4434 C 2035.0924 4028.9964 1937.7291 4063.0017 1839.3105 4093.7637 C 1752.7631 4120.8049 1665.3841 4145.301 1577.3828 4167.248 C 1530.4205 4178.9634 1483.211 4189.9566 1435.8711 4200.2012 C 1365.6945 4215.3785 1295.0872 4228.9263 1224.2324 4240.7148 C 1164.3182 4250.6835 1104.2136 4259.3844 1043.9199 4266.7266 C 996.06794 4272.5447 948.09241 4277.5144 900.03906 4281.5293 C 853.76055 4285.394 807.37749 4288.4223 760.96289 4290.4121 C 710.63417 4292.5362 660.23752 4293.2776 609.85156 4292.8496 C 571.47412 4292.5049 533.13302 4291.4654 494.81445 4289.3594 C 480.30061 4288.5396 465.67567 4287.5759 451.1875 4286.3438 C 437.80625 4285.1938 424.43908 4283.845 411.11523 4282.1523 C 406.32238 4281.479 401.41552 4280.4166 397.35938 4277.6348 C 393.36606 4274.9995 390.33502 4271.1988 387.56055 4267.3613 C 387.10128 4266.7176 386.4847 4265.8181 386.03516 4265.1289 C 380.32899 4256.367 375.52008 4247.0626 370.74219 4237.7734 C 361.92626 4220.3629 353.3772 4202.819 344.79883 4185.291 C 329.86343 4154.9267 316.1485 4123.9639 303.63281 4092.5254 C 284.28482 4043.8724 267.83058 3993.9899 254.42578 3943.3027 C 249.08632 3923.0935 244.22502 3902.7301 239.86719 3882.2422 C 236.71483 3867.3954 233.79802 3852.373 231.18359 3837.418 C 227.58602 3816.8323 224.51194 3796.1969 221.97461 3775.4688 C 219.45346 3754.8872 217.45724 3734.1349 216.04492 3713.4707 C 215.29548 3702.5144 214.69682 3691.6107 214.2832 3680.6289 C 214.12243 3673.4826 213.93085 3666.1562 216.06641 3659.25 C 217.44935 3655.0215 220.26926 3651.2399 224.10547 3648.9395 C 229.55695 3645.5073 235.95604 3644.079 242.21289 3642.9238 C 246.88441 3642.1012 251.60093 3641.5639 256.32422 3641.1445 C 257.48434 3641.0575 258.9275 3640.931 260.12695 3640.8438 C 269.7293 3640.1294 279.37236 3639.8133 288.95898 3639.5898 C 314.42114 3639.0792 339.88963 3639.1847 365.35547 3639.1543 C 397.83524 3639.1183 430.31653 3639.2156 462.79492 3638.8574 C 476.21034 3638.6998 489.63528 3638.4909 503.02148 3637.5332 C 509.67772 3636.9451 516.46367 3636.3103 522.72852 3633.8262 C 526.94833 3632.0646 530.68952 3629.3696 534.38281 3626.7148 C 543.37625 3620.2137 551.56151 3612.2823 557.05273 3602.5527 C 562.68714 3592.6237 565.2584 3581.1959 565.73047 3569.8574 C 566.19642 3557.0323 563.06557 3544.0723 556.5918 3532.9746 C 550.30233 3522.0888 541.06131 3512.9938 530.24609 3506.6172 C 525.25812 3503.6423 520.028 3500.9182 514.3457 3499.5547 C 507.03206 3497.7172 499.46614 3497.2831 491.96875 3496.8008 C 477.73964 3496.0372 463.48622 3495.9184 449.24023 3495.7715 C 405.10251 3495.4287 360.96428 3495.6636 316.82617 3495.4277 C 304.48837 3495.3467 292.0654 3495.2165 279.78516 3494.832 C 273.61987 3494.6308 267.45665 3494.3415 261.30469 3493.8848 C 259.29141 3493.7224 257.07457 3493.5233 255.08008 3493.2891 C 249.42224 3492.5784 243.66709 3491.8431 238.35742 3489.6523 C 235.46993 3488.4767 232.79895 3486.5729 231.19727 3483.8477 C 229.59897 3481.1611 228.92868 3478.0518 228.25586 3475.0332 C 227.03217 3468.7499 225.88474 3462.4399 225.34375 3456.0547 C 225.18943 3454.2645 225.04706 3452.2395 224.96289 3450.3535 C 224.90099 3448.9057 224.84728 3447.1954 224.8418 3445.6426 C 224.7893 3438.5576 225.42491 3431.4299 226.2207 3424.4453 C 226.4079 3422.9538 226.61366 3421.1974 226.81641 3419.7129 C 228.48 3407.2801 230.63168 3395.0244 233.04297 3382.7031 C 236.67005 3364.353 240.67486 3345.9532 244.83203 3327.668 C 249.04535 3309.2089 253.45752 3290.8443 258.22266 3272.5352 C 260.48463 3264.0436 262.73387 3255.5337 265.61914 3247.2285 C 266.24421 3245.493 266.96193 3243.5539 268.72852 3242.6797 C 271.23891 3241.3011 274.14163 3240.9416 276.92188 3240.4531 C 282.8655 3239.5583 289.03884 3239.2663 295.11328 3238.9492 C 315.96205 3238.0249 336.88145 3237.9736 357.7832 3237.7949 C 397.39301 3237.5598 437.00297 3237.6163 476.61328 3237.5879 C 533.38226 3237.5579 590.15273 3237.6375 646.91992 3237.1113 C 666.81558 3236.8746 686.71852 3236.6173 706.5918 3235.5898 C 714.05741 3235.1463 721.5445 3234.6336 728.91406 3233.3086 C 733.39925 3232.4692 737.80372 3231.0511 741.76953 3228.7656 C 752.22288 3223.2735 761.12652 3214.7244 766.63672 3204.2441 C 772.298 3193.6308 774.83403 3181.6121 775.55273 3169.6797 C 776.2503 3158.9696 775.16065 3147.9754 771.02344 3137.9961 C 766.75556 3127.6063 759.42699 3118.7309 750.95898 3111.4648 C 747.42788 3108.4183 743.76137 3105.493 739.79688 3103.0293 C 734.08038 3099.8168 727.43856 3099.0512 721.0332 3098.3262 C 710.01873 3097.2161 698.94387 3096.9055 687.88477 3096.5664 C 659.54142 3095.7966 631.18736 3095.6338 602.83594 3095.3867 C 540.94462 3094.9193 479.05025 3094.7384 417.16406 3093.75 C 393.4391 3093.3851 369.71474 3092.9104 345.99805 3092.1777 C 341.38592 3092.0123 336.55482 3091.8356 331.94531 3091.6113 C 329.22881 3091.4699 326.57541 3091.2985 323.83594 3091.0781 C 323.61466 3090.6349 322.98089 3090.2755 323.39648 3089.7578 C 326.02841 3082.9574 329.32045 3076.4401 332.47461 3069.873 C 341.46904 3051.4786 351.02099 3033.3656 360.62695 3015.2852 C 373.36502 2991.4161 386.40288 2967.7019 399.99023 2944.3047 C 407.74649 2930.9785 415.89545 2917.8658 424.875 2905.3242 C 440.71309 2883.0653 458.36113 2862.0749 477.79688 2842.8691 C 481.55287 2839.1793 485.38109 2835.5449 489.22852 2832.0801 C 497.4977 2824.6261 506.12515 2817.5439 515.31445 2811.248 C 516.70983 2810.2918 518.21684 2809.3023 519.72656 2808.3359 C 520.33053 2807.9551 521.07424 2807.4819 521.70508 2807.1035 C 524.98817 2805.0833 528.54572 2803.1384 531.92773 2801.5527 C 537.51769 2798.9897 543.50309 2796.7109 549.74609 2796.8164 z M 2807.3965 2976.0645 C 2807.6143 2975.9339 2807.8783 2975.9148 2808.2129 2976.0723 C 2808.5987 2976.1343 2808.9853 2976.1975 2809.3711 2976.2598 C 2817.2103 2977.6903 2824.9278 2979.7018 2832.6426 2981.6797 C 2852.3728 2986.8593 2871.9448 2992.6316 2891.4199 2998.6953 C 2910.007 3004.5378 2928.506 3010.7015 2946.625 3017.8809 C 2953.4791 3020.5778 2960.2835 3023.4011 2967.0449 3026.3223 C 2972.7549 3028.8152 2978.5793 3031.4242 2984.3008 3034.1191 C 2991.8146 3037.6436 2999.4174 3041.3863 3006.7832 3045.2305 C 3027.1952 3055.8744 3047.0693 3067.6441 3065.6582 3081.25 C 3068.7176 3083.4992 3071.7227 3085.7853 3074.6621 3088.1094 C 3086.7392 3097.6629 3098.2096 3108.0404 3108.4648 3119.543 C 3110.3028 3121.6215 3112.0849 3123.7006 3113.7695 3125.7832 C 3119.1048 3132.3319 3123.9833 3139.2616 3128.2266 3146.5684 C 3128.9958 3147.9048 3129.8625 3149.4446 3130.625 3150.8848 C 3136.5874 3162.0109 3140.918 3174.0198 3143.2793 3186.4258 C 3143.9952 3190.174 3144.5493 3193.9897 3144.9355 3197.8594 C 3145.0364 3198.9671 3145.1554 3200.286 3145.2324 3201.416 C 3145.5072 3205.4041 3145.6044 3209.2909 3145.543 3213.3027 C 3145.483 3217.2082 3145.2584 3221.1652 3144.8906 3225.1133 C 3144.5946 3228.2334 3144.2265 3231.246 3143.7637 3234.3672 C 3143.5433 3235.7803 3143.2925 3237.4007 3143.0371 3238.8203 C 3141.4794 3247.7832 3139.2504 3256.6194 3136.6055 3265.3203 C 3136.3129 3266.2351 3135.9447 3267.4194 3135.623 3268.4375 C 3132.7995 3277.238 3129.5476 3285.897 3125.9844 3294.4238 C 3125.4069 3295.781 3124.7545 3297.341 3124.1543 3298.7109 C 3118.5926 3311.4918 3112.4608 3324.0264 3105.7402 3336.2383 C 3104.4583 3338.5493 3103.1132 3340.9535 3101.7812 3343.252 C 3095.6343 3353.9344 3088.9505 3364.4872 3082.002 3374.6719 C 3066.7679 3396.9953 3049.8752 3418.174 3032.2266 3438.6562 C 3019.8926 3452.9291 3007.2149 3466.9261 2994.1543 3480.5703 C 2985.7002 3489.4101 2976.9613 3498.1992 2968.0098 3506.5547 C 2964.9907 3509.3597 2961.748 3512.1814 2958.4473 3514.4863 C 2956.4082 3515.7606 2954.5407 3517.4139 2952.2188 3518.1582 C 2951.5419 3518.5684 2951.082 3517.735 2950.9297 3517.1992 C 2950.1146 3514.8724 2949.7116 3512.4293 2949.3945 3509.9922 C 2949.2794 3509.0178 2949.126 3507.7729 2948.998 3506.6953 C 2946.8856 3488.0388 2944.9417 3469.363 2942.7266 3450.7188 C 2939.5665 3423.7706 2935.9826 3396.8612 2931.1855 3370.1504 C 2927.4554 3349.1749 2923.3375 3328.2685 2918.918 3307.4277 C 2907.8589 3255.6976 2894.0719 3204.5297 2877.0684 3154.4297 C 2862.2325 3110.5831 2844.9969 3067.5695 2826.0273 3025.3535 C 2819.7417 3011.2173 2813.4931 2996.9593 2808.4902 2982.2793 C 2807.8845 2980.4475 2807.3043 2978.605 2806.8594 2976.7266 C 2807.0075 2976.4376 2807.1786 2976.195 2807.3965 2976.0645 z M 65.068359 3707.7598 C 65.167379 3707.7498 65.266205 3707.7498 65.365234 3707.7598 C 66.704088 3708.0304 67.225177 3709.5326 67.6875 3710.6504 C 69.133329 3714.6117 69.716913 3718.8597 70.289062 3722.9473 C 72.255987 3737.6489 73.362918 3752.4487 74.962891 3767.1914 C 81.735713 3831.3765 92.828902 3895.1067 108.21094 3957.7891 C 126.08576 4030.7388 149.73366 4102.238 178.1543 4171.748 C 186.99575 4193.4882 196.43443 4214.9775 206.08398 4236.3691 C 207.63404 4239.9992 209.41133 4243.643 209.875 4247.6074 C 209.9371 4248.4325 209.51448 4249.34 208.61523 4249.457 C 206.35907 4250.0991 203.99036 4249.5683 201.71484 4249.3105 C 194.69988 4248.1927 187.87223 4246.1774 181.02734 4244.3223 C 167.65339 4240.5756 154.37613 4236.6302 141.05664 4232.6953 C 116.86756 4225.4503 92.769372 4217.6644 69.205078 4208.666 C 49.864485 4201.2726 30.870335 4193.0586 12.453125 4183.5547 C -4.0437999 4175.0864 -20.018413 4165.6178 -35.431641 4155.3105 C -50.514334 4145.2601 -65.213271 4134.5179 -78.425781 4122.0723 C -93.134939 4108.2552 -106.18531 4092.4076 -115.33203 4074.3398 C -119.96253 4065.2209 -123.59005 4055.5832 -125.97852 4045.6348 C -126.86116 4042.0211 -127.61509 4038.1836 -128.18164 4034.4336 C -129.37024 4026.6011 -129.84733 4018.6388 -129.69531 4010.668 C -129.66511 4009.32 -129.62695 4007.9267 -129.5625 4006.6836 C -129.5065 4005.6837 -129.47348 4004.7359 -129.4043 4003.8281 C -128.77016 3994.0338 -127.23832 3984.3088 -125.01758 3974.752 C -123.19419 3966.917 -120.84541 3958.947 -118.19727 3951.3359 C -110.322 3928.6877 -99.52554 3907.1598 -87.421875 3886.498 C -84.356123 3881.2825 -81.16773 3876.0629 -77.996094 3871.0195 C -68.972217 3856.6841 -59.278939 3842.7752 -49.017578 3829.2988 C -34.262743 3809.8448 -18.737695 3790.9799 -2.6523438 3772.6133 C 10.652767 3757.4761 24.305937 3742.6205 38.810547 3728.6191 C 45.689264 3722.0527 52.793485 3715.6897 60.439453 3710.0234 C 61.874257 3709.0964 63.342877 3708.0216 65.068359 3707.7598 z M 2738.9941 4030.2734 C 2739.148 4030.3477 2739.3012 4030.4686 2739.4688 4030.5176 C 2738.0527 4036.3694 2735.9552 4042.1048 2733.9043 4047.8223 C 2727.2215 4066.1217 2719.7876 4084.2445 2712.252 4102.2168 C 2700.5993 4129.906 2688.4658 4157.4093 2675.6094 4184.5449 C 2669.3866 4197.6906 2662.7979 4210.6598 2655.9277 4223.4785 C 2639.3746 4254.6731 2621.8093 4285.3928 2603.0508 4315.2402 C 2584.154 4345.3095 2563.9197 4374.5905 2542.3242 4402.8164 C 2521.8971 4429.5583 2500.1667 4455.4402 2477.4766 4480.3496 C 2470.3717 4488.1666 2463.0742 4495.9853 2455.7832 4503.6289 C 2438.9504 4521.2833 2421.6454 4538.4854 2403.9961 4555.3223 C 2370.5887 4587.072 2335.5261 4617.2442 2299.0078 4645.4316 C 2285.7812 4655.6478 2272.2547 4665.6862 2258.6367 4675.377 C 2232.9708 4693.6509 2206.6303 4710.9784 2179.6855 4727.3086 C 2151.2319 4744.5299 2121.941 4760.7304 2092.1523 4775.6914 C 2069.7263 4786.9481 2047.0128 4797.5254 2023.9453 4807.4395 C 1993.3202 4820.6145 1962.086 4832.6124 1930.498 4843.3906 C 1900.9259 4853.4807 1870.9154 4862.5462 1840.6797 4870.5566 C 1824.4531 4874.8543 1808.1569 4878.849 1791.7637 4882.5645 C 1781.0685 4884.9899 1770.2342 4887.3186 1759.4883 4889.4883 C 1732.0878 4895.0388 1704.5273 4899.804 1676.8516 4903.7598 C 1668.2016 4904.9096 1659.4694 4905.7754 1650.8262 4906.4883 C 1625.8757 4908.5182 1600.8879 4909.7446 1575.8516 4910.6426 C 1544.3582 4911.7424 1512.7958 4912.3303 1481.2539 4912.291 C 1460.3297 4912.23 1439.4051 4911.9622 1418.5254 4911.0039 C 1410.2723 4910.606 1402.0387 4910.1143 1393.7852 4909.2773 C 1372.9258 4907.2016 1352.1806 4904.6696 1331.4434 4901.6582 C 1306.6557 4898.0657 1281.872 4893.7871 1257.2812 4888.832 C 1224.4857 4882.2309 1191.8514 4874.3985 1159.6113 4865.3438 C 1135.6137 4858.608 1111.722 4851.1683 1088.1152 4843.0527 C 1017.1934 4818.7065 948.30983 4788.1599 882.64648 4751.8828 C 847.27209 4732.3447 812.8098 4711.1578 779.38281 4688.4492 C 762.27819 4676.8161 745.26589 4664.6801 728.69141 4652.2363 C 711.40574 4639.2901 694.47207 4625.8794 677.75781 4612.2051 C 672.76154 4608.0297 667.71018 4603.8875 663.16797 4599.2109 C 661.57511 4597.4285 659.86458 4595.6266 658.96094 4593.3789 C 658.56802 4592.5072 658.84805 4591.4665 659.66211 4590.9492 C 661.44234 4589.7009 663.64426 4589.2747 665.72656 4588.7891 C 671.49336 4587.6098 677.38794 4587.2536 683.24609 4586.8164 C 695.61505 4585.9809 708.19855 4585.561 720.67383 4584.9258 C 783.55025 4581.9504 846.4018 4578.3452 909.16211 4573.4805 C 973.3223 4568.5268 1037.3868 4562.2657 1101.2441 4554.2949 C 1162.8201 4546.6273 1224.2017 4537.4442 1285.3711 4527.0273 C 1325.7522 4520.1628 1366.0607 4512.867 1406.2656 4505.0352 C 1511.2652 4484.5072 1615.5129 4460.1853 1718.8828 4432.6191 C 1839.366 4400.4787 1958.6816 4363.9556 2076.4941 4323.0957 C 2127.0235 4305.5645 2177.2743 4287.2222 2227.1895 4268.0117 C 2293.8392 4242.3759 2359.8959 4215.1869 2425.1855 4186.2559 C 2486.8147 4158.9062 2547.7663 4130.0051 2607.6973 4099.1035 C 2632.1856 4086.4877 2656.4823 4073.4999 2680.6113 4060.2109 C 2697.432 4051.0316 2714.321 4041.9551 2731.5137 4033.5352 C 2733.7516 4032.4525 2736.1605 4031.3108 2738.5137 4030.3125 C 2738.6855 4030.1726 2738.8403 4030.1992 2738.9941 4030.2734 z "
       d="m 1202.6602,554.00781 c -41.3189,0.3387 -82.5586,8.26607 -121.0586,23.26953 -11.5841,4.47611 -22.8655,9.69809 -33.9414,15.30664 -4.6143,2.30402 -9.2406,4.59195 -13.9922,6.60157 -0.5199,0.21189 -1.3564,0.56055 -2.0039,0.80859 -3.7151,1.4466 -7.8988,2.5866 -11.8301,1.30664 -5.1215,-1.50418 -9.5861,-4.54929 -14.4727,-6.61914 -13.50425,-6.13004 -27.74476,-10.43952 -42.05271,-14.24219 -17.99418,-4.69723 -36.29172,-8.24866 -54.74218,-10.58398 -33.27374,-4.10228 -67.17821,-2.88887 -100.10743,3.36914 -37.94252,7.18916 -74.54006,21.19734 -107.76367,40.85547 -36.85395,21.79034 -69.59233,50.50033 -96.03125,84.17383 -24.17108,30.75803 -43.10787,65.67046 -55.30273,102.85742 -10.26683,31.17216 -15.7842,63.91253 -16.15821,96.73437 -0.16786,11.18508 0.34578,22.36961 1.25391,33.51563 1.66853,21.53764 4.63373,43.06695 10.5625,63.8789 6.13098,21.71357 15.22377,42.46187 25.26367,62.62307 11.19381,22.3452 24.86154,43.4184 40.30469,63.0547 11.59412,14.6374 24.2339,28.5266 38.47266,40.6425 5.08439,4.3664 10.56687,8.2301 15.84179,12.3555 1.17655,0.9274 2.32117,1.8973 3.39258,2.9453 0.19776,0.206 0.74127,0.7491 1.05469,1.0977 1.23626,1.2773 2.39111,2.9907 1.98242,4.8574 -1.11997,3.2532 -3.79778,5.6088 -6.19531,7.9453 -7.27726,6.8097 -15.17055,12.9215 -22.46875,19.709 -17.4581,15.7808 -34.45777,32.0614 -51.31445,48.4805 -9.95357,9.723 -19.71717,19.6399 -29.79297,29.2383 -2.47618,2.3308 -5.00661,4.647 -7.53907,6.8125 -6.66194,5.6945 -13.83991,10.9632 -21.9746,14.3554 -8.61507,3.7394 -17.9637,5.3397 -27.2461,6.3496 -12.3843,1.2393 -24.786,1.4406 -37.21289,1.6231 -24.24115,0.2346 -48.48403,0.029 -72.72461,0.3594 -19.9457,0.2785 -39.90647,0.6353 -59.80469,2.1289 -9.74364,0.7998 -19.55084,1.7366 -28.99218,4.4023 -20.38537,5.5922 -39.96584,14.1944 -57.76563,25.6094 -22.27645,14.2777 -41.72505,33.0637 -56.30859,55.1719 -13.57572,20.5392 -22.88706,43.935 -26.74805,68.2695 -2.92238,18.3068 -2.83832,37.0962 0.29492,55.3691 1.21803,6.3602 3.19088,12.5439 5.06641,18.7324 6.19929,19.6368 13.03704,39.0637 19.99805,58.4415 13.60014,37.8024 27.75504,75.4052 42.27539,112.8632 12.49421,32.161 25.16195,64.2602 38.58398,96.0469 5.58266,13.1293 11.16341,26.2765 17.58008,39.0254 3.03705,5.8705 6.74054,11.4673 8.75586,17.8086 2.00315,6.7727 1.31202,14.0641 0.66015,20.8984 -1.42533,13.5751 -3.59788,27.0223 -5.30078,40.5567 -4.97177,38.7759 -8.15197,77.767 -10.14453,116.8047 -2.30507,46.0711 -2.97239,92.2386 -1.47656,138.3476 0.51147,16.0824 1.39313,32.1505 2.45508,48.2051 3.67523,57.0789 9.21544,114.0772 18.13672,170.5898 7.24865,46.1169 16.71139,91.8722 27.85547,137.2012 7.43729,30.2662 15.52622,60.3731 24.1289,90.3281 5.37514,18.5553 10.94195,37.0777 17.72852,55.1739 2.9717,7.6924 6.11634,15.3761 10.41601,22.4375 1.74678,2.7513 3.72194,5.4145 6.30274,7.4433 0.48759,0.5413 -0.16854,1.1671 -0.33399,1.7305 -1.53751,2.9936 -3.64239,5.648 -5.65234,8.332 -7.40484,9.5385 -15.59895,18.4269 -23.86133,27.2207 -6.36253,6.7108 -12.67109,13.481 -18.625,20.5606 -16.30415,19.2002 -31.08228,39.6454 -45.06445,60.582 -21.43759,32.1829 -40.86909,65.6694 -58.99024,99.8184 -18.58656,35.0633 -35.69064,70.9069 -51.43359,107.3339 -11.92607,27.6346 -23.06408,55.6165 -33.19141,83.961 -9.33029,26.3226 -17.64847,52.9902 -25.60547,79.7558 -8.15185,27.5949 -15.84958,55.3333 -22.60937,83.3047 -2.48943,10.2348 -4.681611,20.5364 -6.81836,30.8496 -1.26412,5.8702 -2.438696,11.7727 -4.322266,17.5098 -1.120137,3.2877 -2.491249,6.7321 -5.34375,8.9082 -2.270947,1.6751 -5.099209,2.3348 -7.820312,2.8809 -6.302177,1.0558 -12.691785,1.5747 -18.945313,2.9277 -17.755124,3.685 -34.382445,11.4466 -49.904297,20.6543 -19.3519058,11.5106 -37.374014,25.0864 -55.005859,39.0469 -20.261723,16.1639 -40.033536,32.9363 -59.501953,50.0449 -48.57312,42.8161 -94.77471,88.4262 -136.97266,137.5703 -35.15558,40.9843 -67.52763,84.4692 -95.24218,130.8477 -24.34705,40.7894 -45.07802,83.8711 -60.03516,129.0039 -8.16136,24.5839 -15.52613,49.5565 -19.38477,75.2207 -4.05808,26.6276 -4.52178,53.6334 -4.38476,80.5176 0.15834,18.0845 0.36008,36.2093 2.33008,54.205 1.38655,12.7662 3.89633,25.3831 6.98242,37.8399 4.96714,20.2102 11.18225,40.1237 18.8789,59.4648 14.35109,36.2696 33.66959,70.538 57.00586,101.7813 31.69905,42.5053 70.62243,79.3316 113.39258,110.5429 43.75842,31.9699 91.46221,58.2767 140.919924,80.3047 47.468668,21.1318 96.616585,38.3429 146.53125,52.7071 70.387156,20.1996 142.307406,34.7545 214.712886,45.5058 36.07863,5.3613 72.30351,9.7057 108.59571,13.336 7.17595,0.7324 14.25352,1.4833 21.33203,2.8261 1.11965,0.2178 2.48031,0.5012 3.68359,0.793 6.78127,1.604 13.3201,4.2549 19.22461,7.9668 5.63711,3.4523 10.92253,7.6432 15.87891,11.8906 10.93091,9.4356 21.36192,19.6311 31.74023,29.752 18.04796,17.6583 36.03203,35.3883 54.53907,52.5683 31.61778,29.486 64.46965,57.6851 98.9414,83.793 28.57153,21.6787 58.10483,42.0682 88.16406,61.623 35.01719,22.7748 71.03895,44.0002 107.90821,63.6348 89.7525,47.8101 184.54696,86.1183 282.27536,114.2227 78.1984,22.5082 158.2648,38.5064 239.0996,47.8437 22.8767,2.6774 45.9014,3.7681 68.9082,4.5918 44.9821,1.4881 90.0057,1.3949 134.9981,0.4258 35.1371,-0.7998 70.2692,-2.1731 105.3281,-4.6895 16.52,-1.2277 33.0369,-2.6672 49.4492,-4.9453 15.4281,-2.2241 30.7881,-4.8925 46.1328,-7.625 85.9825,-15.5484 170.7286,-38.1741 252.7442,-68.3535 73.9517,-27.1872 145.6445,-60.529 214.0176,-99.6914 52.4386,-30.0256 102.9145,-63.4667 151.0957,-99.9316 51.4003,-38.8864 100.1711,-81.2219 146.1523,-126.3789 19.4857,-19.1672 38.5617,-38.7545 57.1152,-58.8262 24.1679,-26.1431 47.319,-53.234 69.1817,-81.3359 23.8356,-30.5449 46.1626,-62.2422 67.582,-94.5196 24.0795,-36.3517 46.6408,-73.7168 67.336,-112.0996 19.8953,-36.8598 38.0848,-74.64 54.4902,-113.1797 11.8351,-27.8115 22.8031,-55.9943 32.8027,-84.5176 8.9793,-25.7837 17.1357,-51.8454 24.9864,-77.9921 6.8701,-23.1063 13.4784,-46.2986 19.2695,-69.7012 1.7465,-7.0853 3.3141,-14.2128 4.75,-21.3672 1.9808,-9.207 7.7112,-17.3394 15.1074,-23.0488 20.2749,-15.342 40.6721,-30.5204 61.0332,-45.7481 17.4339,-13.0083 34.8673,-26.0208 51.9981,-39.4277 65.7006,-51.254 128.3891,-106.6444 184.7695,-168.0899 24.5672,-26.7705 47.9901,-54.6062 69.9004,-83.5957 35.7663,-47.5166 67.0069,-98.6425 90.8125,-153.2089 19.5786,-44.9284 34.0185,-92.2462 41.0566,-140.8008 5.951,-40.7915 6.535,-82.4247 0.961,-123.293 -4.8932,-36.1417 -14.6721,-71.6101 -28.918,-105.1816 -13.5095,-31.8723 -31.0285,-61.9993 -51.6406,-89.795 -31.9076,-43.0933 -71.1001,-80.4703 -114.0313,-112.4531 -51.9402,-38.6589 -109.5119,-69.2973 -169.3301,-93.8437 -55.9851,-22.9687 -113.9984,-40.7476 -172.7851,-54.9668 -19.0258,-4.679 -38.2149,-8.5971 -57.2735,-13.1172 -3.506,-0.8407 -7.0897,-1.7305 -10.4804,-2.6758 -4.5864,-1.3151 -9.2525,-2.5289 -13.5469,-4.6523 -0.9772,-0.603 -2.1878,-1.0731 -2.7656,-2.1231 -0.3477,-0.912 0.383,-1.7892 0.6211,-2.6445 5.2365,-13.1894 8.5901,-27.1172 10.9277,-41.1153 3.7565,-22.8386 4.9248,-46.0929 3.6445,-69.1992 -1.0441,-18.2793 -3.6754,-36.5833 -9.3906,-54.0254 -1.8592,-6.0634 -3.9611,-12.1052 -4.8398,-18.4101 -0.3356,-2.8476 0.1028,-5.9372 1.9824,-8.2051 2.5659,-3.3737 6.0836,-5.8228 9.3047,-8.5176 13.5446,-10.8227 26.0547,-22.8997 37.7754,-35.6621 9.7811,-10.7279 19.0989,-21.9166 27.3359,-33.8828 6.6152,-9.5917 12.014,-19.966 16.7832,-30.5801 10.3137,-23.1079 17.021,-47.7766 20.3359,-72.8476 3.4844,-26.5027 3.1705,-53.5874 -1.8105,-79.8809 -1.9872,-10.5241 -4.8768,-20.8623 -8.3867,-30.9766 -1.3342,-3.966 -2.6093,-7.8011 -3.6758,-11.8769 -1.0317,-4.0489 -2.101,-8.3753 -0.8633,-12.5059 0.9869,-3.116 3.3135,-5.5695 5.6328,-7.7754 5.4582,-4.917 11.4525,-9.187 17.1348,-13.8339 22.4188,-18.2202 41.6854,-40.3687 56.3144,-65.2969 14.9729,-25.4546 25.062,-53.7131 29.9922,-82.8145 3.7055,-21.8874 4.6984,-44.2402 2.9004,-66.3672 -2.4925,-30.3474 -10.646,-60.2545 -24.207,-87.5332 -14.5129,-29.2976 -35.1938,-55.4777 -60.1524,-76.5781 -26.182,-22.2009 -56.9419,-38.8293 -89.5957,-49.3105 -16.817,-5.3961 -34.124,-9.3178 -51.6562,-11.4864 -15.7751,-1.9029 -31.6646,-2.5795 -47.5313,-3.2226 -29.042,-1.078 -58.1025,-1.5065 -87.1601,-1.9395 -60.2796,-0.8065 -120.5643,-1.2124 -180.8477,-1.6211 -98.0171,-0.6346 -196.0345,-1.207 -294.0527,-1.6367 -73.758,-0.3163 -147.5171,-0.5545 -221.2754,-0.207 -33.4977,0.1826 -66.9976,0.507 -100.4844,1.418 -19.6485,0.5752 -39.3065,1.3184 -58.8906,3.0703 -11.5442,1.0621 -23.0815,2.5658 -34.3477,5.3574 -2.2771,0.5528 -4.9165,0.9747 -6.9765,-0.4434 -2.7648,-2.2782 -4.0059,-5.778 -5.3965,-8.9629 -6.5863,-15.3015 -13.5029,-30.4567 -20.3887,-45.625 -5.5373,-12.0962 -11.0276,-24.142 -16.1933,-36.3945 -11.8718,-27.7804 -23.2307,-55.7321 -34.3203,-83.834 -8.6604,-22.1594 -17.1857,-44.3725 -26.086,-66.4375 -6.4378,-16.0787 -12.9494,-32.1306 -19.8535,-48.0156 -3.6352,-8.2331 -7.7905,-16.2571 -10.7715,-24.7637 -0.86,-2.7423 -1.9067,-5.6407 -1.3437,-8.5488 0.5194,-2.0082 2.5513,-2.9673 4.3261,-3.6387 4.0327,-1.4107 8.3467,-1.8062 12.3594,-3.2949 11.3284,-3.9048 22.3212,-8.7114 33.25,-13.6055 14.5664,-6.5765 28.9693,-13.5301 43.0391,-21.1152 11.338,-6.1701 22.2483,-13.1786 32.2383,-21.3711 11.7032,-9.4985 22.4595,-20.0852 33.164,-30.6758 22.0927,-22.1617 41.9145,-46.7567 57.5196,-73.9336 14.247,-24.694 24.8574,-51.4545 31.6425,-79.1367 5.3688,-21.8237 8.5677,-44.1627 9.8828,-66.5918 2.1353,-38.5728 -2.2545,-77.52421 -13.1933,-114.58592 -13.3416,-45.36737 -36.4337,-87.82056 -67.1953,-123.73047 -28.4992,-33.34019 -63.5383,-61.08331 -102.5938,-81.05859 -36.6175,-18.78889 -76.7387,-30.69584 -117.6699,-34.98047 -19.5245,-2.07293 -39.2225,-2.41309 -58.8145,-1.16992 -7.7874,0.42586 -15.5832,0.94567 -23.4121,0.83594 -1.6184,-0.047 -3.2586,-0.11765 -4.7812,-0.25977 -4.2156,-0.37 -8.5331,-1.54135 -11.7949,-4.36133 -3.3475,-2.83631 -5.8452,-6.50094 -8.377,-10.04492 -3.1076,-4.54329 -6.1807,-9.11681 -9.625,-13.41602 -8.6963,-11.07975 -18.4382,-21.28964 -28.457,-31.17187 -14.5918,-14.27787 -30.0475,-27.69508 -46.4414,-39.86914 -8.3252,-6.13582 -17.0219,-11.77105 -26.084,-16.75781 -36.6162,-20.56929 -77.0792,-34.25103 -118.6641,-40.12891 -16.7872,-2.37555 -33.7473,-3.49489 -50.7011,-3.36719 z m 4.1972,184.85352 c 5.7869,0.003 11.6096,0.0552 17.336,0.2832 8.6701,0.36319 17.3953,1.26516 25.7109,3.86328 7.0379,2.13499 13.7314,5.23453 20.3477,8.41211 3.6617,1.78877 7.2719,3.68626 10.8144,5.70117 8.6427,4.92337 17.0329,10.65304 24.6524,17.1543 13.757,11.61731 25.1997,25.88398 33.8964,41.63281 6.9667,12.51796 12.2344,25.90977 16.4864,39.57032 4.3362,13.33276 9.4935,26.58359 17.4082,38.24218 6.0341,8.80054 13.9557,16.29385 23.1015,21.79492 6.6508,4.07127 13.6619,7.56718 20.9199,10.41797 10.3585,4.00966 21.4758,6.36735 32.6192,5.86133 12.0709,-0.47811 23.8147,-4.26442 34.4805,-9.80664 5.6874,-2.89731 11.0444,-6.38097 16.33,-9.94531 2.7613,-1.83381 5.6585,-3.49637 8.5352,-5.00586 2.1908,-1.15254 4.4451,-2.25798 6.6289,-3.24219 6.4881,-2.88348 13.2169,-5.36375 20.2207,-6.63867 6.0251,-1.02798 12.1662,-1.18015 18.2656,-1.06055 4.0128,0.0989 7.8842,0.37061 11.8926,0.7793 3.064,0.3088 6.2606,0.71015 9.377,1.17969 1.6498,0.25842 3.5671,0.56562 5.2011,0.86133 10.7521,1.92973 21.3598,4.75233 31.5625,8.66992 1.2302,0.47817 2.6683,1.07447 3.9629,1.63867 7.0545,3.04488 13.6625,7.02724 19.918,11.4707 10.79,7.6589 20.6142,16.62288 29.6367,26.28516 8.3957,9.07501 16.1033,18.84586 22.4199,29.49023 3.3766,5.76916 6.2522,11.8211 8.8575,17.97266 0.6144,1.487 1.1919,2.98734 1.705,4.42383 2.0567,5.60861 3.3481,11.47481 4.002,17.40821 0.4583,3.9283 0.7075,7.7244 0.8691,11.6973 0.3177,8.1722 0.3087,16.5159 0.3067,24.7578 -0.01,4.0687 -0.064,8.1376 -0.1661,12.205 -0.059,1.6507 -0.1109,3.5188 -0.1894,5.254 -0.2971,7.4505 -1.017,14.9189 -2.791,22.1757 -0.1863,0.7609 -0.4602,1.8109 -0.707,2.6739 -2.252,7.7969 -5.5853,15.0881 -9.1348,22.3886 -0.8439,1.6753 -1.7012,3.3124 -2.5762,4.8907 -2.4242,4.4068 -5.1595,8.7938 -7.9707,12.8632 -11.1403,16.0621 -25.2673,30.0192 -41.3125,41.1661 -2.2859,1.5795 -4.5733,3.0678 -6.8867,4.5 -1.0541,0.6467 -2.3279,1.4129 -3.4785,2.0839 -8.5254,4.9551 -17.7041,9.2064 -27.1153,12.4454 -2.8199,0.9839 -5.8878,1.9307 -8.8535,2.7558 -8.1597,2.2628 -16.5118,3.8364 -24.9394,4.6641 -1.5771,0.1488 -3.3685,0.3052 -5.0352,0.4043 -13.8596,0.898 -28.0594,-0.2111 -41.6992,-3.2657 -9.1157,-2.0254 -18.0359,-4.907 -26.6445,-8.5214 -1.3937,-0.5893 -2.9816,-1.2774 -4.4356,-1.9453 -5.508,-2.5082 -10.8047,-5.2887 -16.0332,-8.3887 -8.2575,-4.9365 -16.3195,-10.5858 -23.7051,-16.8692 -9.0423,-7.643 -16.9769,-16.8478 -23.4433,-26.8437 -6.666,-10.2538 -12.1025,-21.2172 -17.2051,-32.2832 -6.573,-14.6778 -15.3871,-28.3897 -26.2949,-40.2246 -6.5757,-7.0787 -13.9457,-13.5214 -22.3086,-18.4102 -5.1307,-2.998 -10.7114,-5.2858 -16.5742,-6.3496 -8.1931,-1.5651 -16.5683,-1.9531 -24.8946,-1.8633 -9.2822,0.1669 -18.5865,1.0328 -27.6523,3.0821 -5.4915,1.2256 -10.8021,3.2704 -15.6524,6.1289 -7.9907,4.4857 -15.5345,9.8383 -22.1191,16.2285 -2.2863,2.0819 -4.643,4.2788 -7.5937,5.3574 -3.7427,1.1692 -7.7041,0.2777 -11.4336,-0.4863 -1.7985,-0.4018 -3.578,-0.8313 -5.2891,-1.2754 -8.443,-2.2194 -16.8139,-4.7061 -25.2988,-6.7676 -19.0933,-4.6771 -38.3255,-8.7965 -57.6817,-12.2324 -5.0052,-0.9109 -10.0342,-1.8373 -14.9336,-2.9863 -6.2716,-1.5279 -12.6799,-3.1571 -18.1621,-6.7032 -5.5486,-3.4194 -9.2679,-8.9076 -13.7402,-13.5039 -11.2645,-11.345 -25.8789,-19.1107 -41.3496,-22.9336 -17.0997,-4.24745 -35.4891,-3.84188 -52.1621,2.0293 -5.2598,1.8163 -10.26027,4.2906 -15.09182,7.0352 -8.68749,4.8374 -17.10059,10.1563 -25.35938,15.6894 -6.56253,4.512 -12.9402,9.3234 -19.90625,13.2149 -3.57941,2.0565 -7.25944,3.936 -10.99804,5.6855 -0.81755,0.3623 -1.8837,0.8651 -2.8086,1.2598 -15.08424,6.6229 -31.26974,10.6974 -47.67578,12.1445 -1.1508,0.085 -2.5511,0.2207 -3.80273,0.2871 -29.40724,1.8998 -59.37693,-4.6347 -85.13672,-19.0039 -14.36663,-8.0062 -27.33577,-18.4311 -38.57031,-30.4218 -3.27231,-3.5144 -6.37973,-7.1828 -9.31836,-10.98052 -0.91259,-1.19939 -1.95998,-2.57601 -2.89063,-3.87109 -4.0196,-5.54532 -7.65585,-11.36652 -10.90625,-17.39453 -0.53657,-1.01914 -1.19674,-2.26551 -1.75781,-3.38281 -3.98763,-7.89549 -7.26581,-16.14698 -9.8125,-24.61719 -0.26835,-0.9203 -0.6217,-2.10435 -0.89844,-3.13477 -1.52305,-5.49583 -2.72039,-11.07996 -3.62109,-16.71093 -0.19636,-1.29539 -0.42587,-2.83147 -0.60547,-4.22266 -0.25695,-2.01363 -0.47195,-3.88172 -0.65234,-5.92578 -1.99346,-21.74724 0.76135,-43.89994 7.91796,-64.52734 0.23708,-0.65134 0.5671,-1.58856 0.83985,-2.34961 0.40009,-1.07624 0.88266,-2.39685 1.34765,-3.55469 5.22506,-13.34135 12.33305,-25.93392 21.01563,-37.33008 0.79665,-1.03525 1.74715,-2.2584 2.62305,-3.34961 12.19191,-15.1302 27.24583,-27.90552 44.00976,-37.70898 1.11775,-0.64217 2.44223,-1.40721 3.6543,-2.07227 8.16748,-4.48373 16.654,-8.41222 25.43359,-11.54102 2.94818,-1.00873 5.95383,-1.84681 8.99024,-2.54492 0.68073,-0.14232 1.66749,-0.36872 2.4707,-0.51953 0.73759,-0.15565 1.593,-0.29429 2.28125,-0.42773 4.33142,-0.7675 8.85246,-1.16728 13.1543,-1.43946 9.81922,-0.57976 19.66185,-0.58024 29.49414,-0.4707 10.07543,0.15268 20.30581,0.61188 30.14843,3.16992 6.4231,1.69287 12.67981,4.20705 18.65039,6.94727 9.26697,4.26314 18.38391,9.21117 27.16797,14.51172 6.43281,3.86527 12.71754,7.99455 18.63477,12.61719 10.87687,8.17483 23.13639,14.67402 36.33204,18.1582 9.9994,2.69544 20.4352,3.70772 30.7715,3.19531 9.5234,-0.46797 18.9877,-2.63835 27.6386,-6.68164 11.2086,-5.1439 20.9873,-12.9251 29.7637,-21.49805 5.2641,-5.20786 10.3111,-10.6486 15.9649,-15.45117 7.1394,-6.17015 14.943,-11.61426 23.4004,-15.82422 0.404,-0.18982 1.0047,-0.49891 1.4707,-0.71484 1.7195,-0.81761 3.7102,-1.68742 5.4609,-2.37891 15.1223,-6.10604 31.496,-8.26387 47.6934,-8.92187 4.4503,-0.17917 8.9636,-0.24624 13.4804,-0.25586 z M 1038.6426,1224.084 c 30.9388,0.1195 61.8816,3.7559 92.2969,9.6172 18.1058,3.5134 36.2009,7.8708 53.9277,12.9648 27.4366,7.8914 54.3413,17.5364 80.4883,29.0371 22.1305,9.7363 43.7209,20.8389 64.3379,33.5332 3.4213,2.0993 6.9011,4.3141 10.2402,6.4981 17.365,11.3751 33.8837,24.1187 48.7422,38.6406 8.4518,8.2274 16.4144,17.0572 23.7851,26.2051 18.2637,22.6882 33.2713,47.8097 46.545,73.6816 13.2479,25.887 24.9382,52.6484 35.9121,79.6504 6.2896,15.4954 12.3446,31.1251 18.2636,46.791 5.4343,14.4146 11.0449,28.7618 16.8496,43.0313 8.1549,20.0841 16.5546,40.0693 25.2813,59.9121 7.6641,17.2626 15.6868,34.3113 23.3145,51.5879 3.5764,8.1241 7.1523,16.2512 10.4804,24.4804 0.684,1.9533 1.7503,3.9358 1.4903,6.0664 -0.4245,2.9793 -2.7368,5.1352 -4.7598,7.1543 -3.4893,3.231 -7.4036,5.9601 -11.2813,8.6973 -8.5114,5.89 -17.3002,11.3058 -25.8359,17.1973 -21.5122,14.8034 -42.046,31.0302 -61.3652,48.6015 -44.805,40.6612 -83.1071,88.4197 -113.3594,140.8047 -30.3527,52.4859 -52.641,109.576 -66.3242,168.627 -2.675,11.6039 -5.1401,23.2653 -6.9942,35.0312 -3.2139,21.0176 -4.7129,42.2612 -5.4492,63.4981 -0.9229,28.8903 -0.3086,57.8367 2.0059,86.6504 1.6772,20.5913 4.2525,41.1486 8.7539,61.3281 9.236,42.3741 22.9561,83.7589 40.7226,123.3184 20.2456,45.052 45.7266,87.7848 76.0977,126.75 26.4998,33.9407 56.7065,65.0705 90.4551,91.8535 6.4915,5.199 13.173,10.1533 19.8476,15.0644 4.4208,3.285 8.9208,6.5179 12.8633,10.3809 0.4689,0.5717 1.1894,1.1339 1.1758,1.9316 -1.2728,0.8891 -2.9078,1.017 -4.3926,1.3399 -3.9199,0.6984 -7.7872,1.0072 -11.7793,1.4121 -10.3671,1.0362 -20.7654,1.1694 -31.1523,1.4551 -28.5585,0.6155 -57.1236,0.8664 -85.6875,1.08 -62.0546,0.3961 -124.1123,0.4676 -186.168,0.3692 -63.8867,-0.1338 -127.7723,-0.4138 -191.6562,-1.0528 -29.6017,-0.3164 -59.2041,-0.7082 -88.80083,-1.3457 -14.70118,-0.3339 -29.36912,-0.833 -44.0664,-1.6504 -18.66031,-0.9639 -37.3085,-2.1574 -55.91797,-3.8906 -6.60118,-0.6129 -13.20376,-1.3003 -19.79883,-2.0664 -10.19056,-1.1938 -20.46902,-2.6314 -30.63281,-4.4512 -13.86555,-2.5002 -27.75682,-5.716 -41.08985,-10.4843 -8.28014,-2.9637 -16.29664,-6.6766 -23.83398,-11.2149 -9.98285,-5.9332 -19.38884,-12.7653 -28.7793,-19.5801 -17.65809,-12.8949 -34.94798,-26.283 -52.32812,-39.5468 -9.50358,-7.1508 -20.07417,-12.7443 -30.8711,-17.666 -13.52728,-6.1008 -27.57442,-11.1554 -42.06836,-14.4063 -6.38046,-1.4289 -12.89465,-2.3258 -19.4414,-2.3301 -3.44744,-0.1914 -7.20309,-0.9724 -9.62305,-3.6347 -1.65385,-2.053 -1.86135,-4.7924 -2.73047,-7.1993 -8.68727,-29.5151 -17.07698,-59.1561 -24.94141,-88.9199 -7.47131,-28.3567 -14.50238,-56.9187 -20.79492,-85.5605 -8.77593,-39.95 -16.11207,-80.2285 -21.51172,-120.7774 -4.39553,-32.92 -7.48494,-66.1066 -9.38867,-99.3418 -0.84067,-14.6214 -1.4666,-29.379 -1.86523,-44.0175 -1.11883,-40.1586 -0.78581,-80.391 0.4707,-120.5157 0.68038,-20.6653 1.72188,-41.2838 3.17578,-61.9043 2.63881,-37.3812 6.64571,-74.6799 12.27735,-111.7929 4.91253,-32.5362 11.06221,-64.8825 18.29101,-96.9825 7.77358,-34.4089 16.74764,-68.615 26.74414,-102.4882 8.8808,-29.9851 18.94348,-59.5934 31.22266,-88.3692 10.4288,-24.5141 22.66094,-48.4652 36.39258,-71.4199 9.60666,-16.1426 20.01749,-31.9037 30.84961,-47.3106 8.37737,-11.8813 17.02442,-23.7145 26.04297,-35.1738 10.60383,-13.4215 21.81542,-26.5219 33.39062,-39.123 4.12631,-4.481 8.30466,-8.9391 12.5,-13.2871 18.49872,-19.2147 38.12111,-37.6527 58.43945,-55.0489 10.94316,-9.3681 22.08366,-18.4277 33.48438,-27.207 10.36844,-7.9904 21.05065,-15.8306 31.83008,-23.3223 27.39191,-18.9936 55.94811,-36.3351 86.05078,-50.7109 18.31538,-8.7037 37.20371,-16.3161 56.75976,-21.752 3.76604,-1.0498 7.80853,-2.0626 11.7461,-2.8964 2.13985,-0.4657 4.35413,-0.9091 6.41601,-1.2852 1.87017,-0.3489 3.56389,-0.6396 5.45313,-0.9453 2.39225,-0.386 5.13576,-0.7732 7.54297,-1.0938 13.83394,-1.7817 27.78954,-2.4825 41.73244,-2.4765 z m -644.44924,276.3105 c 4.85013,0.035 9.71667,-5e-4 14.54102,0.5703 0.19814,0.4507 0.82861,0.8274 0.38085,1.3301 -6.03817,14.0533 -12.56518,27.8893 -19.00781,41.7598 -2.98583,6.3533 -5.93419,12.7391 -9.37304,18.8633 -1.27572,2.1658 -2.59501,4.4204 -4.59376,5.998 -0.71494,0.4862 -1.57263,0.1107 -2.09179,-0.4746 -1.70113,-1.6661 -2.72652,-3.8737 -3.82422,-5.9531 -3.4383,-7.0118 -6.23122,-14.3134 -9.17383,-21.541 -3.45598,-8.6245 -7.06703,-17.1995 -10.04297,-26.0059 -0.80004,-2.6032 -1.70907,-5.2627 -1.6582,-8.0176 -0.0284,-1.0374 0.59452,-1.9707 1.55078,-2.3633 1.84797,-0.8808 3.91935,-1.1195 5.89649,-1.5781 3.86817,-0.743 7.85557,-1.2006 11.70312,-1.5039 4.091,-0.3236 8.14272,-0.5745 12.26953,-0.7558 4.49995,-0.1979 8.89856,-0.2859 13.42383,-0.3282 z m 506.3457,46.4004 c -20.05043,0.2395 -39.98739,7.1915 -55.72461,19.6426 -13.93914,10.9485 -24.55282,26.0012 -30.47656,42.6855 -4.45149,12.6549 -5.69221,26.3668 -3.91016,39.6465 2.08081,15.9833 8.01697,31.2265 15.62305,45.3516 7.87028,14.5883 17.47002,28.1916 27.95117,41.0117 15.97921,19.0767 35.31715,35.1387 56.125,48.6934 18.15794,11.7432 37.63965,21.5298 58.13672,28.4746 8.5314,2.8467 17.23968,5.2448 26.14063,6.6054 9.916,1.5537 19.917,2.5141 29.9238,3.25 24.8011,1.7492 49.9,0.976 74.3262,-3.9062 20.7161,-4.0651 40.8313,-11.2073 59.4219,-21.2188 16.3207,-8.7436 31.4498,-19.6038 45.3711,-31.7871 11.7752,-10.3158 22.782,-21.5094 32.9511,-33.4101 12.1262,-14.2537 22.9982,-29.7277 30.9532,-46.7149 6.2032,-13.2953 10.547,-27.6747 11.0019,-42.416 0.5325,-18.3304 -4.6433,-36.7524 -14.5371,-52.1836 -10.1038,-15.8737 -25.2049,-28.6199 -42.793,-35.416 -10.1971,-4.0138 -21.1876,-5.7797 -32.1211,-5.7676 -13.1058,-0.076 -26.2639,2.5846 -38.1679,8.1133 -14.3839,6.6269 -26.654,17.2495 -36.459,29.5879 -4.731,5.9039 -8.8475,12.2662 -12.7051,18.7656 -1.3605,2.2977 -2.8851,4.4951 -4.4863,6.6309 -0.3722,0.4777 -0.9415,1.22 -1.4004,1.7891 -7.7634,9.6817 -17.9989,17.4926 -29.6875,21.7851 -10.786,4.0114 -22.6955,4.9168 -33.9609,2.5586 -8.8044,-1.8235 -17.2013,-5.4941 -24.6485,-10.5137 -5.7049,-3.9382 -10.3555,-9.1739 -14.48045,-14.6972 -1.85865,-2.4581 -3.69024,-5.1257 -5.34766,-7.6075 -3.6412,-5.5094 -7.07862,-11.0577 -10.48242,-16.7148 -6.32501,-10.5312 -14.81461,-19.7962 -24.9414,-26.7754 -15.00648,-10.4183 -33.36381,-15.7432 -51.59571,-15.4629 z m 1130.43364,333.25 c 116.1216,0.026 232.2436,0.3049 348.3632,1.0117 71.6375,0.4387 143.2744,0.9835 214.9082,1.8418 34.4053,0.3992 68.808,1.0428 103.2071,1.8047 21.2163,0.4563 42.4009,0.938 63.5918,1.8086 5.8169,0.268 11.661,0.5307 17.414,0.9571 4.2612,0.3092 8.553,0.7057 12.7403,1.2363 0.4404,0.069 1.2544,0.1802 1.8379,0.2656 5.4178,0.7985 10.9707,2.0417 15.5214,5.25 5.1451,3.5855 9.8836,7.7637 14.0879,12.418 8.3602,9.2523 14.5377,20.5874 17.1309,32.8242 0.1526,0.7221 0.3549,1.7463 0.498,2.5898 1.1425,6.7247 1.2138,13.6366 0.1387,20.375 -0.086,0.5248 -0.2348,1.392 -0.3652,2.043 -2.0171,10.4304 -6.9688,20.2357 -14.0293,28.1602 -0.6368,0.7086 -1.462,1.6054 -2.2071,2.3554 -3.2911,3.3501 -7.1285,6.418 -10.9511,8.9258 -4.3848,2.8335 -9.0045,5.3531 -13.8946,7.2012 -3.9208,1.4167 -8.0267,2.2446 -12.1503,2.8008 -1.3689,0.1891 -2.974,0.373 -4.4395,0.5156 -1.9411,0.198 -3.7487,0.3144 -5.748,0.4531 -1.1876,0.066 -2.6261,0.1506 -3.9122,0.2051 -3.4406,0.1502 -6.8651,0.2776 -10.2558,0.3594 -27.5812,0.696 -55.2008,-0.1535 -82.7559,1.4922 -10.6526,0.7217 -21.3481,1.7675 -31.7187,4.4101 -8.3058,2.1353 -16.3694,5.5323 -23.2656,10.6895 -6.7537,4.9282 -12.4405,11.1364 -17.7344,17.5644 -8.5483,10.4705 -14.7173,22.8563 -17.9395,35.9824 -5.5219,22.1669 -2.7218,46.3979 8.1953,66.5137 4.5038,8.3749 10.4021,15.9772 17.3145,22.502 8.3278,8.0824 18.132,14.7403 29.0058,18.8808 11.4297,4.4484 23.6029,6.5118 35.7266,7.9883 4.8496,0.6062 9.6904,1.3751 14.3965,2.543 5.5555,1.3412 11.0119,3.1443 16.1934,5.5664 1.1132,0.5208 2.4344,1.1761 3.5976,1.8086 3.363,1.8123 6.5692,3.9211 9.5371,6.3281 0.3039,0.2621 0.9422,0.7862 1.3731,1.1504 7.8153,6.7721 14.0234,15.5093 17.4043,25.3105 0.2669,0.776 0.4376,1.3099 0.6836,2.1114 3.6498,12.1924 3.3757,25.3627 0.1777,37.6211 -0.2618,0.9979 -0.6084,2.2424 -0.9492,3.3242 -3.975,12.8338 -11.3985,24.8356 -22.0899,33.125 -5.4181,4.2163 -11.7189,7.4404 -18.5136,8.666 -2.8801,0.5776 -5.8136,0.9356 -8.6719,1.1699 -2.4604,0.2089 -4.9265,0.3441 -7.3926,0.4649 -0.8621,0.031 -2.0623,0.076 -2.9922,0.1015 -16.6361,0.4867 -33.279,0.057 -49.916,-0.1543 -18.4709,-0.2558 -36.9765,-0.5102 -55.4121,0.875 -11.1997,0.906 -22.4911,2.4997 -33.0274,6.5684 -7.929,3.0381 -15.1529,7.7465 -21.4121,13.459 -5.6347,5.1456 -10.7762,10.8249 -15.4765,16.832 -8.5729,11.1505 -14.8094,24.2383 -17.1875,38.1504 -2.5006,14.43 -0.8028,29.428 4.0781,43.1875 3.7421,10.7349 9.1026,20.9357 16.0234,29.9648 7.4347,9.6416 16.8834,17.7308 27.6153,23.4922 12.4447,6.7454 26.3483,10.4198 40.3515,12.0606 4.4651,0.4783 9.0538,1.2404 13.3399,2.2187 12.1269,2.7856 23.9585,7.7746 33.5488,15.8281 2.1543,1.8047 4.29,3.8796 6.0918,5.9024 3.7606,4.1832 6.8792,8.9431 9.1875,14.0742 0.1935,0.4256 0.5251,1.1915 0.7539,1.75 2.3104,5.6121 3.6605,11.7837 4.1055,17.7168 0.106,1.4628 0.1623,2.7175 0.1797,4.1855 0.084,9.1902 -1.6957,18.3345 -4.6778,27.0059 -0.5163,1.5113 -1.1521,3.2112 -1.7773,4.7715 -1.4606,3.6519 -3.2064,7.3915 -5.0723,10.9355 -2.9696,5.4767 -6.0745,10.8971 -8.5215,16.6368 -5.1998,11.7815 -8.676,24.3471 -9.9609,37.1718 -0.4136,3.5791 -0.7853,7.1821 -1.332,10.6797 -0.7509,4.5972 -1.6679,9.2406 -3.6055,13.5039 -1.2821,2.7827 -3.4585,5.4612 -6.582,6.1602 -3.8903,0.8894 -7.8645,-0.2798 -11.5547,-1.4785 -7.2588,-2.4667 -13.9791,-6.2254 -21.0899,-9.0586 -24.5062,-10.2979 -50.6417,-17.2829 -77.2832,-18.418 -19.8318,-0.8081 -39.9708,1.7679 -58.5351,8.9766 -7.5118,2.8718 -14.6667,6.587 -21.5996,10.6445 -10.8001,6.2743 -21.2539,13.1626 -31.1778,20.75 -5.9864,4.7278 -11.7362,9.7587 -17.9375,14.2109 -12.7617,9.3761 -26.601,17.3875 -41.2539,23.543 -9.1093,3.7968 -18.5968,6.9538 -28.2109,9.4043 -4.222,1.0527 -8.6092,2.0932 -12.9746,2.75 -0.7384,0.1096 -1.7813,0.2582 -2.6367,0.3828 -1.1662,0.1535 -2.6174,0.3473 -3.8086,0.4883 -13.4353,1.543 -26.9832,2.3634 -40.4551,3.1191 -31.4478,1.6475 -62.9044,2.5087 -94.3828,3.2442 -27.9872,0.6114 -55.9763,1.1204 -83.9668,1.5605 -16.3857,0.2213 -32.7791,0.4099 -49.1621,-0.062 -7.5389,-0.2954 -15.1407,-0.5679 -22.5332,-2.1972 -3.4072,-0.795 -7.0788,-2.0762 -9.0957,-5.1329 -2.0198,-3.139 -2.5802,-6.9077 -3.8653,-10.3574 -6.1941,-18.3039 -18.5732,-34.3478 -34.4258,-45.3418 -15.5852,-10.9055 -34.3107,-17.095 -53.2734,-18.1347 -4.2996,-0.2474 -8.6786,-0.1817 -12.914,-0.3809 -10.2548,-0.4326 -20.5125,-1.5308 -30.7442,-2.8789 -16.3793,-2.2049 -32.8355,-5.1347 -49.0312,-8.7461 -8.8823,-1.9983 -17.7094,-4.244 -26.4512,-6.7891 -0.7762,-0.2439 -1.8339,-0.5558 -2.7188,-0.8359 -5.2608,-1.637 -10.47,-3.431 -15.5683,-5.3184 -22.7068,-8.4214 -44.6789,-18.8317 -65.5332,-31.1484 -7.7457,-4.553 -15.4174,-9.4401 -22.791,-14.4551 -23.8743,-16.26 -46.1661,-35.1358 -66.2012,-56.0371 -8.011,-8.3564 -15.7589,-17.1395 -23.0567,-26.1328 -10.1796,-12.5505 -19.7295,-25.8042 -28.3964,-39.4434 -8.0148,-12.601 -15.3618,-25.6513 -21.9727,-39.0097 -8.1796,-16.5173 -15.2982,-33.6365 -21.2207,-51.0449 -3.9988,-11.8191 -7.5461,-23.7997 -10.4121,-35.9454 -1.4804,-6.4905 -2.5893,-13.0633 -3.3711,-19.6738 -0.6942,-5.9865 -1.1124,-12.2495 -1.4082,-18.291 -0.5874,-12.4496 -0.6448,-24.9795 -0.7012,-37.4844 -0.01,-17.7877 0.033,-35.5778 0.334,-53.3633 0.1245,-6.135 0.2821,-12.1639 0.6094,-18.2949 0.1954,-3.5922 0.4558,-7.351 0.7988,-10.9199 0.7005,-7.9731 2.1335,-16.0055 4.0977,-23.6777 1.313,-5.1085 2.8953,-10.1296 4.457,-15.0899 6.5514,-20.5656 14.2761,-40.7696 23.4199,-60.3261 5.1289,-11.0029 10.6902,-21.8025 16.666,-32.3692 11.1535,-19.6794 23.8848,-38.6636 38.0586,-56.3789 3.5317,-4.4314 7.182,-8.7979 10.8653,-13.0332 24.3045,-27.9596 52.4885,-52.5684 83.6289,-72.6523 6.1215,-3.9619 12.4518,-7.7877 18.7285,-11.3711 6.2729,-3.5642 12.642,-6.9583 19.0957,-10.1836 20.3035,-10.1171 41.6104,-18.5721 63.3808,-25.1602 13.7501,-4.1637 27.7908,-7.7214 41.9434,-10.4199 13.3247,-2.3744 26.8936,-3.1042 40.3555,-3.7598 23.1525,-0.9862 46.3665,-1.2777 69.5683,-1.5312 37.7735,-0.3689 75.5493,-0.3936 113.3243,-0.4395 z M 549.74609,2796.8164 c 6.11673,0.2751 11.72789,3.1031 16.90821,6.1484 2.42684,1.4439 4.82911,2.9936 7.09765,4.545 10.58542,7.2436 20.32774,15.6091 30.47071,23.4394 10.75626,8.2084 21.97016,15.8119 33.46875,22.9395 19.05271,11.7505 38.93631,22.1654 59.48632,31.0449 15.61177,6.6953 31.6548,12.4673 48.15039,16.5742 11.56108,2.8822 23.16218,5.646 34.91016,7.6641 18.30665,3.2372 36.84796,4.9074 55.38281,6.1601 25.82617,1.6465 51.69625,2.4381 77.56446,3.0625 39.92173,0.9016 79.85302,1.2678 119.78325,1.5528 55.1387,0.3666 110.28,0.4422 165.4199,0.5078 114.9374,0.075 229.8752,-0.1013 344.8125,-0.25 98.4304,-0.1429 196.861,-0.3146 295.291,-0.6348 85.9742,-0.2785 171.9482,-0.6278 257.9199,-1.3555 40.1877,-0.3541 80.3751,-0.7734 120.5567,-1.5742 16.3645,-0.3617 32.7322,-0.7312 49.08,-1.5781 4.8335,-0.2705 9.6595,-0.6978 14.4434,-1.4512 29.2652,-4.256 58.0978,-11.5234 85.8652,-21.7031 20.9882,-7.7138 41.389,-17.1381 60.5235,-28.7363 12.159,-7.3764 23.7467,-15.7245 34.3789,-25.1797 5.8662,-5.0597 11.7551,-10.2078 18.5117,-14.0625 4.4086,-2.4441 9.5287,-3.9027 14.5898,-3.2051 6.7953,0.7964 13.0732,3.7348 19.2364,6.5293 9.6189,4.4873 19.1308,9.3043 27.9453,15.2461 8.4308,5.7227 16.0297,12.6256 22.7129,20.3086 9.1227,10.3859 16.9934,21.7846 24.666,33.2598 13.4057,20.2096 26.1785,40.8355 38.4863,61.7304 28.2447,48.0735 53.5936,97.8579 75.6445,149.0723 8.2551,19.2108 16.1199,38.7487 23.4317,58.3437 14.6582,39.252 27.3627,79.2097 38.0293,119.7461 9,34.1628 16.5448,68.8018 22.6015,103.6426 3.5421,20.3563 6.5751,40.8242 9.1153,61.3613 2.794,22.6589 4.9885,45.4595 6.5488,68.209 1.6047,22.9276 2.4776,45.8967 3.0352,68.8828 0.1225,6.3085 0.1601,12.6637 -0.1016,18.9122 -0.091,2.2078 -0.2105,4.4256 -0.3984,6.5488 -0.7335,8.5518 -2.5268,17.2541 -7.0547,24.6621 -4.8605,7.989 -12.0537,14.1886 -19.3985,19.8223 -8.2065,6.2681 -16.923,12.0524 -25.5371,17.832 -31.4676,21.0414 -63.3863,41.3678 -95.7851,60.9707 -79.2613,47.9882 -161.017,91.8639 -244.3301,132.4531 -92.2893,44.9289 -186.5243,85.7951 -282.1016,123.1856 -96.015,37.553 -193.3783,71.5583 -291.7969,102.3203 -86.5474,27.0412 -173.9264,51.5373 -261.9277,73.4843 -46.9623,11.7154 -94.1718,22.7086 -141.5117,32.9532 -70.1766,15.1773 -140.7839,28.7251 -211.6387,40.5136 -59.9142,9.9687 -120.0188,18.6696 -180.3125,26.0118 -47.85196,5.8181 -95.82749,10.7878 -143.88084,14.8027 -46.27851,3.8647 -92.66157,6.893 -139.07617,8.8828 -50.32872,2.1241 -100.72537,2.8655 -151.11133,2.4375 -38.37744,-0.3447 -76.71854,-1.3842 -115.03711,-3.4902 -14.51384,-0.8198 -29.13878,-1.7835 -43.62695,-3.0156 -13.38125,-1.15 -26.74842,-2.4988 -40.07227,-4.1915 -4.79285,-0.6733 -9.69971,-1.7357 -13.75585,-4.5175 -3.99332,-2.6353 -7.02436,-6.436 -9.79883,-10.2735 -0.45927,-0.6437 -1.07585,-1.5432 -1.52539,-2.2324 -5.70617,-8.7619 -10.51508,-18.0663 -15.29297,-27.3555 -8.81593,-17.4105 -17.36499,-34.9544 -25.94336,-52.4824 -14.9354,-30.3643 -28.65033,-61.3271 -41.16602,-92.7656 -19.34799,-48.653 -35.80223,-98.5355 -49.20703,-149.2227 -5.33946,-20.2092 -10.20076,-40.5726 -14.55859,-61.0605 -3.15236,-14.8468 -6.06917,-29.8692 -8.6836,-44.8242 -3.59757,-20.5857 -6.67165,-41.2211 -9.20898,-61.9492 -2.52115,-20.5816 -4.51737,-41.3339 -5.92969,-61.9981 -0.74944,-10.9563 -1.3481,-21.86 -1.76172,-32.8418 -0.16077,-7.1463 -0.35235,-14.4727 1.78321,-21.3789 1.38294,-4.2285 4.20285,-8.0101 8.03906,-10.3105 5.45148,-3.4322 11.85057,-4.8605 18.10742,-6.0157 4.67152,-0.8226 9.38804,-1.3599 14.11133,-1.7793 1.16012,-0.087 2.60328,-0.2135 3.80273,-0.3007 9.60235,-0.7144 19.24541,-1.0305 28.83203,-1.254 25.46216,-0.5106 50.93065,-0.4051 76.39649,-0.4355 32.47977,-0.036 64.96106,0.061 97.43945,-0.2969 13.41542,-0.1576 26.84036,-0.3665 40.22656,-1.3242 6.65624,-0.5881 13.44219,-1.2229 19.70704,-3.707 4.21981,-1.7616 7.961,-4.4566 11.65429,-7.1114 8.99344,-6.5011 17.1787,-14.4325 22.66992,-24.1621 5.63441,-9.929 8.20567,-21.3568 8.67774,-32.6953 0.46595,-12.8251 -2.6649,-25.7851 -9.13867,-36.8828 -6.28947,-10.8858 -15.53049,-19.9808 -26.34571,-26.3574 -4.98797,-2.9749 -10.21809,-5.699 -15.90039,-7.0625 -7.31364,-1.8375 -14.87956,-2.2716 -22.37695,-2.7539 -14.22911,-0.7636 -28.48253,-0.8824 -42.72852,-1.0293 -44.13772,-0.3428 -88.27595,-0.1079 -132.41406,-0.3438 -12.3378,-0.081 -24.76077,-0.2112 -37.04101,-0.5957 -6.16529,-0.2012 -12.32851,-0.4905 -18.48047,-0.9472 -2.01328,-0.1624 -4.23012,-0.3615 -6.22461,-0.5957 -5.65784,-0.7107 -11.41299,-1.446 -16.72266,-3.6368 -2.88749,-1.1756 -5.55847,-3.0794 -7.16015,-5.8046 -1.5983,-2.6866 -2.26859,-5.7959 -2.94141,-8.8145 -1.22369,-6.2833 -2.37112,-12.5933 -2.91211,-18.9785 -0.15432,-1.7902 -0.29669,-3.8152 -0.38086,-5.7012 -0.0619,-1.4478 -0.11561,-3.1581 -0.12109,-4.7109 -0.0525,-7.085 0.58311,-14.2127 1.3789,-21.1973 0.1872,-1.4915 0.39296,-3.2479 0.59571,-4.7324 1.66359,-12.4328 3.81527,-24.6885 6.22656,-37.0098 3.62708,-18.3501 7.63189,-36.7499 11.78906,-55.0351 4.21332,-18.4591 8.62549,-36.8237 13.39063,-55.1328 2.26197,-8.4916 4.51121,-17.0015 7.39648,-25.3067 0.62507,-1.7355 1.34279,-3.6746 3.10938,-4.5488 2.51039,-1.3786 5.41311,-1.7381 8.19336,-2.2266 5.94362,-0.8948 12.11696,-1.1868 18.1914,-1.5039 20.84877,-0.9243 41.76817,-0.9756 62.66992,-1.1543 39.60981,-0.2351 79.21977,-0.1786 118.83008,-0.207 56.76898,-0.03 113.53945,0.05 170.30664,-0.4766 19.89566,-0.2367 39.7986,-0.494 59.67188,-1.5215 7.46561,-0.4435 14.9527,-0.9562 22.32226,-2.2812 4.48519,-0.8394 8.88966,-2.2575 12.85547,-4.543 10.45335,-5.4921 19.35699,-14.0412 24.86719,-24.5215 5.66128,-10.6133 8.19731,-22.632 8.91601,-34.5644 0.69757,-10.7101 -0.39208,-21.7043 -4.52929,-31.6836 -4.26788,-10.3898 -11.59645,-19.2652 -20.06446,-26.5313 -3.5311,-3.0465 -7.19761,-5.9718 -11.1621,-8.4355 -5.7165,-3.2125 -12.35832,-3.9781 -18.76368,-4.7031 -11.01447,-1.1101 -22.08933,-1.4207 -33.14843,-1.7598 -28.34335,-0.7698 -56.69741,-0.9326 -85.04883,-1.1797 -61.89132,-0.4674 -123.78569,-0.6483 -185.67188,-1.6367 -23.72496,-0.3649 -47.44932,-0.8396 -71.16601,-1.5723 -4.61213,-0.1654 -9.44323,-0.3421 -14.05274,-0.5664 -2.7165,-0.1414 -5.3699,-0.3128 -8.10937,-0.5332 -0.22128,-0.4432 -0.85505,-0.8026 -0.43946,-1.3203 2.63193,-6.8004 5.92397,-13.3177 9.07813,-19.8848 8.99443,-18.3944 18.54638,-36.5074 28.15234,-54.5878 12.73807,-23.8691 25.77593,-47.5833 39.36328,-70.9805 7.75626,-13.3262 15.90522,-26.4389 24.88477,-38.9805 15.83809,-22.2589 33.48613,-43.2493 52.92188,-62.4551 3.75599,-3.6898 7.58421,-7.3242 11.43164,-10.789 8.26918,-7.454 16.89663,-14.5362 26.08593,-20.8321 1.39538,-0.9562 2.90239,-1.9457 4.41211,-2.9121 0.60397,-0.3808 1.34768,-0.854 1.97852,-1.2324 3.28309,-2.0202 6.84064,-3.9651 10.22265,-5.5508 5.58996,-2.563 11.57536,-4.8418 17.81836,-4.7363 z m 2257.65041,179.2481 c 0.2178,-0.1306 0.4818,-0.1497 0.8164,0.01 0.3858,0.062 0.7724,0.1252 1.1582,0.1875 7.8392,1.4305 15.5567,3.442 23.2715,5.4199 19.7302,5.1796 39.3022,10.9519 58.7773,17.0156 18.5871,5.8425 37.0861,12.0062 55.2051,19.1856 6.8541,2.6969 13.6585,5.5202 20.4199,8.4414 5.71,2.4929 11.5344,5.1019 17.2559,7.7968 7.5138,3.5245 15.1166,7.2672 22.4824,11.1114 20.412,10.6439 40.2861,22.4136 58.875,36.0195 3.0594,2.2492 6.0645,4.5353 9.0039,6.8594 12.0771,9.5535 23.5475,19.931 33.8027,31.4336 1.838,2.0785 3.6201,4.1576 5.3047,6.2402 5.3353,6.5487 10.2138,13.4784 14.4571,20.7852 0.7692,1.3364 1.6359,2.8762 2.3984,4.3164 5.9624,11.1261 10.293,23.135 12.6543,35.541 0.7159,3.7482 1.27,7.5639 1.6562,11.4336 0.1009,1.1077 0.2199,2.4266 0.2969,3.5566 0.2748,3.9881 0.372,7.8749 0.3106,11.8867 -0.06,3.9055 -0.2846,7.8625 -0.6524,11.8106 -0.296,3.1201 -0.6641,6.1327 -1.1269,9.2539 -0.2204,1.4131 -0.4712,3.0335 -0.7266,4.4531 -1.5577,8.9629 -3.7867,17.7991 -6.4316,26.5 -0.2926,0.9148 -0.6608,2.0991 -0.9825,3.1172 -2.8235,8.8005 -6.0754,17.4595 -9.6386,25.9863 -0.5775,1.3572 -1.2299,2.9172 -1.8301,4.2871 -5.5617,12.7809 -11.6935,25.3155 -18.4141,37.5274 -1.2819,2.311 -2.627,4.7152 -3.959,7.0137 -6.1469,10.6824 -12.8307,21.2352 -19.7792,31.4199 -15.2341,22.3234 -32.1268,43.5021 -49.7754,63.9843 -12.334,14.2729 -25.0117,28.2699 -38.0723,41.9141 -8.4541,8.8398 -17.193,17.6289 -26.1445,25.9844 -3.0191,2.805 -6.2618,5.6267 -9.5625,7.9316 -2.0391,1.2743 -3.9066,2.9276 -6.2285,3.6719 -0.6769,0.4102 -1.1368,-0.4232 -1.2891,-0.959 -0.8151,-2.3268 -1.2181,-4.7699 -1.5352,-7.207 -0.1151,-0.9744 -0.2685,-2.2193 -0.3965,-3.2969 -2.1124,-18.6565 -4.0563,-37.3323 -6.2714,-55.9765 -3.1601,-26.9482 -6.744,-53.8576 -11.5411,-80.5684 -3.7301,-20.9755 -7.848,-41.8819 -12.2675,-62.7227 -11.0591,-51.7301 -24.8461,-102.898 -41.8496,-152.998 -14.8359,-43.8466 -32.0715,-86.8602 -51.0411,-129.0762 -6.2856,-14.1362 -12.5342,-28.3942 -17.5371,-43.0742 -0.6057,-1.8318 -1.1859,-3.6743 -1.6308,-5.5527 0.1481,-0.289 0.3192,-0.5316 0.5371,-0.6621 z M 65.068359,3707.7598 c 0.09902,-0.01 0.197846,-0.01 0.296875,0 1.338854,0.2706 1.859943,1.7728 2.322266,2.8906 1.445829,3.9613 2.029413,8.2093 2.601562,12.2969 1.966925,14.7016 3.073856,29.5014 4.673829,44.2441 6.772822,64.1851 17.866011,127.9153 33.248049,190.5977 17.87482,72.9497 41.52272,144.4489 69.94336,213.9589 8.84145,21.7402 18.28013,43.2295 27.92968,64.6211 1.55006,3.6301 3.32735,7.2739 3.79102,11.2383 0.0621,0.8251 -0.36052,1.7326 -1.25977,1.8496 -2.25616,0.6421 -4.62487,0.1113 -6.90039,-0.1465 -7.01496,-1.1178 -13.84261,-3.1331 -20.6875,-4.9882 -13.37395,-3.7467 -26.65121,-7.6921 -39.9707,-11.627 -24.18908,-7.245 -48.287268,-15.0309 -71.851562,-24.0293 -19.340593,-7.3934 -38.334743,-15.6074 -56.751953,-25.1113 -16.4969249,-8.4683 -32.471538,-17.9369 -47.884766,-28.2442 -15.082693,-10.0504 -29.78163,-20.7926 -42.99414,-33.2382 -14.709158,-13.8171 -27.759529,-29.6647 -36.906249,-47.7325 -4.6305,-9.1189 -8.25802,-18.7566 -10.64649,-28.705 -0.88264,-3.6137 -1.63657,-7.4512 -2.20312,-11.2012 -1.1886,-7.8325 -1.66569,-15.7948 -1.51367,-23.7656 0.0302,-1.348 0.0684,-2.7413 0.13281,-3.9844 0.056,-0.9999 0.089,-1.9477 0.1582,-2.8555 0.63414,-9.7943 2.16598,-19.5193 4.38672,-29.0761 1.82339,-7.835 4.17217,-15.805 6.82031,-23.4161 7.87527,-22.6482 18.67173,-44.1761 30.775395,-64.8379 3.065752,-5.2155 6.254145,-10.4351 9.425781,-15.4785 9.023877,-14.3354 18.717155,-28.2443 28.978516,-41.7207 14.754835,-19.454 30.279883,-38.3189 46.3652342,-56.6855 13.3051108,-15.1372 26.9582808,-29.9928 41.4628908,-43.9942 6.878717,-6.5664 13.982938,-12.9294 21.628906,-18.5957 1.434804,-0.927 2.903424,-2.0018 4.628906,-2.2636 z M 2738.9941,4030.2734 c 0.1539,0.074 0.3071,0.1952 0.4747,0.2442 -1.4161,5.8518 -3.5136,11.5872 -5.5645,17.3047 -6.6828,18.2994 -14.1167,36.4222 -21.6523,54.3945 -11.6527,27.6892 -23.7862,55.1925 -36.6426,82.3281 -6.2228,13.1457 -12.8115,26.1149 -19.6817,38.9336 -16.5531,31.1946 -34.1184,61.9143 -52.8769,91.7617 -18.8968,30.0693 -39.1311,59.3503 -60.7266,87.5762 -20.4271,26.7419 -42.1575,52.6238 -64.8476,77.5332 -7.1049,7.817 -14.4024,15.6357 -21.6934,23.2793 -16.8328,17.6544 -34.1378,34.8565 -51.7871,51.6934 -33.4074,31.7497 -68.47,61.9219 -104.9883,90.1093 -13.2266,10.2162 -26.7531,20.2546 -40.3711,29.9454 -25.6659,18.2739 -52.0064,35.6014 -78.9512,51.9316 -28.4536,17.2213 -57.7445,33.4218 -87.5332,48.3828 -22.426,11.2567 -45.1395,21.834 -68.207,31.7481 -30.6251,13.175 -61.8593,25.1729 -93.4473,35.9511 -29.5721,10.0901 -59.5826,19.1556 -89.8183,27.166 -16.2266,4.2977 -32.5228,8.2924 -48.916,12.0079 -10.6952,2.4254 -21.5295,4.7541 -32.2754,6.9238 -27.4005,5.5505 -54.961,10.3157 -82.6367,14.2715 -8.65,1.1498 -17.3822,2.0156 -26.0254,2.7285 -24.9505,2.0299 -49.9383,3.2563 -74.9746,4.1543 -31.4934,1.0998 -63.0558,1.6877 -94.5977,1.6484 -20.9242,-0.061 -41.8488,-0.3288 -62.7285,-1.2871 -8.2531,-0.3979 -16.4867,-0.8896 -24.7402,-1.7266 -20.8594,-2.0757 -41.6046,-4.6077 -62.3418,-7.6191 -24.7877,-3.5925 -49.5714,-7.8711 -74.1622,-12.8262 -32.7955,-6.6011 -65.4298,-14.4335 -97.6699,-23.4882 -23.9976,-6.7358 -47.8893,-14.1755 -71.4961,-22.2911 -70.9218,-24.3462 -139.80537,-54.8928 -205.46872,-91.1699 -35.37439,-19.5381 -69.83668,-40.725 -103.26367,-63.4336 -17.10462,-11.6331 -34.11692,-23.7691 -50.6914,-36.2129 -17.28567,-12.9462 -34.21934,-26.3569 -50.9336,-40.0312 -4.99627,-4.1754 -10.04763,-8.3176 -14.58984,-12.9942 -1.59286,-1.7824 -3.30339,-3.5843 -4.20703,-5.832 -0.39292,-0.8717 -0.11289,-1.9124 0.70117,-2.4297 1.78023,-1.2483 3.98215,-1.6745 6.06445,-2.1601 5.7668,-1.1793 11.66138,-1.5355 17.51953,-1.9727 12.36896,-0.8355 24.95246,-1.2554 37.42774,-1.8906 62.87642,-2.9754 125.72797,-6.5806 188.48828,-11.4453 64.16019,-4.9537 128.22469,-11.2148 192.08199,-19.1856 61.576,-7.6676 122.9576,-16.8507 184.127,-27.2676 40.3811,-6.8645 80.6896,-14.1603 120.8945,-21.9921 104.9996,-20.528 209.2473,-44.8499 312.6172,-72.4161 120.4832,-32.1404 239.7988,-68.6635 357.6113,-109.5234 50.5294,-17.5312 100.7802,-35.8735 150.6954,-55.084 66.6497,-25.6358 132.7064,-52.8248 197.996,-81.7558 61.6292,-27.3497 122.5808,-56.2508 182.5118,-87.1524 24.4883,-12.6158 48.785,-25.6036 72.914,-38.8926 16.8207,-9.1793 33.7097,-18.2558 50.9024,-26.6757 2.2379,-1.0827 4.6468,-2.2244 7,-3.2227 0.1718,-0.1399 0.3266,-0.1133 0.4804,-0.039 z" />
  </g>
</svg>
