solid OpenSCAD_Model
  facet normal 0 -0.707107 -0.707107
    outer loop
      vertex -14.2 -16.2 -1
      vertex 15 -17 -0.2
      vertex -15 -17 -0.2
    endloop
  endfacet
  facet normal 0 -0.707107 -0.707107
    outer loop
      vertex 15 -17 -0.2
      vertex -14.2 -16.2 -1
      vertex 14.2 -16.2 -1
    endloop
  endfacet
  facet normal -0.707107 0 -0.707107
    outer loop
      vertex -14.2 -16.2 -1
      vertex -15 17 -0.2
      vertex -14.2 16.2 -1
    endloop
  endfacet
  facet normal -0.707107 -0 -0.707107
    outer loop
      vertex -15 17 -0.2
      vertex -14.2 -16.2 -1
      vertex -15 -17 -0.2
    endloop
  endfacet
  facet normal 0 0.707107 -0.707107
    outer loop
      vertex 14.2 16.2 -1
      vertex -15 17 -0.2
      vertex 15 17 -0.2
    endloop
  endfacet
  facet normal 0 0.707107 -0.707107
    outer loop
      vertex -15 17 -0.2
      vertex 14.2 16.2 -1
      vertex -14.2 16.2 -1
    endloop
  endfacet
  facet normal 0.707107 0 -0.707107
    outer loop
      vertex 15 17 -0.2
      vertex 14.2 -16.2 -1
      vertex 14.2 16.2 -1
    endloop
  endfacet
  facet normal 0.707107 0 -0.707107
    outer loop
      vertex 14.2 -16.2 -1
      vertex 15 17 -0.2
      vertex 15 -17 -0.2
    endloop
  endfacet
  facet normal 1 -0 0
    outer loop
      vertex 15 -17 1
      vertex 15 17 -0.2
      vertex 15 17 1
    endloop
  endfacet
  facet normal 1 0 0
    outer loop
      vertex 15 17 -0.2
      vertex 15 -17 1
      vertex 15 -17 -0.2
    endloop
  endfacet
  facet normal 0 0 1
    outer loop
      vertex 15 17 1
      vertex 11.025 12.075 1
      vertex 15 -17 1
    endloop
  endfacet
  facet normal 0 0 1
    outer loop
      vertex 15 17 1
      vertex -11.025 12.075 1
      vertex 11.025 12.075 1
    endloop
  endfacet
  facet normal 0 0 1
    outer loop
      vertex -11.025 12.075 1
      vertex -15 17 1
      vertex -11.025 -12.075 1
    endloop
  endfacet
  facet normal -0 0 1
    outer loop
      vertex -15 17 1
      vertex -11.025 12.075 1
      vertex 15 17 1
    endloop
  endfacet
  facet normal -0 0 1
    outer loop
      vertex 11.025 -12.075 1
      vertex 15 -17 1
      vertex 11.025 12.075 1
    endloop
  endfacet
  facet normal -0 0 1
    outer loop
      vertex -11.025 -12.075 1
      vertex 15 -17 1
      vertex 11.025 -12.075 1
    endloop
  endfacet
  facet normal 0 0 1
    outer loop
      vertex -11.025 -12.075 1
      vertex -15 -17 1
      vertex 15 -17 1
    endloop
  endfacet
  facet normal 0 0 1
    outer loop
      vertex -15 -17 1
      vertex -11.025 -12.075 1
      vertex -15 17 1
    endloop
  endfacet
  facet normal 0 0 -1
    outer loop
      vertex -14.2 -16.2 -1
      vertex 14.2 16.2 -1
      vertex 14.2 -16.2 -1
    endloop
  endfacet
  facet normal -0 0 -1
    outer loop
      vertex 14.2 16.2 -1
      vertex -14.2 -16.2 -1
      vertex -14.2 16.2 -1
    endloop
  endfacet
  facet normal -1 0 0
    outer loop
      vertex -15 -17 -0.2
      vertex -15 17 1
      vertex -15 17 -0.2
    endloop
  endfacet
  facet normal -1 -0 0
    outer loop
      vertex -15 17 1
      vertex -15 -17 -0.2
      vertex -15 -17 1
    endloop
  endfacet
  facet normal 0 1 -0
    outer loop
      vertex 15 17 -0.2
      vertex -15 17 1
      vertex 15 17 1
    endloop
  endfacet
  facet normal 0 1 0
    outer loop
      vertex -15 17 1
      vertex 15 17 -0.2
      vertex -15 17 -0.2
    endloop
  endfacet
  facet normal 0 -1 0
    outer loop
      vertex -15 -17 -0.2
      vertex 15 -17 1
      vertex -15 -17 1
    endloop
  endfacet
  facet normal 0 -1 -0
    outer loop
      vertex 15 -17 1
      vertex -15 -17 -0.2
      vertex 15 -17 -0.2
    endloop
  endfacet
  facet normal -1 0 0
    outer loop
      vertex 11.025 -12.075 -0.0749998
      vertex 11.025 12.075 1
      vertex 11.025 12.075 -0.0749998
    endloop
  endfacet
  facet normal -1 -0 0
    outer loop
      vertex 11.025 12.075 1
      vertex 11.025 -12.075 -0.0749998
      vertex 11.025 -12.075 1
    endloop
  endfacet
  facet normal 0 0 1
    outer loop
      vertex 11.025 12.075 -0.0749998
      vertex 7.5 8.5 -0.0749998
      vertex 11.025 -12.075 -0.0749998
    endloop
  endfacet
  facet normal 0 0 1
    outer loop
      vertex 11.025 12.075 -0.0749998
      vertex -7.5 8.5 -0.0749998
      vertex 7.5 8.5 -0.0749998
    endloop
  endfacet
  facet normal 0 0 1
    outer loop
      vertex -7.5 8.5 -0.0749998
      vertex -11.025 12.075 -0.0749998
      vertex -7.5 -8.5 -0.0749998
    endloop
  endfacet
  facet normal -0 0 1
    outer loop
      vertex -11.025 12.075 -0.0749998
      vertex -7.5 8.5 -0.0749998
      vertex 11.025 12.075 -0.0749998
    endloop
  endfacet
  facet normal -0 0 1
    outer loop
      vertex 7.5 -8.5 -0.0749998
      vertex 11.025 -12.075 -0.0749998
      vertex 7.5 8.5 -0.0749998
    endloop
  endfacet
  facet normal -0 0 1
    outer loop
      vertex -7.5 -8.5 -0.0749998
      vertex 11.025 -12.075 -0.0749998
      vertex 7.5 -8.5 -0.0749998
    endloop
  endfacet
  facet normal 0 0 1
    outer loop
      vertex -7.5 -8.5 -0.0749998
      vertex -11.025 -12.075 -0.0749998
      vertex 11.025 -12.075 -0.0749998
    endloop
  endfacet
  facet normal 0 0 1
    outer loop
      vertex -11.025 -12.075 -0.0749998
      vertex -7.5 -8.5 -0.0749998
      vertex -11.025 12.075 -0.0749998
    endloop
  endfacet
  facet normal 1 -0 0
    outer loop
      vertex -11.025 -12.075 1
      vertex -11.025 12.075 -0.0749998
      vertex -11.025 12.075 1
    endloop
  endfacet
  facet normal 1 0 0
    outer loop
      vertex -11.025 12.075 -0.0749998
      vertex -11.025 -12.075 1
      vertex -11.025 -12.075 -0.0749998
    endloop
  endfacet
  facet normal 0 -1 0
    outer loop
      vertex -11.025 12.075 -0.0749998
      vertex 11.025 12.075 1
      vertex -11.025 12.075 1
    endloop
  endfacet
  facet normal 0 -1 -0
    outer loop
      vertex 11.025 12.075 1
      vertex -11.025 12.075 -0.0749998
      vertex 11.025 12.075 -0.0749998
    endloop
  endfacet
  facet normal 0 1 -0
    outer loop
      vertex 11.025 -12.075 -0.0749998
      vertex -11.025 -12.075 1
      vertex 11.025 -12.075 1
    endloop
  endfacet
  facet normal 0 1 0
    outer loop
      vertex -11.025 -12.075 1
      vertex 11.025 -12.075 -0.0749998
      vertex -11.025 -12.075 -0.0749998
    endloop
  endfacet
  facet normal 1 -0 0
    outer loop
      vertex 7.5 -8.5 2
      vertex 7.5 8.5 -0.0749998
      vertex 7.5 8.5 2
    endloop
  endfacet
  facet normal 1 0 0
    outer loop
      vertex 7.5 8.5 -0.0749998
      vertex 7.5 -8.5 2
      vertex 7.5 -8.5 -0.0749998
    endloop
  endfacet
  facet normal -0 0 1
    outer loop
      vertex -7.5 8.5 2
      vertex 7.5 -8.5 2
      vertex 7.5 8.5 2
    endloop
  endfacet
  facet normal 0 0 1
    outer loop
      vertex 7.5 -8.5 2
      vertex -7.5 8.5 2
      vertex -7.5 -8.5 2
    endloop
  endfacet
  facet normal -1 0 0
    outer loop
      vertex -7.5 -8.5 -0.0749998
      vertex -7.5 8.5 2
      vertex -7.5 8.5 -0.0749998
    endloop
  endfacet
  facet normal -1 -0 0
    outer loop
      vertex -7.5 8.5 2
      vertex -7.5 -8.5 -0.0749998
      vertex -7.5 -8.5 2
    endloop
  endfacet
  facet normal 0 1 -0
    outer loop
      vertex 7.5 8.5 -0.0749998
      vertex -7.5 8.5 2
      vertex 7.5 8.5 2
    endloop
  endfacet
  facet normal 0 1 0
    outer loop
      vertex -7.5 8.5 2
      vertex 7.5 8.5 -0.0749998
      vertex -7.5 8.5 -0.0749998
    endloop
  endfacet
  facet normal 0 -1 0
    outer loop
      vertex -7.5 -8.5 -0.0749998
      vertex 7.5 -8.5 2
      vertex -7.5 -8.5 2
    endloop
  endfacet
  facet normal 0 -1 -0
    outer loop
      vertex 7.5 -8.5 2
      vertex -7.5 -8.5 -0.0749998
      vertex 7.5 -8.5 -0.0749998
    endloop
  endfacet
endsolid OpenSCAD_Model
