<?xml version="1.0" encoding="UTF-8" standalone="no"?>
<svg
   xmlns:dc="http://purl.org/dc/elements/1.1/"
   xmlns:cc="http://creativecommons.org/ns#"
   xmlns:rdf="http://www.w3.org/1999/02/22-rdf-syntax-ns#"
   xmlns:svg="http://www.w3.org/2000/svg"
   xmlns="http://www.w3.org/2000/svg"
   xmlns:sodipodi="http://sodipodi.sourceforge.net/DTD/sodipodi-0.dtd"
   xmlns:inkscape="http://www.inkscape.org/namespaces/inkscape"
   inkscape:version="1.0 (4035a4f, 2020-05-01)"
   id="svg8"
   version="1.1"
   viewBox="0 0 3400 5400"
   sodipodi:docname="celeste-cuts.svg">
  <title
     id="title8">Hen sitting on ringed planet</title>
  <defs
     id="defs2">
    <inkscape:path-effect
       update_on_knot_move="true"
       attempt_force_join="true"
       miter_limit="4"
       offset="64"
       unit="mm"
       linejoin_type="round"
       lpeversion="1"
       is_visible="true"
       id="path-effect930"
       effect="offset" />
  </defs>
  <sodipodi:namedview
     inkscape:window-height="674"
     inkscape:window-width="1280"
     inkscape:pagecheckerboard="false"
     showgrid="true"
     inkscape:document-rotation="0"
     inkscape:current-layer="layer1"
     inkscape:document-units="mm"
     inkscape:cy="2856.585"
     inkscape:cx="-1190.6891"
     inkscape:zoom="0.08117387"
     inkscape:pageshadow="2"
     inkscape:pageopacity="0.0"
     borderopacity="1.0"
     bordercolor="#666666"
     pagecolor="#ffffff"
     id="base"
     units="mm"
     scale-x="1"
     showguides="true"
     inkscape:window-x="0"
     inkscape:window-y="23"
     inkscape:window-maximized="0"
     objecttolerance="1"
     guidetolerance="1"
     gridtolerance="1">
    <inkscape:grid
       visible="true"
       snapvisiblegridlinesonly="false"
       empspacing="5"
       empopacity="0.2"
       empcolor="#006600"
       opacity="0.2"
       color="#00cc00"
       spacingy="39.370079"
       spacingx="39.370079"
       units="mm"
       dotted="false"
       id="grid10"
       type="xygrid" />
  </sodipodi:namedview>
  <metadata
     id="metadata5">
    <rdf:RDF>
      <cc:Work
         rdf:about="">
        <dc:format>image/svg+xml</dc:format>
        <dc:type
           rdf:resource="http://purl.org/dc/dcmitype/StillImage" />
        <dc:title>Hen sitting on ringed planet</dc:title>
      </cc:Work>
    </rdf:RDF>
  </metadata>
  <g
     style="display:inline"
     inkscape:label="cuts"
     id="layer1"
     inkscape:groupmode="layer">
    <path
       id="path72"
       d="m 1475.3449,1173.0414 c -17.5332,-10.8851 -46.4013,-43.8347 -64.1514,-73.2212 -37.2594,-61.6855 -77.8881,-77.5897 -140.4333,-54.9731 -51.412,18.5908 -127.6302,7.3553 -168.5722,-24.8497 -40.2827,-31.6864 -81.0735,-29.74022 -150.51312,7.1812 -66.93354,35.5889 -91.2667,37.7727 -140.01228,12.5654 -57.24769,-29.604 -86.71062,-76.71543 -86.71062,-138.65104 0,-46.13147 6.7584,-61.76552 41.8854,-96.89252 35.42956,-35.42955 50.57389,-41.8854 98.25613,-41.8854 34.65246,0 71.91094,9.47486 96.706,24.59242 52.02069,31.71705 110.18359,31.7653 138.82659,0.11519 30.9159,-34.16172 95.4493,-49.93529 146.56,-35.82294 47.5644,13.13317 62.8035,28.66047 106.0469,108.05265 39.5355,72.58468 78.8016,88.18093 145.8685,57.93799 63.8666,-28.79984 113.5977,-17.3002 161.596,37.36692 29.6953,33.82102 37.4741,54.01373 37.4741,97.27783 0,46.0693 -6.799,61.3962 -43.528,98.1252 -36.25,36.25 -52.2135,43.4732 -95.4741,43.2002 -28.5703,-0.1804 -66.2914,-9.2339 -83.8246,-20.1191 z"
       style="font-variation-settings:'wdth' 1, 'wght' 1;display:inline;fill:#000000;stroke-width:73.9154;stroke-linecap:round;stroke-linejoin:round" />
    <path
       id="path74"
       d="m 794.1598,2756.6479 c -26.3037,-6.175 -74.18614,-30.5783 -106.40541,-54.2294 -32.21926,-23.6512 -75.80739,-46.4474 -96.86249,-50.6585 -40.99077,-8.1981 -36.61309,1.1851 -81.04423,-173.707 -69.98238,-275.4679 -38.77064,-651.3109 73.82306,-888.9567 57.17001,-120.6659 197.47219,-262.9906 316.76678,-321.3331 75.82941,-37.0854 90.36424,-40.0765 166.30969,-34.2249 150.8299,11.6216 291.3207,78.5821 353.684,168.5723 18.1881,26.2456 62.4413,118.519 98.3403,205.0521 l 65.271,157.3329 -58.2933,46.0782 c -285.4097,225.6034 -314.4947,626.1789 -64.4961,888.2765 l 68.1997,71.5001 -343.7341,-1.2375 c -189.05368,-0.6806 -365.25519,-6.2898 -391.5589,-12.465 z m 360.4232,-952.56 c 59.9841,-31.019 124.7346,-113.1633 124.7346,-158.2419 0,-63.2922 -29.4278,-95.0999 -87.9845,-95.0999 -41.2357,0 -56.0859,7.2925 -87.8028,43.1173 -20.9953,23.7145 -47.7028,43.1173 -59.35,43.1173 -11.6473,0 -37.6318,-20.5115 -57.74336,-45.5811 -29.89128,-37.2604 -44.61524,-45.5812 -80.65718,-45.5812 -130.27096,0 -124.90739,165.2457 7.94833,244.8793 60.35978,36.1796 183.54201,43.0279 240.85491,13.3902 z"
       style="font-variation-settings:'wdth' 1, 'wght' 1;display:inline;fill:#000000;stroke-width:73.9154;stroke-linecap:round;stroke-linejoin:round" />
    <path
       id="path76"
       d="m 1970.3634,2741.736 c -20.2269,-37.7944 -34.6397,-44.3128 -127.9172,-57.8519 -141.2181,-20.4977 -264.7991,-111.1576 -323.5593,-237.3656 -35.1948,-75.5929 -41.0166,-208.9344 -12.6344,-289.378 42.4076,-120.196 139.4499,-214.2956 262.4758,-254.5165 57.1961,-18.6992 117.9443,-20.6087 543.2494,-17.0762 511.9778,4.2524 519.5635,5.2098 519.5635,65.5734 0,40.5055 -20.7472,51.1839 -117.0327,60.2353 -98.4212,9.2522 -129.352,33.0137 -129.352,99.3702 0,47.2257 28.6509,76.9105 90.7922,94.0686 58.2314,16.0784 78.0462,51.531 51.4706,92.0906 -17.3864,26.5349 -28.5981,29.972 -97.7681,29.972 -95.251,0 -143.0486,29.3834 -143.0486,87.9387 0,54.5956 19.0264,80.8106 70.741,97.4687 59.1408,19.0502 77.0898,33.6441 77.0898,62.6798 0,12.8282 -6.9295,45.6809 -15.399,73.006 -12.7779,41.2253 -19.5929,48.3977 -40.0375,42.1375 -88.9708,-27.2433 -128.375,-22.3972 -205.6342,25.29 -75.341,46.503 -76.9647,46.8717 -230.9608,52.4324 l -155.0865,5.6001 z"
       style="font-variation-settings:'wdth' 1, 'wght' 1;display:inline;fill:#000000;stroke-width:73.9154;stroke-linecap:round;stroke-linejoin:round" />
    <path
       id="path78"
       d="M 416.61853,4278.4357 C 353.37558,4258.6389 233.06305,3913.6513 228.36901,3738.6436 l -2.34605,-87.4679 147.31733,-3.493 c 165.36378,-3.9208 191.46164,-15.1236 191.46164,-82.1871 0,-59.2776 -17.77219,-68.2952 -134.89563,-68.4459 -57.9312,-0.075 -126.82018,-3.6857 -153.08661,-8.0247 l -47.75715,-7.889 7.29328,-69.7784 c 4.0113,-38.3781 14.4343,-91.5895 23.16221,-118.2475 l 15.86893,-48.4692 233.09675,-3.3595 c 146.49244,-2.1114 239.16182,-8.3932 249.42098,-16.9075 22.45514,-18.6361 20.54062,-90.7894 -3.03457,-114.3646 -16.03295,-16.033 -54.24436,-19.3588 -222.41796,-19.3588 H 329.39297 l 46.86888,-89.2198 c 50.92334,-96.938 135.0582,-194.1226 168.05617,-194.1226 11.38349,0 43.73107,16.6856 71.88351,37.0791 101.89907,73.8153 101.63031,73.794 929.75347,73.794 726.5691,0 757.3824,-0.9311 820.073,-24.7799 35.8259,-13.6289 78.6388,-35.2165 95.1397,-47.9724 23.9654,-18.5263 35.7719,-20.5636 58.6807,-10.1256 69.8094,31.8073 206.9148,302.8863 249.6572,493.6116 19.0203,84.8723 36.6354,260.9164 29.021,290.0337 -8.2461,31.5333 -163.992,130.5611 -356.5463,226.7025 -381.8208,190.6411 -842.1549,333.0547 -1304.3339,403.5215 -163.60436,24.9442 -669.2641,45.4664 -721.02787,29.2631 z"
       style="font-variation-settings:'wdth' 1, 'wght' 1;display:inline;fill:#000000;stroke-width:73.9154;stroke-linecap:round;stroke-linejoin:round" />
    <path
       id="path80"
       d="m 1366.2686,4900.2701 c -196.9011,-23.2249 -396.75543,-96.7254 -567.0413,-208.541 -59.57252,-39.1174 -111.73373,-76.6564 -115.91381,-83.4199 -7.90918,-12.7973 46.82412,-20.3074 244.90588,-33.6041 524.45843,-35.2054 1301.21663,-256.7948 1716.01423,-489.5352 35.8802,-20.1322 68.8885,-32.9523 73.3516,-28.4892 10.2082,10.2083 -83.5456,200.497 -143.0816,290.4076 -250.6263,378.4927 -750.1805,607.2101 -1208.235,553.1818 z"
       style="font-variation-settings:'wdth' 1, 'wght' 1;display:inline;fill:#000000;stroke-width:73.9154;stroke-linecap:round;stroke-linejoin:round" />
    <path
       id="path82"
       d="m 2955.2464,3501.8788 c -1.3005,-34.9589 -40.2494,-238.3876 -55.1481,-288.036 -9.1495,-30.4901 -31.0897,-93.5162 -48.7559,-140.0581 -17.6663,-46.5418 -32.1204,-86.3524 -32.1204,-88.468 0,-2.1155 40.1915,9.8477 89.3144,26.5849 111.0792,37.8469 180.6212,84.7491 212.1893,143.1097 21.7813,40.2674 22.7149,50.9678 8.9404,102.4688 -8.4593,31.6284 -31.3213,80.4841 -50.8044,108.5682 -49.8735,71.8902 -123.0046,152.2479 -123.6153,135.8305 z"
       style="font-variation-settings:'wdth' 1, 'wght' 1;display:inline;fill:#000000;stroke-width:73.9154;stroke-linecap:round;stroke-linejoin:round" />
    <path
       id="path84"
       d="m 80.224428,4206.1984 c -137.455501,-56.5176 -205.299668,-121.805 -205.299668,-197.5627 0,-44.2675 49.098485,-136.5918 116.9117798,-219.8398 60.6364212,-74.4375 80.1959792,-79.1548 80.1959792,-19.3411 0,78.8004 60.257521,308.3233 116.913101,445.3259 12.54405,30.3336 -20.399,27.7331 -108.721192,-8.5823 z"
       style="font-variation-settings:'wdth' 1, 'wght' 1;display:inline;fill:#000000;stroke-width:73.9154;stroke-linecap:round;stroke-linejoin:round" />
    <path
       id="path86"
       d="m 363.857,1537.4033 c -8.74017,-33.4225 -4.97622,-39.6564 20.49451,-33.9433 15.70989,3.5237 16.14285,8.6927 2.79806,33.4053 l -15.78773,29.2365 z"
       style="font-variation-settings:'wdth' 1, 'wght' 1;display:inline;fill:#000000;stroke-width:73.9154;stroke-linecap:round;stroke-linejoin:round" />
  </g>
</svg>
