solid OpenSCAD_Model
  facet normal 0 0 1
    outer loop
      vertex 0 79.196 2.4
      vertex 0 0 2.4
      vertex 39.598 39.598 2.4
    endloop
  endfacet
  facet normal 0 -0 1
    outer loop
      vertex 0 0 2.4
      vertex 0 79.196 2.4
      vertex -39.598 39.598 2.4
    endloop
  endfacet
  facet normal 0 0 -1
    outer loop
      vertex 0 0 0
      vertex 0 79.196 0
      vertex 39.598 39.598 0
    endloop
  endfacet
  facet normal 0 -0 -1
    outer loop
      vertex 0 79.196 0
      vertex 0 0 0
      vertex -39.598 39.598 0
    endloop
  endfacet
  facet normal 0.707107 -0.707107 0
    outer loop
      vertex 0 0 2.4
      vertex 39.598 39.598 0
      vertex 39.598 39.598 2.4
    endloop
  endfacet
  facet normal 0.707107 -0.707107 0
    outer loop
      vertex 39.598 39.598 0
      vertex 0 0 2.4
      vertex 0 0 0
    endloop
  endfacet
  facet normal 0.707107 0.707107 0
    outer loop
      vertex 39.598 39.598 2.4
      vertex 0 79.196 0
      vertex 0 79.196 2.4
    endloop
  endfacet
  facet normal 0.707107 0.707107 0
    outer loop
      vertex 0 79.196 0
      vertex 39.598 39.598 2.4
      vertex 39.598 39.598 0
    endloop
  endfacet
  facet normal -0.707107 0.707107 0
    outer loop
      vertex -39.598 39.598 0
      vertex 0 79.196 2.4
      vertex 0 79.196 0
    endloop
  endfacet
  facet normal -0.707107 0.707107 0
    outer loop
      vertex 0 79.196 2.4
      vertex -39.598 39.598 0
      vertex -39.598 39.598 2.4
    endloop
  endfacet
  facet normal -0.707107 -0.707107 0
    outer loop
      vertex 0 0 0
      vertex -39.598 39.598 2.4
      vertex -39.598 39.598 0
    endloop
  endfacet
  facet normal -0.707107 -0.707107 0
    outer loop
      vertex -39.598 39.598 2.4
      vertex 0 0 0
      vertex 0 0 2.4
    endloop
  endfacet
endsolid OpenSCAD_Model
